<?xml version="1.0" encoding="UTF-8" standalone="no"?>
<!-- Created with Inkscape (http://www.inkscape.org/) -->

<svg
   version="1.1"
   id="svg1"
   width="471.4653"
   height="156.28268"
   viewBox="0 0 471.46532 156.28268"
   sodipodi:docname="Healthy_Rituals_Logo_Suite (2).ai"
   xmlns:inkscape="http://www.inkscape.org/namespaces/inkscape"
   xmlns:sodipodi="http://sodipodi.sourceforge.net/DTD/sodipodi-0.dtd"
   xmlns="http://www.w3.org/2000/svg"
   xmlns:svg="http://www.w3.org/2000/svg">
  <defs
     id="defs1">
    <clipPath
       clipPathUnits="userSpaceOnUse"
       id="clipPath652">
      <path
         d="M 0,117.212 H 353.599 V 0 H 0 Z"
         transform="translate(-185.92433,-62.498502)"
         id="path652" />
    </clipPath>
    <clipPath
       clipPathUnits="userSpaceOnUse"
       id="clipPath654">
      <path
         d="M 0,117.212 H 353.599 V 0 H 0 Z"
         transform="translate(-212.26081,-50.521002)"
         id="path654" />
    </clipPath>
    <clipPath
       clipPathUnits="userSpaceOnUse"
       id="clipPath656">
      <path
         d="M 0,117.212 H 353.599 V 0 H 0 Z"
         transform="translate(-222.15038,-62.352102)"
         id="path656" />
    </clipPath>
    <clipPath
       clipPathUnits="userSpaceOnUse"
       id="clipPath658">
      <path
         d="M 0,117.212 H 353.599 V 0 H 0 Z"
         transform="translate(-240.83108,-50.575701)"
         id="path658" />
    </clipPath>
    <clipPath
       clipPathUnits="userSpaceOnUse"
       id="clipPath660">
      <path
         d="M 0,117.212 H 353.599 V 0 H 0 Z"
         transform="translate(-277.27741,-76.491702)"
         id="path660" />
    </clipPath>
    <clipPath
       clipPathUnits="userSpaceOnUse"
       id="clipPath662">
      <path
         d="M 0,117.212 H 353.599 V 0 H 0 Z"
         transform="translate(-296.91068,-61.583502)"
         id="path662" />
    </clipPath>
    <clipPath
       clipPathUnits="userSpaceOnUse"
       id="clipPath664">
      <path
         d="M 0,117.212 H 353.599 V 0 H 0 Z"
         transform="translate(-324.82178,-76.582502)"
         id="path664" />
    </clipPath>
    <clipPath
       clipPathUnits="userSpaceOnUse"
       id="clipPath666">
      <path
         d="M 0,117.212 H 353.599 V 0 H 0 Z"
         transform="translate(-193.87313,-38.048301)"
         id="path666" />
    </clipPath>
    <clipPath
       clipPathUnits="userSpaceOnUse"
       id="clipPath668">
      <path
         d="M 0,117.212 H 353.599 V 0 H 0 Z"
         transform="translate(-204.95363,-46.802201)"
         id="path668" />
    </clipPath>
    <clipPath
       clipPathUnits="userSpaceOnUse"
       id="clipPath670">
      <path
         d="M 0,117.212 H 353.599 V 0 H 0 Z"
         transform="translate(-227.88278,-47.059101)"
         id="path670" />
    </clipPath>
    <clipPath
       clipPathUnits="userSpaceOnUse"
       id="clipPath672">
      <path
         d="M 0,117.212 H 353.599 V 0 H 0 Z"
         transform="translate(-250.29983,-47.132301)"
         id="path672" />
    </clipPath>
    <clipPath
       clipPathUnits="userSpaceOnUse"
       id="clipPath674">
      <path
         d="M 0,117.212 H 353.599 V 0 H 0 Z"
         transform="translate(-268.77878,-32.260303)"
         id="path674" />
    </clipPath>
    <clipPath
       clipPathUnits="userSpaceOnUse"
       id="clipPath676">
      <path
         d="M 0,117.212 H 353.599 V 0 H 0 Z"
         transform="translate(-295.79303,-23.506303)"
         id="path676" />
    </clipPath>
    <clipPath
       clipPathUnits="userSpaceOnUse"
       id="clipPath678">
      <path
         d="M 0,117.212 H 353.599 V 0 H 0 Z"
         transform="translate(-317.44088,-29.623498)"
         id="path678" />
    </clipPath>
    <clipPath
       clipPathUnits="userSpaceOnUse"
       id="clipPath680">
      <path
         d="M 0,117.212 H 353.599 V 0 H 0 Z"
         transform="translate(-93.932327,-47.884801)"
         id="path680" />
    </clipPath>
    <clipPath
       clipPathUnits="userSpaceOnUse"
       id="clipPath682">
      <path
         d="M 0,117.212 H 353.599 V 0 H 0 Z"
         transform="translate(-67.860077,-23.453601)"
         id="path682" />
    </clipPath>
    <clipPath
       clipPathUnits="userSpaceOnUse"
       id="clipPath684">
      <path
         d="M 0,117.212 H 353.599 V 0 H 0 Z"
         transform="translate(-69.508577,-29.613801)"
         id="path684" />
    </clipPath>
    <clipPath
       clipPathUnits="userSpaceOnUse"
       id="clipPath686">
      <path
         d="M 0,117.212 H 353.599 V 0 H 0 Z"
         transform="translate(-71.546402,-36.019498)"
         id="path686" />
    </clipPath>
    <clipPath
       clipPathUnits="userSpaceOnUse"
       id="clipPath688">
      <path
         d="M 0,117.212 H 353.599 V 0 H 0 Z"
         transform="translate(-47.552626,-69.090301)"
         id="path688" />
    </clipPath>
    <clipPath
       clipPathUnits="userSpaceOnUse"
       id="clipPath690">
      <path
         d="M 0,117.212 H 353.599 V 0 H 0 Z"
         transform="translate(-64.036727,-73.627402)"
         id="path690" />
    </clipPath>
    <clipPath
       clipPathUnits="userSpaceOnUse"
       id="clipPath692">
      <path
         d="M 0,117.212 H 353.599 V 0 H 0 Z"
         transform="translate(-86.965877,-46.456501)"
         id="path692" />
    </clipPath>
    <clipPath
       clipPathUnits="userSpaceOnUse"
       id="clipPath694">
      <path
         d="M 0,117.212 H 353.599 V 0 H 0 Z"
         transform="translate(-157.90703,-23.453601)"
         id="path694" />
    </clipPath>
    <clipPath
       clipPathUnits="userSpaceOnUse"
       id="clipPath696">
      <path
         d="M 0,117.212 H 353.599 V 0 H 0 Z"
         transform="translate(-142.9737,-36.117201)"
         id="path696" />
    </clipPath>
    <clipPath
       clipPathUnits="userSpaceOnUse"
       id="clipPath698">
      <path
         d="M 0,117.212 H 353.599 V 0 H 0 Z"
         transform="translate(-142.80863,-51.223602)"
         id="path698" />
    </clipPath>
    <clipPath
       clipPathUnits="userSpaceOnUse"
       id="clipPath700">
      <path
         d="M 0,117.212 H 353.599 V 0 H 0 Z"
         transform="translate(-110.9754,-40.694301)"
         id="path700" />
    </clipPath>
    <clipPath
       clipPathUnits="userSpaceOnUse"
       id="clipPath702">
      <path
         d="M 0,117.212 H 353.599 V 0 H 0 Z"
         transform="translate(-123.02273,-73.627402)"
         id="path702" />
    </clipPath>
    <clipPath
       clipPathUnits="userSpaceOnUse"
       id="clipPath704">
      <path
         d="M 0,117.212 H 353.599 V 0 H 0 Z"
         transform="translate(-107.31113,-74.145502)"
         id="path704" />
    </clipPath>
    <clipPath
       clipPathUnits="userSpaceOnUse"
       id="clipPath706">
      <path
         d="M 0,117.212 H 353.599 V 0 H 0 Z"
         transform="translate(-162.6255,-31.736803)"
         id="path706" />
    </clipPath>
    <clipPath
       clipPathUnits="userSpaceOnUse"
       id="clipPath708">
      <path
         d="M 0,117.212 H 353.599 V 0 H 0 Z"
         transform="translate(-93.527927,-41.789099)"
         id="path708" />
    </clipPath>
    <clipPath
       clipPathUnits="userSpaceOnUse"
       id="clipPath710">
      <path
         d="M 0,117.212 H 353.599 V 0 H 0 Z"
         transform="translate(-331.50203,-74.942902)"
         id="path710" />
    </clipPath>
    <clipPath
       clipPathUnits="userSpaceOnUse"
       id="clipPath712">
      <path
         d="M 0,117.212 H 353.599 V 0 H 0 Z"
         transform="translate(-332.71103,-74.363802)"
         id="path712" />
    </clipPath>
  </defs>
  <sodipodi:namedview
     id="namedview1"
     pagecolor="#ffffff"
     bordercolor="#000000"
     borderopacity="0.25"
     inkscape:showpageshadow="2"
     inkscape:pageopacity="0.0"
     inkscape:pagecheckerboard="0"
     inkscape:deskcolor="#d1d1d1">
    <inkscape:page
       x="0"
       y="0"
       inkscape:label="14"
       id="page650"
       width="471.46533"
       height="156.28268"
       margin="27.238934 27.310667 27.239067 27.309866"
       bleed="0" />
  </sodipodi:namedview>
  <g
     id="layer-MC0"
     inkscape:groupmode="layer"
     inkscape:label="BG"
     transform="translate(-4393.6039)">
    <path
       id="path651"
       d="m 0,0 h 0.55 c 0.17,0 0.317,-0.024 0.439,-0.073 0.22,-0.098 0.379,-0.207 0.477,-0.329 0.073,-0.123 0.121,-0.293 0.146,-0.513 0.024,-0.22 0.036,-0.452 0.036,-0.696 v -0.751 -0.641 -6.19 c 0,-0.416 -0.012,-0.879 -0.036,-1.393 -0.025,-0.513 0.061,-0.892 0.256,-1.135 0.122,-0.172 0.336,-0.257 0.642,-0.257 h 0.897 c 0.097,0 0.201,-0.005 0.311,-0.018 0.11,-0.013 0.214,-0.006 0.311,0.018 0.147,0.049 0.269,0.074 0.367,0.074 0.097,0 0.195,0.037 0.293,0.11 0.195,0.122 0.305,0.316 0.33,0.586 0.023,0.269 0.036,0.573 0.036,0.916 v 3.48 15.127 3.993 c 0,0.293 -0.006,0.598 -0.018,0.916 -0.013,0.317 -0.104,0.537 -0.275,0.659 -0.171,0.122 -0.385,0.189 -0.641,0.201 -0.256,0.013 -0.519,0.019 -0.788,0.019 -0.122,0 -0.244,0.005 -0.366,0.018 -0.122,0.012 -0.232,0.006 -0.329,-0.018 H 2.455 C 2.332,14.054 2.216,14.017 2.106,13.993 1.997,13.969 1.917,13.907 1.868,13.81 1.673,13.59 1.587,13.248 1.612,12.784 1.636,12.32 1.648,11.893 1.648,11.502 V 5.751 C 1.648,5.36 1.654,4.902 1.667,4.378 1.679,3.853 1.6,3.468 1.429,3.224 1.331,3.077 1.16,2.979 0.916,2.931 0.672,2.882 0.397,2.852 0.092,2.839 -0.214,2.826 -0.525,2.826 -0.842,2.839 -1.16,2.852 -1.441,2.857 -1.685,2.857 h -6.446 -2.052 -1.025 c -0.196,0.049 -0.361,0.098 -0.495,0.147 -0.134,0.049 -0.25,0.146 -0.348,0.293 -0.049,0.049 -0.079,0.122 -0.092,0.22 -0.012,0.097 -0.03,0.183 -0.054,0.256 v 0.293 c -0.025,0.098 -0.032,0.213 -0.019,0.348 0.012,0.134 0.019,0.263 0.019,0.385 v 1.429 5.42 c 0,0.391 0.006,0.8 0.018,1.228 0.012,0.427 -0.08,0.751 -0.275,0.971 -0.146,0.195 -0.458,0.286 -0.934,0.274 -0.476,-0.013 -0.885,-0.018 -1.227,-0.018 -0.049,-0.025 -0.098,-0.031 -0.146,-0.019 -0.05,0.013 -0.098,0.006 -0.147,-0.018 -0.269,-0.073 -0.452,-0.196 -0.549,-0.366 -0.123,-0.172 -0.178,-0.403 -0.165,-0.696 0.012,-0.293 0.018,-0.574 0.018,-0.843 V 8.718 -5.896 -10.109 c 0,-0.342 0.006,-0.678 0.019,-1.007 0.012,-0.33 0.115,-0.556 0.311,-0.678 0.122,-0.099 0.287,-0.153 0.494,-0.165 0.208,-0.013 0.433,-0.019 0.678,-0.019 0.39,0 0.756,0.012 1.099,0.038 0.342,0.023 0.573,0.169 0.696,0.439 0.048,0.122 0.078,0.269 0.091,0.439 0.012,0.17 0.019,0.354 0.019,0.549 v 1.575 5.789 c 0,0.195 -0.007,0.432 -0.019,0.713 -0.013,0.281 -0.013,0.556 0,0.825 0.012,0.268 0.037,0.512 0.073,0.732 0.038,0.22 0.092,0.391 0.165,0.513 0.098,0.122 0.214,0.202 0.348,0.238 0.134,0.037 0.299,0.079 0.495,0.128 h 9.524 z"
       style="fill:#465d43;fill-opacity:1;fill-rule:nonzero;stroke:none"
       transform="matrix(1.3333333,0,0,-1.3333333,4641.5031,72.951333)"
       clip-path="url(#clipPath652)" />
    <path
       id="path653"
       d="M 0,0 H 0.678 C 0.91,0 1.099,0.049 1.246,0.146 1.368,0.22 1.477,0.354 1.575,0.55 1.599,0.646 1.624,0.788 1.648,0.971 1.672,1.154 1.679,1.337 1.667,1.521 1.654,1.703 1.636,1.88 1.612,2.052 1.587,2.222 1.55,2.345 1.501,2.418 1.404,2.588 1.208,2.723 0.916,2.82 0.769,2.869 0.598,2.888 0.403,2.876 0.208,2.863 0.012,2.857 -0.183,2.857 h -2.088 -6.776 -2.345 c -0.269,0 -0.513,0.006 -0.733,0.019 -0.219,0.012 -0.415,0.078 -0.585,0.201 -0.171,0.122 -0.269,0.323 -0.293,0.605 -0.025,0.28 -0.037,0.591 -0.037,0.933 v 3.481 2.05 c 0,0.196 -0.006,0.391 -0.018,0.586 -0.013,0.196 0.005,0.367 0.055,0.513 0.073,0.244 0.201,0.415 0.384,0.513 0.183,0.097 0.397,0.165 0.641,0.202 0.244,0.036 0.507,0.049 0.788,0.036 0.28,-0.013 0.567,-0.018 0.86,-0.018 h 7.729 1.355 c 0.122,0 0.245,-0.006 0.367,-0.018 0.122,-0.013 0.244,-0.007 0.366,0.018 h 0.22 c 0.073,0.024 0.152,0.043 0.238,0.055 0.085,0.012 0.152,0.042 0.201,0.091 0.171,0.098 0.281,0.257 0.33,0.477 0.049,0.146 0.079,0.323 0.092,0.531 0.012,0.207 0.006,0.408 -0.019,0.604 -0.024,0.196 -0.061,0.378 -0.11,0.549 -0.049,0.171 -0.109,0.281 -0.183,0.33 -0.122,0.073 -0.299,0.128 -0.531,0.165 -0.232,0.036 -0.488,0.061 -0.769,0.074 -0.281,0.011 -0.556,0.011 -0.824,0 -0.269,-0.013 -0.513,-0.019 -0.733,-0.019 h -7.179 -1.245 c -0.123,0 -0.238,-0.006 -0.349,-0.019 -0.109,-0.012 -0.213,-0.005 -0.311,0.019 h -0.366 c -0.244,0.049 -0.415,0.098 -0.513,0.146 -0.22,0.098 -0.366,0.293 -0.439,0.586 -0.05,0.22 -0.068,0.513 -0.055,0.879 0.012,0.367 0.018,0.684 0.018,0.953 v 3.737 c 0,0.389 0.005,0.768 0.018,1.135 0.012,0.366 0.141,0.623 0.385,0.769 0.244,0.147 0.628,0.214 1.154,0.201 0.525,-0.012 0.983,-0.017 1.373,-0.017 h 6.154 3.663 c 0.439,0 0.818,0.017 1.135,0.054 0.318,0.036 0.526,0.226 0.623,0.568 0.049,0.195 0.074,0.482 0.074,0.861 0,0.378 -0.025,0.652 -0.074,0.824 -0.049,0.073 -0.097,0.147 -0.146,0.22 C 1.27,25.824 1.208,25.885 1.135,25.934 0.964,26.056 0.745,26.11 0.476,26.099 0.208,26.086 -0.061,26.08 -0.33,26.08 h -3.15 -11.978 c -0.049,-0.024 -0.097,-0.03 -0.146,-0.018 -0.049,0.012 -0.098,0.005 -0.146,-0.018 -0.27,-0.073 -0.453,-0.196 -0.55,-0.366 -0.098,-0.123 -0.147,-0.293 -0.147,-0.513 V 24.505 22.234 14.029 4.213 1.648 0.971 c 0,-0.233 0.049,-0.421 0.147,-0.568 0.122,-0.196 0.305,-0.311 0.55,-0.348 C -15.507,0.019 -15.214,0 -14.872,0 h 2.565 9.743 z"
       style="fill:#465d43;fill-opacity:1;fill-rule:nonzero;stroke:none"
       transform="matrix(1.3333333,0,0,-1.3333333,4676.6184,88.921333)"
       clip-path="url(#clipPath654)" />
    <path
       id="path655"
       d="m 0,0 c 0.049,0.195 0.11,0.391 0.183,0.587 0.073,0.194 0.147,0.39 0.22,0.586 0.049,0.122 0.092,0.243 0.128,0.366 0.037,0.122 0.079,0.243 0.129,0.366 0.39,0.928 0.738,1.88 1.044,2.858 0.304,0.975 0.665,1.94 1.08,2.893 0.122,0.269 0.219,0.536 0.293,0.806 0.073,0.268 0.171,0.537 0.293,0.806 0.048,0.146 0.097,0.287 0.147,0.42 0.048,0.135 0.121,0.263 0.219,0.385 0.049,0.049 0.097,0.086 0.147,0.111 0.048,0.023 0.097,0.06 0.146,0.109 0.195,0 0.324,-0.055 0.385,-0.164 C 4.475,10.019 4.53,9.902 4.579,9.78 4.701,9.536 4.804,9.279 4.89,9.012 4.975,8.742 5.079,8.474 5.202,8.205 5.568,7.326 5.891,6.429 6.172,5.513 6.453,4.598 6.777,3.7 7.143,2.821 7.24,2.602 7.32,2.387 7.381,2.18 7.442,1.972 7.509,1.771 7.583,1.575 7.631,1.478 7.656,1.393 7.656,1.319 7.656,1.246 7.68,1.16 7.729,1.062 7.802,0.916 7.881,0.738 7.967,0.531 8.052,0.324 8.114,0.116 8.15,-0.091 8.187,-0.299 8.174,-0.488 8.114,-0.659 8.052,-0.83 7.912,-0.952 7.692,-1.025 7.497,-1.099 7.204,-1.13 6.813,-1.117 6.422,-1.104 6.092,-1.099 5.824,-1.099 H 1.905 c -0.343,0 -0.709,0.006 -1.099,0.019 -0.391,0.012 -0.647,0.115 -0.769,0.311 -0.049,0.097 -0.08,0.22 -0.092,0.367 C -0.067,-0.256 -0.049,-0.122 0,0 m -7.363,-11.647 c 0.122,-0.099 0.276,-0.154 0.458,-0.166 0.184,-0.012 0.372,-0.018 0.568,-0.018 0.367,0 0.714,0.006 1.044,0.018 0.33,0.012 0.592,0.092 0.788,0.239 0.097,0.073 0.189,0.188 0.274,0.347 0.086,0.159 0.165,0.335 0.238,0.532 0.074,0.195 0.141,0.384 0.202,0.567 0.061,0.184 0.116,0.349 0.165,0.495 0.244,0.562 0.47,1.148 0.677,1.758 0.207,0.61 0.434,1.196 0.678,1.758 0.122,0.317 0.226,0.629 0.312,0.934 0.084,0.305 0.225,0.58 0.42,0.825 0.098,0.146 0.25,0.244 0.458,0.293 0.207,0.048 0.434,0.085 0.678,0.109 0.244,0.024 0.5,0.031 0.77,0.018 0.268,-0.012 0.512,-0.018 0.732,-0.018 h 6.923 c 0.17,0 0.335,0.006 0.494,0.018 0.159,0.013 0.299,-0.005 0.422,-0.054 0.243,-0.073 0.439,-0.171 0.586,-0.293 0.146,-0.123 0.262,-0.27 0.348,-0.44 0.085,-0.171 0.158,-0.354 0.219,-0.549 0.061,-0.196 0.129,-0.403 0.202,-0.622 0.268,-0.661 0.513,-1.333 0.733,-2.015 0.22,-0.685 0.463,-1.344 0.732,-1.979 0.122,-0.293 0.238,-0.623 0.348,-0.989 0.11,-0.366 0.287,-0.622 0.531,-0.768 0.22,-0.124 0.519,-0.184 0.898,-0.184 h 1.08 0.513 c 0.17,0 0.317,0.024 0.44,0.073 0.17,0.073 0.274,0.19 0.311,0.348 0.037,0.159 0.037,0.33 0,0.514 -0.037,0.182 -0.091,0.359 -0.165,0.53 -0.073,0.171 -0.134,0.317 -0.183,0.44 -0.269,0.635 -0.531,1.281 -0.787,1.942 -0.257,0.659 -0.52,1.305 -0.788,1.94 -0.074,0.221 -0.141,0.428 -0.202,0.623 -0.061,0.195 -0.14,0.403 -0.238,0.623 -0.757,1.782 -1.471,3.583 -2.142,5.402 C 10.702,2.424 10,4.225 9.267,6.008 9.047,6.496 8.846,6.997 8.663,7.51 8.48,8.022 8.291,8.522 8.095,9.012 7.851,9.572 7.631,10.134 7.436,10.696 7.24,11.258 7.02,11.819 6.777,12.381 6.654,12.649 6.539,12.949 6.428,13.278 6.319,13.608 6.166,13.847 5.971,13.993 5.702,14.188 5.275,14.279 4.689,14.268 4.103,14.255 3.59,14.249 3.15,14.249 3.101,14.225 3.046,14.219 2.985,14.23 2.924,14.243 2.869,14.236 2.821,14.213 2.601,14.163 2.442,14.09 2.344,13.993 2.125,13.847 1.959,13.608 1.85,13.278 1.74,12.949 1.624,12.649 1.502,12.381 1.233,11.746 0.983,11.1 0.751,10.439 0.519,9.78 0.269,9.133 0,8.498 -0.732,6.716 -1.428,4.927 -2.088,3.132 -2.747,1.337 -3.443,-0.439 -4.176,-2.197 -4.396,-2.734 -4.603,-3.266 -4.798,-3.791 -4.994,-4.316 -5.202,-4.848 -5.421,-5.384 -5.739,-6.166 -6.032,-6.94 -6.3,-7.71 c -0.269,-0.769 -0.575,-1.545 -0.916,-2.326 -0.049,-0.073 -0.104,-0.19 -0.165,-0.348 -0.061,-0.159 -0.11,-0.318 -0.146,-0.476 -0.037,-0.16 -0.05,-0.312 -0.037,-0.458 0.012,-0.147 0.079,-0.256 0.201,-0.329"
       style="fill:#465d43;fill-opacity:1;fill-rule:nonzero;stroke:none"
       transform="matrix(1.3333333,0,0,-1.3333333,4689.8045,73.146533)"
       clip-path="url(#clipPath656)" />
    <path
       id="path657"
       d="m 0,0 c 0.244,-0.036 0.537,-0.055 0.879,-0.055 h 2.381 9.267 2.418 0.678 c 0.231,0 0.408,0.049 0.531,0.147 0.17,0.097 0.28,0.232 0.329,0.403 0.024,0.097 0.049,0.238 0.074,0.421 0.024,0.184 0.03,0.366 0.018,0.55 C 16.562,1.648 16.544,1.825 16.52,1.997 16.496,2.167 16.471,2.29 16.447,2.363 16.349,2.533 16.141,2.668 15.824,2.766 15.677,2.814 15.513,2.833 15.33,2.821 15.146,2.809 14.969,2.803 14.798,2.803 H 12.747 6.154 4.286 C 4.09,2.803 3.895,2.809 3.7,2.821 3.504,2.833 3.345,2.863 3.223,2.912 3.028,3.034 2.894,3.181 2.821,3.352 2.748,3.547 2.71,3.804 2.71,4.121 V 5 v 3.37 11.758 3.847 0.988 c 0,0.317 -0.073,0.574 -0.219,0.769 -0.074,0.098 -0.196,0.171 -0.366,0.22 -0.171,0.049 -0.361,0.079 -0.568,0.092 -0.208,0.012 -0.422,0.012 -0.641,0 C 0.696,26.031 0.5,26.025 0.33,26.025 0.281,26.001 0.226,25.995 0.165,26.007 0.104,26.02 0.049,26.013 0,25.989 -0.269,25.892 -0.452,25.77 -0.549,25.623 -0.623,25.5 -0.666,25.33 -0.677,25.11 -0.69,24.89 -0.696,24.67 -0.696,24.45 V 22.18 14.23 4.231 1.594 0.916 c 0,-0.232 0.049,-0.421 0.147,-0.567 C -0.427,0.152 -0.245,0.037 0,0"
       style="fill:#465d43;fill-opacity:1;fill-rule:nonzero;stroke:none"
       transform="matrix(1.3333333,0,0,-1.3333333,4714.7121,88.8484)"
       clip-path="url(#clipPath658)" />
    <path
       id="path659"
       d="M 0,0 C -0.171,0.097 -0.379,0.146 -0.623,0.146 H -1.355 -4.139 -19.45 c -0.05,-0.024 -0.098,-0.031 -0.147,-0.018 -0.049,0.012 -0.098,0.006 -0.146,-0.019 -0.098,-0.024 -0.19,-0.054 -0.275,-0.091 -0.086,-0.037 -0.152,-0.091 -0.201,-0.164 -0.073,-0.074 -0.135,-0.208 -0.184,-0.404 -0.049,-0.195 -0.079,-0.403 -0.091,-0.623 -0.012,-0.22 -0.006,-0.439 0.018,-0.659 0.024,-0.22 0.073,-0.379 0.146,-0.476 0.049,-0.073 0.111,-0.134 0.184,-0.183 l 0.22,-0.147 c 0.195,-0.073 0.482,-0.104 0.86,-0.091 0.379,0.012 0.715,0.018 1.008,0.018 h 4.029 c 0.488,0 0.946,-0.013 1.373,-0.036 0.427,-0.025 0.702,-0.232 0.824,-0.623 0.074,-0.22 0.104,-0.507 0.092,-0.861 -0.012,-0.354 -0.018,-0.665 -0.018,-0.934 v -3.626 -12.052 -3.26 c 0,-0.317 0.006,-0.61 0.018,-0.878 0.012,-0.27 0.092,-0.501 0.239,-0.697 0.122,-0.171 0.359,-0.256 0.713,-0.256 h 1.008 c 0.196,0 0.378,0.006 0.55,0.018 0.17,0.013 0.316,0.043 0.439,0.092 0.244,0.122 0.384,0.33 0.421,0.623 0.037,0.293 0.055,0.622 0.055,0.989 v 3.882 11.575 3.553 c 0,0.268 -0.013,0.574 -0.037,0.916 -0.024,0.342 0,0.623 0.074,0.843 0.073,0.219 0.183,0.384 0.329,0.494 0.147,0.11 0.324,0.183 0.532,0.22 0.207,0.037 0.439,0.048 0.696,0.037 0.256,-0.013 0.518,-0.019 0.787,-0.019 h 4.176 0.989 c 0.342,0 0.61,0.061 0.806,0.184 0.122,0.096 0.201,0.207 0.238,0.329 0.037,0.122 0.079,0.28 0.128,0.476 v 0.44 c 0,0.317 -0.018,0.58 -0.055,0.787 C 0.312,-0.287 0.195,-0.123 0,0"
       style="fill:#465d43;fill-opacity:1;fill-rule:nonzero;stroke:none"
       transform="matrix(1.3333333,0,0,-1.3333333,4763.3072,54.293733)"
       clip-path="url(#clipPath660)" />
    <path
       id="path661"
       d="m 0,0 c 0.024,-0.22 0.037,-0.452 0.037,-0.696 v -0.751 -0.641 -6.19 c 0,-0.416 -0.013,-0.879 -0.037,-1.393 -0.024,-0.513 0.061,-0.892 0.256,-1.135 0.122,-0.172 0.336,-0.257 0.641,-0.257 h 0.898 c 0.097,0 0.201,-0.005 0.311,-0.018 0.11,-0.013 0.213,-0.006 0.311,0.018 0.147,0.049 0.269,0.074 0.367,0.074 0.097,0 0.195,0.037 0.293,0.11 0.195,0.122 0.305,0.316 0.329,0.586 0.025,0.269 0.037,0.573 0.037,0.916 v 3.48 15.127 3.993 c 0,0.293 -0.006,0.598 -0.018,0.916 -0.013,0.317 -0.105,0.537 -0.275,0.659 -0.171,0.122 -0.384,0.189 -0.641,0.201 -0.256,0.013 -0.519,0.019 -0.787,0.019 -0.123,0 -0.245,0.005 -0.367,0.018 -0.123,0.012 -0.232,0.006 -0.33,-0.018 H 0.843 C 0.72,14.969 0.604,14.932 0.494,14.908 0.385,14.884 0.305,14.822 0.256,14.725 0.061,14.505 -0.024,14.163 0,13.699 0.024,13.235 0.037,12.808 0.037,12.417 V 6.666 C 0.037,6.275 0.042,5.817 0.055,5.293 0.067,4.768 -0.013,4.383 -0.183,4.139 -0.281,3.992 -0.452,3.895 -0.696,3.846 -0.94,3.797 -1.215,3.767 -1.521,3.754 c -0.305,-0.013 -0.616,-0.013 -0.933,0 -0.318,0.013 -0.599,0.018 -0.843,0.018 h -6.446 -2.052 -1.025 c -0.196,0.049 -0.361,0.098 -0.495,0.147 -0.134,0.049 -0.25,0.146 -0.348,0.293 -0.049,0.049 -0.079,0.122 -0.091,0.22 -0.013,0.097 -0.031,0.183 -0.056,0.256 v 0.293 c -0.024,0.098 -0.03,0.213 -0.018,0.348 0.013,0.134 0.018,0.263 0.018,0.385 v 1.429 5.42 c 0,0.391 0.006,0.8 0.019,1.228 0.012,0.427 -0.08,0.751 -0.274,0.971 -0.147,0.195 -0.458,0.286 -0.935,0.274 -0.476,-0.013 -0.885,-0.018 -1.227,-0.018 -0.049,-0.025 -0.098,-0.031 -0.146,-0.019 -0.05,0.013 -0.098,0.006 -0.147,-0.018 -0.269,-0.073 -0.452,-0.196 -0.549,-0.366 -0.123,-0.172 -0.178,-0.403 -0.165,-0.696 0.012,-0.293 0.018,-0.574 0.018,-0.843 V 9.633 -4.981 -9.194 c 0,-0.342 0.006,-0.678 0.019,-1.007 0.011,-0.33 0.115,-0.556 0.311,-0.678 0.121,-0.099 0.286,-0.153 0.494,-0.165 0.207,-0.013 0.434,-0.019 0.678,-0.019 0.39,0 0.756,0.012 1.099,0.038 0.342,0.023 0.573,0.17 0.696,0.439 0.048,0.122 0.079,0.269 0.091,0.44 0.013,0.169 0.018,0.353 0.018,0.548 v 1.576 5.788 c 0,0.195 -0.005,0.432 -0.018,0.713 -0.012,0.281 -0.012,0.556 0,0.825 0.013,0.268 0.037,0.512 0.074,0.732 0.036,0.22 0.091,0.391 0.164,0.513 0.098,0.122 0.214,0.202 0.348,0.238 0.135,0.037 0.299,0.079 0.495,0.128 h 9.523 1.612 0.55 c 0.17,0 0.317,-0.024 0.439,-0.073 0.22,-0.098 0.379,-0.207 0.477,-0.329 C -0.073,0.39 -0.024,0.22 0,0"
       style="fill:#465d43;fill-opacity:1;fill-rule:nonzero;stroke:none"
       transform="matrix(1.3333333,0,0,-1.3333333,4789.4849,74.171333)"
       clip-path="url(#clipPath662)" />
    <path
       id="path663"
       d="m 0,0 c -0.196,0.013 -0.391,0.019 -0.586,0.019 h -1.227 c -0.403,0 -0.714,-0.086 -0.935,-0.256 -0.146,-0.123 -0.269,-0.257 -0.366,-0.404 -0.098,-0.146 -0.196,-0.305 -0.293,-0.476 -0.196,-0.293 -0.384,-0.592 -0.568,-0.897 -0.183,-0.305 -0.372,-0.617 -0.567,-0.934 -0.66,-1.026 -1.307,-2.064 -1.941,-3.114 -0.636,-1.05 -1.283,-2.1 -1.942,-3.15 -0.22,-0.342 -0.434,-0.696 -0.641,-1.062 -0.207,-0.367 -0.434,-0.721 -0.678,-1.062 -0.049,-0.099 -0.141,-0.215 -0.275,-0.349 -0.134,-0.133 -0.298,-0.176 -0.494,-0.128 -0.196,0.049 -0.348,0.153 -0.458,0.312 -0.11,0.158 -0.214,0.323 -0.311,0.494 -0.244,0.366 -0.483,0.733 -0.714,1.099 -0.233,0.367 -0.471,0.745 -0.715,1.136 -0.659,1.074 -1.325,2.136 -1.996,3.186 -0.672,1.05 -1.35,2.112 -2.033,3.188 -0.171,0.243 -0.329,0.488 -0.476,0.732 l -0.439,0.732 c -0.123,0.171 -0.239,0.33 -0.349,0.477 -0.109,0.146 -0.263,0.268 -0.457,0.366 -0.269,0.122 -0.672,0.17 -1.209,0.147 -0.538,-0.025 -0.989,-0.037 -1.355,-0.037 -0.025,-0.025 -0.056,-0.031 -0.092,-0.019 -0.037,0.013 -0.068,0.019 -0.092,0.019 -0.122,-0.049 -0.238,-0.086 -0.348,-0.11 -0.11,-0.024 -0.177,-0.098 -0.201,-0.22 -0.073,-0.073 -0.086,-0.196 -0.037,-0.366 0.073,-0.245 0.195,-0.476 0.366,-0.696 0.318,-0.489 0.629,-0.959 0.935,-1.41 0.305,-0.452 0.616,-0.922 0.933,-1.41 0.831,-1.246 1.636,-2.486 2.418,-3.718 0.782,-1.234 1.587,-2.473 2.417,-3.718 l 1.429,-2.198 c 0.195,-0.318 0.385,-0.617 0.568,-0.898 0.183,-0.281 0.335,-0.629 0.458,-1.044 v -0.476 c 0.024,-0.098 0.037,-0.201 0.037,-0.311 v -0.348 -1.283 -4.871 c 0,-0.219 -0.007,-0.463 -0.019,-0.732 -0.013,-0.27 -0.013,-0.531 0,-0.788 0.012,-0.256 0.037,-0.501 0.073,-0.733 0.037,-0.232 0.104,-0.397 0.202,-0.494 0.122,-0.172 0.33,-0.257 0.623,-0.257 h 0.878 c 0.123,0 0.239,-0.005 0.349,-0.018 0.109,-0.013 0.213,-0.006 0.311,0.018 0.097,0.025 0.183,0.031 0.256,0.019 0.074,-0.013 0.147,0.006 0.22,0.055 0.269,0.122 0.44,0.403 0.513,0.842 v 0.623 c 0.049,0.195 0.06,0.403 0.037,0.623 -0.025,0.219 -0.037,0.426 -0.037,0.623 v 5.238 1.465 0.567 c 0,0.184 0.024,0.349 0.073,0.495 0.122,0.341 0.263,0.628 0.422,0.861 0.158,0.231 0.323,0.482 0.494,0.751 0.269,0.415 0.525,0.811 0.769,1.19 0.244,0.378 0.501,0.763 0.769,1.154 0.806,1.294 1.613,2.576 2.418,3.846 0.806,1.27 1.636,2.527 2.491,3.772 0.121,0.196 0.232,0.379 0.33,0.55 0.097,0.171 0.207,0.342 0.329,0.513 0.195,0.269 0.379,0.543 0.549,0.824 0.171,0.28 0.354,0.568 0.55,0.861 0.073,0.097 0.153,0.262 0.238,0.495 0.085,0.231 0.042,0.408 -0.128,0.531 C 0.354,-0.067 0.195,-0.012 0,0"
       style="fill:#465d43;fill-opacity:1;fill-rule:nonzero;stroke:none"
       transform="matrix(1.3333333,0,0,-1.3333333,4826.6997,54.172667)"
       clip-path="url(#clipPath664)" />
    <path
       id="path665"
       d="m 0,0 c -0.086,-0.293 -0.214,-0.574 -0.384,-0.843 -0.367,-0.586 -0.856,-1.025 -1.466,-1.318 -0.61,-0.293 -1.3,-0.495 -2.069,-0.605 -0.769,-0.11 -1.606,-0.159 -2.509,-0.146 -0.905,0.012 -1.832,0.018 -2.784,0.018 h -2.271 c -0.293,0 -0.562,0.018 -0.806,0.055 -0.245,0.036 -0.428,0.141 -0.549,0.312 -0.172,0.219 -0.251,0.531 -0.239,0.933 0.012,0.404 0.019,0.788 0.019,1.155 v 4.211 c 0,0.318 -0.007,0.672 -0.019,1.063 -0.012,0.391 0.031,0.696 0.128,0.916 0.098,0.243 0.293,0.402 0.587,0.476 0.073,0.024 0.14,0.037 0.201,0.037 0.061,0 0.116,0.011 0.165,0.036 h 6.044 c 0.683,0 1.349,-0.013 1.996,-0.036 0.647,-0.025 1.214,-0.135 1.704,-0.33 C -1.105,5.47 -0.336,4.627 0.055,3.406 0.152,3.138 0.226,2.802 0.275,2.399 0.324,1.996 0.311,1.624 0.238,1.282 V 0.952 C 0.165,0.61 0.085,0.293 0,0 m 3.718,-15.165 c -0.05,0.146 -0.08,0.287 -0.092,0.422 -0.012,0.134 -0.043,0.274 -0.091,0.421 -0.074,0.219 -0.122,0.458 -0.147,0.714 -0.024,0.256 -0.061,0.506 -0.11,0.751 -0.025,0.122 -0.03,0.225 -0.018,0.311 0.012,0.085 0.006,0.177 -0.018,0.275 -0.049,0.195 -0.062,0.39 -0.037,0.586 0.024,0.195 0.012,0.378 -0.037,0.549 v 0.33 c -0.049,0.17 -0.061,0.342 -0.036,0.513 0.024,0.171 0.012,0.342 -0.037,0.513 -0.024,0.195 -0.049,0.384 -0.073,0.567 -0.024,0.184 -0.049,0.372 -0.073,0.568 -0.123,0.489 -0.244,0.947 -0.366,1.374 -0.123,0.427 -0.318,0.811 -0.586,1.154 -0.172,0.268 -0.373,0.5 -0.605,0.696 -0.232,0.194 -0.482,0.378 -0.751,0.549 -0.098,0.049 -0.214,0.122 -0.348,0.22 -0.134,0.097 -0.189,0.219 -0.165,0.366 0.024,0.146 0.085,0.263 0.183,0.348 0.098,0.085 0.208,0.165 0.33,0.238 0.195,0.122 0.378,0.251 0.549,0.385 0.171,0.133 0.354,0.275 0.55,0.421 0.049,0.048 0.103,0.11 0.165,0.183 0.06,0.073 0.115,0.134 0.165,0.184 0.023,0.023 0.048,0.042 0.073,0.054 0.024,0.012 0.048,0.031 0.073,0.055 0.074,0.122 0.153,0.232 0.238,0.33 0.086,0.097 0.165,0.207 0.238,0.329 0.195,0.294 0.349,0.605 0.458,0.935 0.11,0.329 0.225,0.678 0.348,1.044 0.049,0.171 0.079,0.342 0.091,0.512 0.013,0.171 0.043,0.354 0.092,0.55 V 1.685 C 3.706,1.807 3.724,1.947 3.736,2.106 3.749,2.265 3.742,2.405 3.718,2.527 V 2.894 C 3.668,3.089 3.638,3.29 3.626,3.498 3.614,3.705 3.583,3.906 3.535,4.103 3.291,4.908 2.979,5.61 2.601,6.209 2.222,6.807 1.727,7.313 1.117,7.729 0.775,7.973 0.409,8.181 0.018,8.352 -0.373,8.521 -0.8,8.681 -1.264,8.827 -1.459,8.876 -1.661,8.913 -1.868,8.938 -2.076,8.962 -2.277,8.998 -2.472,9.047 -2.644,9.071 -2.802,9.09 -2.949,9.103 -3.095,9.114 -3.242,9.133 -3.388,9.157 H -3.791 C -3.938,9.182 -4.109,9.188 -4.304,9.176 -4.5,9.163 -4.683,9.157 -4.853,9.157 h -10.623 c -0.049,-0.024 -0.098,-0.031 -0.147,-0.018 -0.048,0.012 -0.097,0.006 -0.146,-0.019 -0.269,-0.098 -0.452,-0.22 -0.549,-0.366 -0.123,-0.171 -0.178,-0.402 -0.165,-0.695 0.012,-0.293 0.018,-0.575 0.018,-0.843 v -22.271 -0.97 c 0,-0.33 0.097,-0.556 0.293,-0.678 0.171,-0.122 0.384,-0.19 0.641,-0.201 0.257,-0.013 0.519,-0.019 0.787,-0.019 0.122,0 0.244,-0.007 0.367,-0.018 0.122,-0.013 0.232,-0.006 0.33,0.018 0.122,0.049 0.225,0.073 0.311,0.073 0.085,0 0.177,0.025 0.275,0.074 0.146,0.048 0.244,0.158 0.293,0.33 0.122,0.243 0.17,0.616 0.146,1.117 -0.024,0.5 -0.036,0.921 -0.036,1.264 v 5.31 c 0,0.415 -0.007,0.898 -0.019,1.447 -0.012,0.55 0.067,0.947 0.239,1.191 0.097,0.122 0.213,0.201 0.347,0.238 0.134,0.036 0.287,0.079 0.458,0.128 h 6.74 c 0.415,0 0.812,-0.006 1.19,-0.019 0.379,-0.012 0.727,-0.079 1.044,-0.201 1.075,-0.342 1.844,-1.025 2.308,-2.051 0.17,-0.391 0.287,-0.806 0.348,-1.246 0.061,-0.439 0.153,-0.878 0.275,-1.318 0.048,-0.196 0.073,-0.379 0.073,-0.55 0,-0.171 0.024,-0.342 0.073,-0.512 l 0.11,-1.649 v -0.439 c 0,-0.147 0.012,-0.293 0.037,-0.44 0.024,-0.097 0.024,-0.195 0,-0.293 -0.025,-0.097 -0.013,-0.208 0.037,-0.33 v -0.237 c 0,-0.086 0.011,-0.178 0.036,-0.276 0.049,-0.268 0.104,-0.531 0.165,-0.787 0.06,-0.256 0.189,-0.446 0.385,-0.568 0.219,-0.171 0.524,-0.256 0.916,-0.256 h 1.171 c 0.196,0 0.385,0.006 0.568,0.019 0.183,0.011 0.336,0.054 0.458,0.128 0.22,0.171 0.268,0.415 0.146,0.732 z"
       style="fill:#465d43;fill-opacity:1;fill-rule:nonzero;stroke:none"
       transform="matrix(1.3333333,0,0,-1.3333333,4652.1015,105.5516)"
       clip-path="url(#clipPath666)" />
    <path
       id="path667"
       d="m 0,0 c -0.073,0.098 -0.196,0.171 -0.367,0.22 -0.171,0.049 -0.36,0.079 -0.568,0.092 -0.207,0.012 -0.42,0.012 -0.64,0 C -1.795,0.299 -1.991,0.293 -2.161,0.293 -2.211,0.269 -2.259,0.263 -2.308,0.275 -2.357,0.287 -2.406,0.281 -2.454,0.257 -2.748,0.184 -2.943,0.062 -3.041,-0.109 c -0.122,-0.197 -0.177,-0.458 -0.164,-0.788 0.012,-0.33 0.018,-0.629 0.018,-0.898 v -3.955 -15.312 -2.93 -0.787 c 0,-0.257 0.048,-0.458 0.146,-0.605 0.122,-0.22 0.33,-0.343 0.623,-0.366 0.293,-0.024 0.61,-0.037 0.952,-0.037 h 0.696 c 0.196,0.049 0.361,0.086 0.495,0.11 0.134,0.025 0.25,0.098 0.348,0.22 0.122,0.195 0.183,0.47 0.183,0.824 v 1.007 4.286 14.139 3.554 c 0,0.316 -0.006,0.627 -0.018,0.933 C 0.225,-0.409 0.146,-0.171 0,0"
       style="fill:#465d43;fill-opacity:1;fill-rule:nonzero;stroke:none"
       transform="matrix(1.3333333,0,0,-1.3333333,4666.8755,93.879733)"
       clip-path="url(#clipPath668)" />
    <path
       id="path669"
       d="M 0,0 C -0.171,0.098 -0.379,0.146 -0.623,0.146 H -1.355 -4.139 -19.45 c -0.05,-0.024 -0.098,-0.031 -0.147,-0.018 -0.049,0.013 -0.098,0.006 -0.146,-0.019 -0.098,-0.024 -0.19,-0.054 -0.275,-0.09 -0.086,-0.038 -0.152,-0.092 -0.201,-0.165 -0.073,-0.074 -0.135,-0.208 -0.184,-0.404 -0.049,-0.195 -0.079,-0.402 -0.091,-0.622 -0.012,-0.22 -0.006,-0.439 0.018,-0.659 0.024,-0.221 0.073,-0.379 0.146,-0.477 0.049,-0.073 0.111,-0.134 0.184,-0.183 l 0.22,-0.147 c 0.195,-0.073 0.482,-0.103 0.86,-0.091 0.379,0.012 0.715,0.018 1.008,0.018 h 4.029 c 0.488,0 0.946,-0.013 1.373,-0.036 0.427,-0.024 0.702,-0.232 0.824,-0.623 0.074,-0.22 0.104,-0.507 0.092,-0.86 -0.012,-0.355 -0.018,-0.666 -0.018,-0.935 v -3.626 -12.051 -3.261 c 0,-0.317 0.006,-0.61 0.018,-0.878 0.012,-0.269 0.092,-0.501 0.239,-0.697 0.122,-0.171 0.359,-0.256 0.713,-0.256 h 1.008 c 0.196,0 0.378,0.006 0.55,0.019 0.17,0.012 0.316,0.042 0.439,0.091 0.244,0.122 0.384,0.33 0.421,0.623 0.037,0.293 0.055,0.623 0.055,0.989 v 3.883 11.574 3.554 c 0,0.268 -0.013,0.573 -0.037,0.915 -0.024,0.342 0,0.623 0.074,0.843 0.073,0.219 0.183,0.384 0.329,0.495 0.147,0.109 0.324,0.182 0.532,0.219 0.207,0.037 0.439,0.048 0.696,0.037 0.256,-0.013 0.518,-0.019 0.787,-0.019 h 4.176 0.989 c 0.342,0 0.61,0.061 0.806,0.184 0.122,0.097 0.201,0.207 0.238,0.329 0.037,0.122 0.079,0.281 0.128,0.476 v 0.44 c 0,0.317 -0.018,0.58 -0.055,0.788 C 0.312,-0.287 0.195,-0.122 0,0"
       style="fill:#465d43;fill-opacity:1;fill-rule:nonzero;stroke:none"
       transform="matrix(1.3333333,0,0,-1.3333333,4697.4477,93.5372)"
       clip-path="url(#clipPath670)" />
    <path
       id="path671"
       d="m 0,0 c -0.123,0 -0.238,0.006 -0.348,0.019 -0.11,0.011 -0.226,0.017 -0.348,0.017 h -0.971 c -0.329,0 -0.555,-0.085 -0.677,-0.256 -0.196,-0.219 -0.287,-0.592 -0.275,-1.117 0.012,-0.525 0.018,-0.995 0.018,-1.41 v -6.337 -6.008 c 0,-0.805 -0.018,-1.593 -0.055,-2.362 -0.036,-0.77 -0.152,-1.459 -0.347,-2.069 -0.318,-0.978 -0.74,-1.759 -1.264,-2.345 -0.525,-0.586 -1.252,-1.062 -2.18,-1.428 -0.268,-0.123 -0.537,-0.208 -0.805,-0.257 -0.269,-0.049 -0.55,-0.11 -0.843,-0.183 -0.122,-0.025 -0.251,-0.031 -0.384,-0.018 -0.135,0.012 -0.264,0.006 -0.385,-0.018 -0.123,-0.049 -0.263,-0.068 -0.422,-0.055 -0.159,0.012 -0.311,0.017 -0.458,0.017 h -0.366 c -0.146,0.025 -0.299,0.043 -0.457,0.056 -0.16,0.012 -0.312,0.03 -0.458,0.055 -0.293,0.073 -0.586,0.128 -0.88,0.165 -0.293,0.036 -0.574,0.115 -0.842,0.238 -0.904,0.39 -1.648,0.891 -2.234,1.501 -0.586,0.61 -1.039,1.393 -1.355,2.345 -0.22,0.635 -0.343,1.361 -0.367,2.179 -0.025,0.818 -0.037,1.654 -0.037,2.509 v 6.814 5.494 c 0,0.391 0.006,0.806 0.019,1.245 0.012,0.439 -0.08,0.77 -0.275,0.989 -0.147,0.196 -0.458,0.287 -0.934,0.275 C -18.406,0.042 -18.815,0.036 -19.157,0.036 -19.207,0.012 -19.304,0 -19.45,0 c -0.269,-0.073 -0.452,-0.195 -0.55,-0.366 -0.097,-0.147 -0.146,-0.33 -0.146,-0.55 v -0.659 -2.49 -9.561 -2.381 c 0,-0.196 -0.013,-0.397 -0.037,-0.604 -0.025,-0.208 -0.012,-0.41 0.037,-0.605 v -0.366 c 0.024,-0.196 0.042,-0.385 0.055,-0.568 0.012,-0.183 0.03,-0.372 0.055,-0.568 0.097,-0.415 0.183,-0.818 0.256,-1.209 0.073,-0.39 0.183,-0.768 0.33,-1.135 0.342,-0.855 0.756,-1.6 1.245,-2.234 0.489,-0.636 1.099,-1.185 1.831,-1.648 0.171,-0.123 0.336,-0.233 0.496,-0.33 0.158,-0.098 0.323,-0.183 0.494,-0.256 0.366,-0.172 0.751,-0.312 1.154,-0.422 0.402,-0.11 0.811,-0.226 1.227,-0.348 0.195,-0.049 0.384,-0.086 0.567,-0.11 0.184,-0.024 0.373,-0.061 0.568,-0.11 h 0.293 c 0.171,-0.048 0.348,-0.067 0.532,-0.054 0.182,0.012 0.359,-0.006 0.531,-0.056 h 0.439 c 0.122,-0.023 0.317,-0.036 0.586,-0.036 0.269,0 0.464,0.013 0.586,0.036 h 0.44 c 0.244,0.05 0.494,0.073 0.751,0.073 0.256,0 0.506,0.025 0.751,0.074 0.244,0.049 0.476,0.091 0.696,0.129 0.22,0.036 0.439,0.09 0.659,0.164 0.463,0.146 0.903,0.305 1.318,0.476 0.415,0.171 0.806,0.366 1.173,0.586 0.927,0.586 1.666,1.301 2.216,2.143 0.549,0.842 0.994,1.862 1.337,3.058 0.195,0.708 0.305,1.502 0.329,2.381 0.024,0.88 0.037,1.771 0.037,2.674 v 7.619 5.055 c 0,0.294 0.006,0.623 0.018,0.989 C 0.836,-0.843 0.781,-0.562 0.66,-0.366 0.562,-0.195 0.342,-0.073 0,0"
       style="fill:#465d43;fill-opacity:1;fill-rule:nonzero;stroke:none"
       transform="matrix(1.3333333,0,0,-1.3333333,4727.3371,93.4396)"
       clip-path="url(#clipPath672)" />
    <path
       id="path673"
       d="M 0,0 C -0.062,-0.171 -0.201,-0.293 -0.421,-0.366 -0.617,-0.439 -0.91,-0.47 -1.3,-0.457 c -0.391,0.012 -0.721,0.018 -0.989,0.018 h -3.92 c -0.342,0 -0.708,0.005 -1.099,0.018 -0.39,0.012 -0.647,0.116 -0.769,0.312 -0.049,0.097 -0.079,0.219 -0.091,0.366 -0.013,0.146 0.005,0.28 0.055,0.403 0.049,0.195 0.109,0.39 0.182,0.586 0.074,0.195 0.147,0.39 0.221,0.586 0.048,0.122 0.091,0.244 0.128,0.366 0.036,0.122 0.079,0.244 0.128,0.366 0.391,0.928 0.738,1.88 1.044,2.858 0.305,0.976 0.665,1.941 1.08,2.893 0.122,0.269 0.22,0.538 0.293,0.806 0.074,0.269 0.171,0.537 0.293,0.806 0.049,0.146 0.098,0.287 0.147,0.422 0.049,0.133 0.122,0.261 0.22,0.384 0.048,0.048 0.097,0.085 0.147,0.11 0.048,0.024 0.096,0.06 0.146,0.11 0.195,0 0.323,-0.056 0.384,-0.165 0.061,-0.11 0.116,-0.226 0.165,-0.349 0.122,-0.244 0.225,-0.5 0.311,-0.768 0.086,-0.27 0.189,-0.538 0.312,-0.806 0.366,-0.88 0.689,-1.777 0.971,-2.692 0.28,-0.916 0.604,-1.814 0.97,-2.693 0.097,-0.219 0.177,-0.433 0.239,-0.641 0.06,-0.207 0.128,-0.409 0.201,-0.604 0.049,-0.098 0.073,-0.183 0.073,-0.256 0,-0.074 0.024,-0.16 0.073,-0.257 C -0.312,1.575 -0.232,1.398 -0.146,1.191 -0.062,0.983 0,0.775 0.037,0.568 0.073,0.36 0.061,0.171 0,0 M 7.417,-9.267 C 7.148,-8.632 6.886,-7.984 6.63,-7.325 6.374,-6.666 6.111,-6.02 5.842,-5.384 5.769,-5.164 5.702,-4.957 5.641,-4.762 5.58,-4.566 5.5,-4.358 5.403,-4.139 4.646,-2.356 3.932,-0.556 3.26,1.265 2.588,3.083 1.887,4.884 1.154,6.667 0.934,7.155 0.732,7.656 0.549,8.169 0.366,8.682 0.177,9.182 -0.019,9.671 c -0.244,0.561 -0.463,1.123 -0.659,1.684 -0.196,0.562 -0.415,1.124 -0.659,1.686 -0.122,0.268 -0.238,0.567 -0.348,0.897 -0.11,0.33 -0.263,0.568 -0.458,0.714 -0.269,0.196 -0.696,0.287 -1.282,0.275 -0.586,-0.013 -1.098,-0.019 -1.538,-0.019 -0.05,-0.024 -0.104,-0.03 -0.165,-0.017 -0.061,0.011 -0.116,0.005 -0.165,-0.019 -0.22,-0.049 -0.379,-0.122 -0.477,-0.22 -0.219,-0.146 -0.384,-0.384 -0.494,-0.714 -0.11,-0.33 -0.226,-0.629 -0.347,-0.897 -0.27,-0.636 -0.52,-1.282 -0.751,-1.941 -0.233,-0.661 -0.483,-1.307 -0.751,-1.942 -0.733,-1.783 -1.429,-3.571 -2.088,-5.366 -0.659,-1.795 -1.356,-3.571 -2.088,-5.33 -0.22,-0.537 -0.428,-1.068 -0.623,-1.593 -0.195,-0.525 -0.403,-1.056 -0.623,-1.594 -0.318,-0.782 -0.611,-1.556 -0.879,-2.326 -0.269,-0.769 -0.574,-1.545 -0.916,-2.326 -0.049,-0.073 -0.104,-0.189 -0.164,-0.348 -0.062,-0.159 -0.11,-0.317 -0.147,-0.476 -0.037,-0.159 -0.049,-0.311 -0.037,-0.457 0.012,-0.148 0.079,-0.257 0.202,-0.33 0.122,-0.098 0.275,-0.154 0.458,-0.165 0.183,-0.013 0.372,-0.019 0.568,-0.019 0.366,0 0.714,0.006 1.044,0.019 0.329,0.011 0.592,0.091 0.787,0.238 0.098,0.073 0.189,0.188 0.275,0.348 0.085,0.159 0.164,0.336 0.238,0.531 0.073,0.195 0.14,0.385 0.202,0.568 0.06,0.183 0.115,0.348 0.164,0.494 0.244,0.562 0.47,1.148 0.677,1.758 0.208,0.611 0.434,1.196 0.678,1.759 0.122,0.316 0.226,0.628 0.312,0.934 0.085,0.305 0.225,0.58 0.421,0.824 0.097,0.146 0.25,0.244 0.458,0.293 0.207,0.049 0.433,0.086 0.677,0.11 0.245,0.024 0.501,0.03 0.77,0.018 0.268,-0.012 0.513,-0.018 0.732,-0.018 h 6.923 c 0.171,0 0.336,0.006 0.495,0.018 0.159,0.012 0.299,-0.006 0.421,-0.055 0.244,-0.073 0.44,-0.171 0.586,-0.293 0.147,-0.122 0.262,-0.269 0.348,-0.439 0.086,-0.171 0.159,-0.355 0.22,-0.55 0.061,-0.196 0.128,-0.403 0.202,-0.622 0.268,-0.659 0.512,-1.331 0.732,-2.015 0.22,-0.685 0.463,-1.344 0.733,-1.978 0.122,-0.293 0.238,-0.623 0.348,-0.989 0.11,-0.366 0.286,-0.623 0.53,-0.769 0.22,-0.122 0.519,-0.184 0.898,-0.184 h 1.081 0.513 c 0.17,0 0.317,0.025 0.439,0.073 0.171,0.074 0.275,0.19 0.312,0.349 0.036,0.158 0.036,0.329 0,0.513 -0.037,0.182 -0.092,0.359 -0.165,0.531 -0.074,0.17 -0.135,0.316 -0.184,0.439"
       style="fill:#465d43;fill-opacity:1;fill-rule:nonzero;stroke:none"
       transform="matrix(1.3333333,0,0,-1.3333333,4751.9757,113.26893)"
       clip-path="url(#clipPath674)" />
    <path
       id="path675"
       d="M 0,0 C -0.098,0.171 -0.306,0.305 -0.623,0.403 -0.769,0.451 -0.934,0.47 -1.117,0.458 -1.3,0.445 -1.478,0.439 -1.648,0.439 h -2.052 -6.593 -1.868 c -0.196,0 -0.391,0.006 -0.586,0.019 -0.196,0.012 -0.354,0.042 -0.476,0.092 -0.196,0.121 -0.33,0.267 -0.403,0.439 -0.074,0.196 -0.11,0.451 -0.11,0.769 v 0.88 3.369 11.759 3.845 0.99 c 0,0.316 -0.073,0.573 -0.22,0.768 -0.073,0.098 -0.196,0.171 -0.366,0.22 -0.172,0.049 -0.361,0.079 -0.568,0.092 -0.208,0.012 -0.421,0.012 -0.641,0 -0.219,-0.013 -0.416,-0.019 -0.586,-0.019 -0.05,-0.024 -0.104,-0.03 -0.165,-0.017 -0.061,0.011 -0.116,0.005 -0.165,-0.019 -0.268,-0.098 -0.452,-0.22 -0.549,-0.366 -0.073,-0.123 -0.116,-0.293 -0.129,-0.513 -0.012,-0.22 -0.018,-0.439 -0.018,-0.659 v -2.272 -7.948 -10 -2.638 -0.677 c 0,-0.233 0.049,-0.421 0.147,-0.568 0.121,-0.195 0.305,-0.311 0.549,-0.347 0.244,-0.037 0.537,-0.056 0.879,-0.056 h 2.381 9.268 2.417 0.678 c 0.232,0 0.408,0.049 0.531,0.147 0.17,0.097 0.28,0.232 0.33,0.403 0.024,0.097 0.048,0.238 0.073,0.421 0.024,0.183 0.03,0.366 0.018,0.55 -0.012,0.183 -0.031,0.36 -0.055,0.531 C 0.048,-0.195 0.024,-0.073 0,0"
       style="fill:#465d43;fill-opacity:1;fill-rule:nonzero;stroke:none"
       transform="matrix(1.3333333,0,0,-1.3333333,4787.9947,124.94093)"
       clip-path="url(#clipPath676)" />
    <path
       id="path677"
       d="m 0,0 c -0.049,0.244 -0.098,0.476 -0.146,0.696 -0.05,0.22 -0.123,0.44 -0.22,0.659 -0.269,0.61 -0.617,1.141 -1.044,1.593 -0.428,0.452 -0.91,0.849 -1.447,1.191 -0.415,0.268 -0.855,0.501 -1.319,0.696 -0.464,0.195 -0.94,0.378 -1.428,0.55 -0.22,0.073 -0.44,0.139 -0.66,0.201 -0.219,0.06 -0.439,0.115 -0.659,0.165 -0.098,0.023 -0.183,0.042 -0.257,0.055 -0.073,0.011 -0.159,0.03 -0.256,0.054 -0.342,0.122 -0.702,0.214 -1.081,0.276 -0.379,0.06 -0.738,0.139 -1.08,0.237 -0.219,0.073 -0.44,0.122 -0.659,0.147 -0.22,0.024 -0.44,0.061 -0.66,0.11 -0.708,0.195 -1.392,0.378 -2.051,0.55 -0.659,0.17 -1.258,0.426 -1.795,0.768 -0.464,0.269 -0.824,0.55 -1.08,0.843 -0.257,0.293 -0.47,0.72 -0.641,1.282 -0.049,0.17 -0.079,0.378 -0.092,0.622 -0.012,0.244 0.006,0.464 0.055,0.66 0.049,0.244 0.091,0.47 0.128,0.677 0.037,0.208 0.104,0.409 0.202,0.605 0.195,0.488 0.488,0.897 0.878,1.227 0.391,0.329 0.831,0.592 1.32,0.787 0.854,0.391 1.916,0.586 3.186,0.586 h 0.586 c 0.196,0 0.391,-0.024 0.586,-0.073 h 0.293 c 0.147,-0.049 0.293,-0.079 0.44,-0.091 0.147,-0.012 0.293,-0.043 0.44,-0.092 0.781,-0.196 1.452,-0.489 2.014,-0.878 0.757,-0.49 1.343,-1.222 1.759,-2.199 0.122,-0.244 0.213,-0.525 0.274,-0.842 0.06,-0.318 0.165,-0.586 0.311,-0.806 0.049,-0.049 0.098,-0.091 0.147,-0.128 0.049,-0.037 0.098,-0.067 0.146,-0.092 0.098,-0.049 0.189,-0.073 0.275,-0.073 0.086,0 0.189,-0.013 0.311,-0.036 0.098,-0.025 0.196,-0.037 0.293,-0.037 h 0.33 c 0.293,0 0.574,0.012 0.843,0.037 0.268,0.023 0.463,0.122 0.586,0.293 0.073,0.122 0.115,0.299 0.128,0.531 0.012,0.231 -0.006,0.445 -0.055,0.641 -0.123,0.463 -0.244,0.909 -0.366,1.337 -0.123,0.426 -0.293,0.811 -0.513,1.154 -0.073,0.121 -0.141,0.25 -0.202,0.384 -0.061,0.134 -0.14,0.262 -0.237,0.384 -0.099,0.122 -0.196,0.245 -0.294,0.367 l -0.293,0.366 c -0.049,0.074 -0.109,0.14 -0.183,0.202 -0.073,0.06 -0.134,0.115 -0.183,0.165 -0.049,0.048 -0.098,0.091 -0.147,0.128 -0.048,0.036 -0.097,0.079 -0.146,0.128 -0.122,0.122 -0.251,0.22 -0.385,0.293 -0.134,0.073 -0.274,0.159 -0.421,0.257 -0.83,0.536 -1.783,0.939 -2.857,1.209 -1.075,0.267 -2.308,0.378 -3.699,0.329 -0.05,-0.049 -0.147,-0.062 -0.293,-0.036 -0.147,0.023 -0.257,0.023 -0.33,0 -0.196,-0.05 -0.41,-0.074 -0.641,-0.074 -0.232,0 -0.446,-0.025 -0.641,-0.073 -0.196,-0.05 -0.379,-0.092 -0.549,-0.129 -0.172,-0.036 -0.355,-0.079 -0.55,-0.128 -0.709,-0.195 -1.331,-0.427 -1.868,-0.696 -0.049,-0.049 -0.11,-0.079 -0.183,-0.091 -0.073,-0.013 -0.135,-0.043 -0.184,-0.092 -0.659,-0.416 -1.257,-0.874 -1.795,-1.374 -0.537,-0.501 -0.976,-1.117 -1.318,-1.849 -0.098,-0.22 -0.178,-0.452 -0.238,-0.697 -0.061,-0.244 -0.128,-0.5 -0.201,-0.768 -0.074,-0.245 -0.135,-0.593 -0.184,-1.044 -0.049,-0.452 -0.036,-0.824 0.037,-1.117 0,-0.073 0.006,-0.147 0.018,-0.22 0.012,-0.073 0.018,-0.159 0.018,-0.257 0.073,-0.268 0.135,-0.531 0.184,-0.787 0.049,-0.257 0.134,-0.495 0.256,-0.715 0.268,-0.635 0.634,-1.153 1.099,-1.556 0.463,-0.403 0.976,-0.776 1.538,-1.118 0.22,-0.146 0.452,-0.268 0.697,-0.366 0.243,-0.097 0.487,-0.195 0.732,-0.293 0.049,-0.024 0.085,-0.037 0.109,-0.037 0.025,0 0.062,-0.012 0.111,-0.036 0.342,-0.146 0.708,-0.263 1.098,-0.348 0.391,-0.086 0.782,-0.189 1.173,-0.311 0.683,-0.196 1.392,-0.366 2.124,-0.513 0.733,-0.146 1.447,-0.3 2.143,-0.458 0.696,-0.159 1.361,-0.349 1.996,-0.568 0.635,-0.22 1.209,-0.513 1.722,-0.879 0.341,-0.244 0.634,-0.507 0.879,-0.787 0.244,-0.282 0.44,-0.629 0.587,-1.044 0.048,-0.098 0.073,-0.19 0.073,-0.276 0,-0.085 0.023,-0.189 0.073,-0.31 0.048,-0.172 0.073,-0.392 0.073,-0.659 0,-0.27 -0.025,-0.501 -0.073,-0.697 -0.05,-0.196 -0.098,-0.39 -0.146,-0.586 -0.05,-0.196 -0.111,-0.391 -0.184,-0.585 -0.269,-0.612 -0.653,-1.094 -1.154,-1.448 -0.5,-0.354 -1.068,-0.666 -1.703,-0.933 -0.196,-0.075 -0.403,-0.129 -0.623,-0.165 -0.219,-0.037 -0.427,-0.08 -0.623,-0.129 -0.097,-0.049 -0.177,-0.068 -0.238,-0.055 -0.061,0.012 -0.128,0.006 -0.201,-0.019 -0.123,-0.024 -0.244,-0.036 -0.366,-0.036 -0.123,0 -0.244,-0.012 -0.367,-0.037 h -0.256 c -0.122,-0.049 -0.275,-0.073 -0.458,-0.073 -0.183,0 -0.324,0.013 -0.421,0.037 -0.122,0.049 -0.251,0.061 -0.385,0.036 -0.134,-0.024 -0.25,-0.024 -0.348,0 -0.073,0 -0.146,0.006 -0.219,0.019 -0.074,0.011 -0.135,0.018 -0.184,0.018 l -0.586,0.074 c -0.195,0.024 -0.391,0.06 -0.586,0.109 -0.562,0.171 -1.087,0.354 -1.575,0.55 -0.488,0.195 -0.94,0.451 -1.356,0.769 -0.83,0.611 -1.453,1.441 -1.867,2.491 -0.073,0.17 -0.129,0.341 -0.165,0.512 -0.037,0.171 -0.08,0.342 -0.129,0.514 -0.048,0.146 -0.079,0.286 -0.091,0.421 -0.012,0.134 -0.055,0.262 -0.128,0.385 -0.049,0.096 -0.159,0.195 -0.329,0.293 -0.099,0.048 -0.184,0.066 -0.257,0.054 -0.074,-0.012 -0.171,-0.006 -0.293,0.019 -0.074,0.023 -0.165,0.036 -0.275,0.036 h -0.311 c -0.269,0 -0.544,-0.013 -0.824,-0.036 -0.282,-0.025 -0.483,-0.123 -0.605,-0.293 -0.122,-0.123 -0.183,-0.324 -0.183,-0.605 0,-0.281 0.024,-0.531 0.073,-0.751 0.049,-0.122 0.079,-0.257 0.092,-0.403 0.012,-0.146 0.042,-0.293 0.091,-0.439 0.122,-0.391 0.25,-0.757 0.385,-1.099 0.134,-0.342 0.299,-0.672 0.494,-0.989 0.587,-0.977 1.288,-1.771 2.107,-2.381 0.818,-0.611 1.825,-1.112 3.022,-1.502 0.243,-0.097 0.482,-0.17 0.714,-0.22 0.231,-0.048 0.482,-0.097 0.751,-0.146 0.122,-0.024 0.231,-0.042 0.33,-0.055 0.097,-0.012 0.194,-0.03 0.293,-0.055 0.219,-0.049 0.451,-0.073 0.695,-0.073 0.244,0 0.489,-0.024 0.733,-0.073 h 0.403 c 0.122,-0.025 0.299,-0.037 0.531,-0.037 0.232,0 0.409,0.012 0.532,0.037 0.146,0 0.293,0.006 0.439,0.017 0.146,0.013 0.293,0.019 0.439,0.019 0.123,0.024 0.25,0.037 0.385,0.037 0.134,0 0.262,0.013 0.385,0.036 0.293,0.073 0.586,0.129 0.879,0.165 0.293,0.037 0.573,0.105 0.842,0.201 0.269,0.074 0.519,0.147 0.751,0.22 0.232,0.073 0.47,0.159 0.715,0.257 0.732,0.342 1.416,0.732 2.05,1.172 0.635,0.439 1.16,0.976 1.576,1.612 0.219,0.293 0.403,0.609 0.549,0.952 0.147,0.342 0.281,0.696 0.403,1.063 0.073,0.194 0.116,0.396 0.129,0.603 0.011,0.208 0.042,0.409 0.091,0.605 v 0.293 c 0,0.097 0.012,0.195 0.036,0.294 v 0.329 0.403 C 0.097,-0.732 0.073,-0.58 0.073,-0.421 0.073,-0.263 0.049,-0.123 0,0"
       style="fill:#465d43;fill-opacity:1;fill-rule:nonzero;stroke:none"
       transform="matrix(1.3333333,0,0,-1.3333333,4816.8585,116.78467)"
       clip-path="url(#clipPath678)" />
    <path
       id="path679"
       d="m 0,0 v 40.432 c 0,0.222 -0.18,0.402 -0.402,0.402 -0.223,0 -0.403,-0.18 -0.403,-0.402 V 0 c 0,-0.222 0.18,-0.402 0.403,-0.402 C -0.18,-0.402 0,-0.222 0,0"
       style="fill:#465d43;fill-opacity:1;fill-rule:nonzero;stroke:none"
       transform="matrix(1.3333333,0,0,-1.3333333,4518.8471,92.436267)"
       clip-path="url(#clipPath680)" />
    <path
       id="path681"
       d="m 0,0 h -38.708 c -0.222,0 -0.402,-0.18 -0.402,-0.402 0,-0.223 0.18,-0.403 0.402,-0.403 H 0 c 0.223,0 0.403,0.18 0.403,0.403 C 0.403,-0.18 0.223,0 0,0"
       style="fill:#465d43;fill-opacity:1;fill-rule:nonzero;stroke:none"
       transform="matrix(1.3333333,0,0,-1.3333333,4484.0841,125.0112)"
       clip-path="url(#clipPath682)" />
    <path
       id="path683"
       d="m 0,0 -24.929,6.786 c -0.212,0.059 -0.436,-0.068 -0.494,-0.283 -0.058,-0.214 0.068,-0.436 0.283,-0.494 l 24.928,-6.785 c 0.036,-0.01 0.072,-0.015 0.107,-0.015 0.177,0 0.339,0.118 0.387,0.297 C 0.341,-0.279 0.215,-0.058 0,0"
       style="fill:#465d43;fill-opacity:1;fill-rule:nonzero;stroke:none"
       transform="matrix(1.3333333,0,0,-1.3333333,4486.2821,116.7976)"
       clip-path="url(#clipPath684)" />
    <path
       id="path685"
       d="m 0,0 -26.746,15.353 c -0.194,0.11 -0.439,0.044 -0.55,-0.149 -0.11,-0.193 -0.044,-0.439 0.149,-0.55 L -0.401,-0.698 c 0.063,-0.037 0.132,-0.054 0.2,-0.054 0.14,0 0.275,0.073 0.35,0.202 C 0.26,-0.357 0.193,-0.111 0,0"
       style="fill:#465d43;fill-opacity:1;fill-rule:nonzero;stroke:none"
       transform="matrix(1.3333333,0,0,-1.3333333,4488.9992,108.25667)"
       clip-path="url(#clipPath686)" />
    <path
       id="path687"
       d="m 0,0 c -0.157,-0.158 -0.156,-0.413 0.002,-0.57 l 27.961,-27.827 c 0.078,-0.079 0.181,-0.118 0.283,-0.118 0.104,0 0.207,0.04 0.286,0.119 0.157,0.158 0.156,0.413 -0.002,0.569 L 0.569,0.001 C 0.412,0.158 0.157,0.157 0,0"
       style="fill:#465d43;fill-opacity:1;fill-rule:nonzero;stroke:none"
       transform="matrix(1.3333333,0,0,-1.3333333,4457.0075,64.162267)"
       clip-path="url(#clipPath688)" />
    <path
       id="path689"
       d="m 0,0 c -0.191,-0.113 -0.254,-0.36 -0.141,-0.551 l 16.683,-28.178 c 0.075,-0.127 0.209,-0.198 0.346,-0.198 0.07,0 0.141,0.018 0.205,0.056 0.191,0.114 0.254,0.36 0.141,0.552 L 0.552,-0.142 C 0.439,0.05 0.192,0.113 0,0"
       style="fill:#465d43;fill-opacity:1;fill-rule:nonzero;stroke:none"
       transform="matrix(1.3333333,0,0,-1.3333333,4478.9863,58.1128)"
       clip-path="url(#clipPath690)" />
    <path
       id="path691"
       d="M 0,0 C 0.034,0 0.069,0.004 0.104,0.013 0.318,0.07 0.447,0.291 0.39,0.505 l -7.115,26.897 c -0.057,0.216 -0.277,0.343 -0.492,0.287 -0.215,-0.057 -0.343,-0.277 -0.286,-0.492 L -0.389,0.299 C -0.341,0.119 -0.178,0 0,0"
       style="fill:#465d43;fill-opacity:1;fill-rule:nonzero;stroke:none"
       transform="matrix(1.3333333,0,0,-1.3333333,4509.5585,94.340667)"
       clip-path="url(#clipPath692)" />
    <path
       id="path693"
       d="m 0,0 h -38.708 c -0.222,0 -0.402,-0.18 -0.402,-0.402 0,-0.223 0.18,-0.403 0.402,-0.403 H 0 c 0.222,0 0.402,0.18 0.402,0.403 C 0.402,-0.18 0.222,0 0,0"
       style="fill:#465d43;fill-opacity:1;fill-rule:nonzero;stroke:none"
       transform="matrix(1.3333333,0,0,-1.3333333,4604.1467,125.0112)"
       clip-path="url(#clipPath694)" />
    <path
       id="path695"
       d="m 0,0 c -0.058,0.214 -0.281,0.341 -0.494,0.283 l -24.929,-6.786 c -0.214,-0.059 -0.341,-0.28 -0.282,-0.495 0.049,-0.178 0.211,-0.296 0.388,-0.296 0.035,0 0.07,0.004 0.106,0.014 l 24.928,6.786 C -0.068,-0.436 0.059,-0.214 0,0"
       style="fill:#465d43;fill-opacity:1;fill-rule:nonzero;stroke:none"
       transform="matrix(1.3333333,0,0,-1.3333333,4584.2356,108.1264)"
       clip-path="url(#clipPath696)" />
    <path
       id="path697"
       d="m 0,0 c -0.11,0.193 -0.357,0.259 -0.55,0.148 l -26.746,-15.352 c -0.192,-0.111 -0.259,-0.357 -0.148,-0.55 0.074,-0.129 0.21,-0.202 0.349,-0.202 0.068,0 0.137,0.017 0.2,0.054 L -0.149,-0.55 C 0.044,-0.439 0.111,-0.193 0,0"
       style="fill:#465d43;fill-opacity:1;fill-rule:nonzero;stroke:none"
       transform="matrix(1.3333333,0,0,-1.3333333,4584.0155,87.984533)"
       clip-path="url(#clipPath698)" />
    <path
       id="path699"
       d="m 0,0 c 0.079,-0.079 0.182,-0.119 0.285,-0.119 0.103,0 0.206,0.039 0.284,0.118 L 28.53,27.826 c 0.157,0.157 0.158,0.412 10e-4,0.57 -0.157,0.157 -0.412,0.158 -0.569,10e-4 L 0.002,0.569 C -0.156,0.413 -0.157,0.158 0,0"
       style="fill:#465d43;fill-opacity:1;fill-rule:nonzero;stroke:none"
       transform="matrix(1.3333333,0,0,-1.3333333,4541.5712,102.0236)"
       clip-path="url(#clipPath700)" />
    <path
       id="path701"
       d="m 0,0 c -0.191,0.113 -0.438,0.05 -0.552,-0.142 l -16.682,-28.177 c -0.113,-0.192 -0.05,-0.438 0.141,-0.552 0.064,-0.038 0.135,-0.056 0.205,-0.056 0.137,0 0.272,0.071 0.346,0.198 L 0.141,-0.551 C 0.254,-0.36 0.191,-0.113 0,0"
       style="fill:#465d43;fill-opacity:1;fill-rule:nonzero;stroke:none"
       transform="matrix(1.3333333,0,0,-1.3333333,4557.6343,58.1128)"
       clip-path="url(#clipPath702)" />
    <path
       id="path703"
       d="m 0,0 c -0.214,0.055 -0.436,-0.071 -0.492,-0.287 l -7.115,-26.897 c -0.057,-0.214 0.071,-0.435 0.286,-0.492 0.035,-0.009 0.069,-0.013 0.103,-0.013 0.179,0 0.342,0.119 0.389,0.299 L 0.286,-0.492 C 0.343,-0.277 0.215,-0.057 0,0"
       style="fill:#465d43;fill-opacity:1;fill-rule:nonzero;stroke:none"
       transform="matrix(1.3333333,0,0,-1.3333333,4536.6855,57.422)"
       clip-path="url(#clipPath704)" />
    <path
       id="path705"
       d="m 0,0 c -2.437,3.559 -5.158,5.479 -6.783,6.625 -0.268,0.189 -0.505,0.356 -0.704,0.506 -4.348,3.277 -4.232,9.205 -4.098,16.07 0.133,6.841 0.271,13.914 -4.153,19.377 -4.022,4.967 -9.031,5.163 -14.831,5.389 -6.191,0.242 -13.21,0.516 -21.732,6.444 -2.529,1.759 -4.468,3.522 -6.178,5.076 -3.416,3.105 -6.115,5.559 -10.799,5.559 h -0.034 c -4.497,-0.011 -6.986,-2.287 -10.138,-5.168 -1.877,-1.716 -4.005,-3.661 -7.065,-5.632 -7.851,-5.056 -14.203,-5.38 -19.807,-5.665 -5.513,-0.281 -10.275,-0.523 -14.271,-5.317 -3,-3.599 -3.471,-8.684 -3.969,-14.068 -0.658,-7.114 -1.339,-14.47 -8.079,-18.629 -10.392,-6.413 -9.755,-12.639 -9.289,-17.185 0.083,-0.808 0.161,-1.571 0.161,-2.244 0,-0.837 0.679,-1.516 1.516,-1.516 0.837,0 1.516,0.679 1.516,1.516 0,0.827 -0.086,1.665 -0.176,2.552 -0.426,4.164 -0.909,8.882 7.865,14.296 8.027,4.953 8.813,13.442 9.506,20.931 0.453,4.9 0.882,9.529 3.279,12.405 3.146,3.774 6.9,3.965 12.096,4.23 5.686,0.29 12.763,0.65 21.294,6.144 3.276,2.11 5.601,4.236 7.47,5.944 2.977,2.722 4.775,4.365 8.099,4.373 h 0.024 c 3.513,0 5.603,-1.899 8.761,-4.77 1.779,-1.617 3.795,-3.45 6.486,-5.322 9.25,-6.434 17.066,-6.739 23.346,-6.984 5.477,-0.214 9.435,-0.369 12.592,-4.267 3.727,-4.603 3.6,-11.113 3.477,-17.409 -0.137,-7.052 -0.279,-14.343 5.305,-18.552 0.221,-0.167 0.484,-0.353 0.782,-0.562 1.553,-1.096 3.9,-2.751 6.028,-5.86 0.604,-0.883 1.141,-1.515 1.614,-2.073 1.241,-1.464 1.808,-2.131 1.808,-5.899 0,-0.837 0.679,-1.516 1.516,-1.516 0.837,0 1.517,0.679 1.517,1.516 0,4.654 -0.914,5.957 -2.528,7.86 C 0.977,-1.298 0.515,-0.753 0,0"
       style="fill:#465d43;fill-opacity:1;fill-rule:nonzero;stroke:none"
       transform="matrix(1.3333333,0,0,-1.3333333,4610.438,113.96693)"
       clip-path="url(#clipPath706)" />
    <path
       id="path707"
       d="m 0,0 c -10.406,0 -18.872,-8.466 -18.872,-18.872 0,-0.889 0.721,-1.61 1.611,-1.61 0.889,0 1.61,0.721 1.61,1.61 0,8.63 7.021,15.651 15.651,15.651 8.63,0 15.651,-7.021 15.651,-15.651 0,-0.889 0.721,-1.61 1.61,-1.61 0.889,0 1.61,0.721 1.61,1.61 C 18.871,-8.466 10.406,0 0,0"
       style="fill:#465d43;fill-opacity:1;fill-rule:nonzero;stroke:none"
       transform="matrix(1.3333333,0,0,-1.3333333,4518.3079,100.56387)"
       clip-path="url(#clipPath708)" />
    <path
       id="path709"
       d="m 0,0 c -0.012,-0.06 -0.036,-0.114 -0.072,-0.162 -0.028,-0.04 -0.066,-0.071 -0.114,-0.093 -0.048,-0.022 -0.102,-0.039 -0.162,-0.051 -0.06,-0.012 -0.125,-0.019 -0.195,-0.021 -0.07,-0.002 -0.139,-0.003 -0.207,-0.003 -0.064,0 -0.127,0.001 -0.189,0.003 -0.062,0.002 -0.107,0.023 -0.135,0.063 -0.028,0.036 -0.041,0.097 -0.039,0.183 0.002,0.086 0.003,0.161 0.003,0.226 0,0.023 -10e-4,0.049 -0.003,0.077 -0.002,0.028 10e-4,0.052 0.009,0.072 V 0.36 c 0.004,0.016 0.007,0.032 0.009,0.048 0.002,0.016 0.007,0.03 0.015,0.042 0.016,0.028 0.044,0.048 0.084,0.06 0.008,0 0.017,0.001 0.027,0.003 0.01,0.002 0.019,0.003 0.027,0.003 h 0.291 c 0.098,0 0.188,-0.006 0.27,-0.018 C -0.299,0.486 -0.227,0.464 -0.165,0.432 -0.103,0.4 -0.056,0.35 -0.024,0.282 -0.008,0.25 0.004,0.207 0.012,0.153 0.02,0.099 0.016,0.048 0,0 M 0.264,0.582 C 0.236,0.618 0.196,0.65 0.144,0.678 0.036,0.758 -0.088,0.804 -0.228,0.816 -0.368,0.828 -0.532,0.834 -0.72,0.834 H -1.356 C -1.364,0.834 -1.372,0.833 -1.38,0.831 -1.388,0.829 -1.396,0.828 -1.404,0.828 -1.44,0.816 -1.466,0.796 -1.482,0.768 -1.498,0.748 -1.506,0.72 -1.506,0.684 V 0.582 -1.434 c 0,-0.028 -10e-4,-0.057 -0.003,-0.087 -0.002,-0.03 -0.001,-0.055 0.003,-0.075 v -0.036 c 0.008,-0.02 0.014,-0.04 0.018,-0.06 0.004,-0.02 0.014,-0.036 0.03,-0.048 0.02,-0.016 0.047,-0.026 0.081,-0.03 0.034,-0.004 0.068,-0.005 0.102,-0.002 0.034,0.001 0.065,0.009 0.093,0.023 0.028,0.014 0.046,0.031 0.054,0.051 0.016,0.032 0.023,0.069 0.021,0.111 -0.002,0.042 -0.003,0.085 -0.003,0.129 v 0.486 c 0,0.052 0.001,0.102 0.003,0.15 0.002,0.048 0.013,0.088 0.033,0.12 0.016,0.02 0.036,0.032 0.06,0.036 0.024,0.004 0.052,0.01 0.084,0.019 h 0.054 c 0.036,0 0.071,-0.002 0.105,-0.004 0.034,-0.002 0.063,-0.011 0.087,-0.027 0.048,-0.032 0.086,-0.073 0.114,-0.123 0.028,-0.05 0.058,-0.099 0.09,-0.147 l 0.378,-0.594 c 0.024,-0.032 0.047,-0.068 0.069,-0.108 0.022,-0.04 0.051,-0.07 0.087,-0.09 0.016,-0.012 0.033,-0.018 0.051,-0.018 0.018,0 0.037,-0.004 0.057,-0.012 0.04,-0.008 0.076,-0.008 0.108,0 0.02,0.004 0.036,0.006 0.048,0.006 0.012,0 0.026,0.004 0.042,0.012 0.028,0.028 0.034,0.064 0.018,0.108 -0.012,0.032 -0.027,0.062 -0.045,0.09 -0.018,0.028 -0.037,0.056 -0.057,0.084 l -0.36,0.558 c -0.016,0.028 -0.032,0.053 -0.048,0.075 -0.016,0.022 -0.032,0.049 -0.048,0.081 -0.004,0.008 -0.008,0.018 -0.012,0.03 -0.004,0.012 -0.006,0.024 -0.006,0.036 0.004,0.028 0.018,0.051 0.042,0.069 0.024,0.018 0.05,0.033 0.078,0.045 0.028,0.013 0.057,0.023 0.087,0.033 0.03,0.01 0.057,0.022 0.081,0.033 0.068,0.044 0.127,0.094 0.177,0.15 0.05,0.056 0.089,0.128 0.117,0.216 0.008,0.028 0.017,0.071 0.027,0.129 0.01,0.058 0.011,0.105 0.003,0.141 V 0.18 L 0.396,0.288 C 0.368,0.4 0.324,0.498 0.264,0.582"
       style="fill:#465d43;fill-opacity:1;fill-rule:nonzero;stroke:none"
       transform="matrix(1.3333333,0,0,-1.3333333,4835.6067,56.3588)"
       clip-path="url(#clipPath710)" />
    <path
       id="path711"
       d="m 0,0 c -0.002,-0.046 -0.007,-0.089 -0.015,-0.129 0,-0.016 -0.001,-0.031 -0.003,-0.045 -0.002,-0.013 -0.003,-0.027 -0.003,-0.039 -0.02,-0.08 -0.038,-0.158 -0.054,-0.234 -0.016,-0.075 -0.04,-0.148 -0.072,-0.216 -0.088,-0.204 -0.197,-0.379 -0.327,-0.524 -0.13,-0.147 -0.285,-0.276 -0.465,-0.388 -0.044,-0.028 -0.092,-0.052 -0.144,-0.071 -0.052,-0.021 -0.102,-0.041 -0.15,-0.061 -0.056,-0.023 -0.113,-0.04 -0.171,-0.048 -0.058,-0.008 -0.119,-0.02 -0.183,-0.036 l -0.144,-0.018 h -0.078 c -0.02,-0.003 -0.051,-0.004 -0.093,-0.003 -0.042,0.002 -0.073,0.005 -0.093,0.009 h -0.036 c -0.028,0.008 -0.055,0.013 -0.081,0.015 -0.026,0.002 -0.055,0.005 -0.087,0.009 -0.032,0.008 -0.065,0.016 -0.099,0.024 -0.034,0.008 -0.067,0.016 -0.099,0.025 -0.036,0.011 -0.072,0.024 -0.108,0.039 -0.036,0.013 -0.07,0.028 -0.102,0.045 -0.216,0.091 -0.402,0.217 -0.558,0.377 -0.156,0.16 -0.28,0.348 -0.372,0.564 -0.02,0.04 -0.036,0.081 -0.048,0.123 -0.012,0.042 -0.026,0.085 -0.042,0.129 -0.004,0.013 -0.007,0.025 -0.009,0.039 -0.002,0.015 -0.005,0.027 -0.009,0.039 -0.012,0.044 -0.02,0.089 -0.024,0.135 -0.004,0.046 -0.012,0.092 -0.024,0.136 v 0.059 c 0,0.021 -0.002,0.04 -0.006,0.061 -0.004,0.019 -0.006,0.054 -0.006,0.104 0,0.05 0.002,0.085 0.006,0.106 v 0.047 c 0.004,0.028 0.007,0.054 0.009,0.079 0.002,0.023 0.005,0.049 0.009,0.077 0.02,0.068 0.035,0.135 0.045,0.201 0.01,0.066 0.027,0.129 0.051,0.189 0.108,0.26 0.245,0.478 0.411,0.655 0.166,0.175 0.377,0.317 0.633,0.425 0.06,0.024 0.121,0.042 0.183,0.054 0.062,0.012 0.127,0.028 0.195,0.048 l 0.162,0.019 c 0.008,0.003 0.017,0.004 0.027,0.002 0.01,-10e-4 0.019,-10e-4 0.027,0.003 0.04,0 0.083,10e-4 0.129,0.003 0.046,0.002 0.087,-10e-4 0.123,-0.008 0.008,0 0.018,-10e-4 0.03,-0.003 0.012,-0.003 0.022,-0.004 0.03,-0.004 0.024,-0.004 0.049,-0.007 0.075,-0.009 0.026,-0.002 0.051,-0.007 0.075,-0.015 0.056,-0.011 0.109,-0.024 0.159,-0.036 0.05,-0.012 0.099,-0.028 0.147,-0.048 0.244,-0.1 0.454,-0.24 0.63,-0.42 0.024,-0.02 0.048,-0.043 0.072,-0.069 0.024,-0.026 0.046,-0.053 0.066,-0.081 0.036,-0.044 0.07,-0.091 0.102,-0.141 0.032,-0.049 0.064,-0.101 0.096,-0.153 0.02,-0.032 0.035,-0.064 0.045,-0.099 0.01,-0.034 0.023,-0.069 0.039,-0.105 C -0.089,0.741 -0.057,0.635 -0.033,0.52 -0.009,0.403 0.003,0.277 0.003,0.142 0.003,0.093 0.002,0.046 0,0 M 0.399,0.184 V 0.255 C 0.395,0.283 0.392,0.31 0.39,0.333 0.388,0.357 0.385,0.383 0.381,0.411 0.377,0.443 0.373,0.475 0.369,0.504 0.365,0.534 0.359,0.565 0.351,0.597 0.331,0.661 0.314,0.724 0.3,0.783 0.286,0.843 0.267,0.901 0.243,0.957 0.211,1.037 0.175,1.113 0.135,1.186 0.095,1.257 0.051,1.327 0.003,1.396 c -0.02,0.027 -0.04,0.052 -0.06,0.074 -0.02,0.022 -0.04,0.048 -0.06,0.075 -0.048,0.068 -0.102,0.126 -0.162,0.174 L -0.3,1.74 C -0.306,1.746 -0.313,1.753 -0.321,1.761 -0.341,1.777 -0.36,1.793 -0.378,1.81 -0.396,1.825 -0.415,1.841 -0.435,1.857 -0.471,1.885 -0.508,1.912 -0.546,1.938 -0.584,1.964 -0.623,1.991 -0.663,2.02 -0.679,2.027 -0.695,2.035 -0.711,2.043 -0.727,2.051 -0.743,2.06 -0.759,2.067 c -0.036,0.024 -0.074,0.044 -0.114,0.06 -0.04,0.017 -0.082,0.034 -0.126,0.055 -0.128,0.055 -0.267,0.097 -0.417,0.126 -0.15,0.027 -0.317,0.039 -0.501,0.035 -0.008,-0.004 -0.018,-0.004 -0.03,0 -0.012,0.004 -0.022,0.004 -0.03,0 C -2.009,2.339 -2.043,2.336 -2.079,2.334 -2.115,2.332 -2.149,2.329 -2.181,2.325 -2.205,2.317 -2.231,2.313 -2.259,2.311 -2.287,2.308 -2.313,2.303 -2.337,2.295 -2.389,2.279 -2.441,2.266 -2.493,2.253 -2.545,2.241 -2.595,2.226 -2.643,2.205 -2.955,2.077 -3.219,1.909 -3.435,1.701 -3.651,1.493 -3.823,1.233 -3.951,0.921 -3.983,0.854 -4.007,0.781 -4.023,0.705 -4.039,0.629 -4.057,0.551 -4.077,0.471 -4.081,0.439 -4.084,0.409 -4.086,0.381 -4.088,0.354 -4.091,0.325 -4.095,0.297 V 0.255 C -4.103,0.231 -4.107,0.196 -4.107,0.15 c 0,-0.046 0.004,-0.081 0.012,-0.105 v -0.054 c 0,-0.02 10e-4,-0.04 0.003,-0.059 0.002,-0.021 0.003,-0.04 0.003,-0.061 0.008,-0.019 0.011,-0.041 0.009,-0.062 -0.002,-0.023 0.001,-0.044 0.009,-0.064 0.008,-0.032 0.015,-0.065 0.021,-0.099 0.006,-0.034 0.013,-0.067 0.021,-0.099 0.02,-0.056 0.036,-0.108 0.048,-0.155 0.012,-0.049 0.028,-0.099 0.048,-0.151 0.116,-0.263 0.268,-0.494 0.456,-0.69 0.188,-0.196 0.414,-0.352 0.678,-0.468 0.028,-0.012 0.057,-0.023 0.087,-0.036 0.03,-0.012 0.059,-0.024 0.087,-0.036 0.044,-0.02 0.087,-0.034 0.129,-0.045 0.042,-0.01 0.085,-0.021 0.129,-0.032 0.032,-0.009 0.066,-0.015 0.102,-0.019 0.036,-0.004 0.07,-0.01 0.102,-0.018 0.012,0 0.024,-10e-4 0.036,-0.002 0.012,-0.002 0.026,-0.003 0.042,-0.003 0.016,-0.004 0.033,-0.007 0.051,-0.007 0.018,0 0.035,-0.002 0.051,-0.006 h 0.066 c 0.012,-0.004 0.036,-0.007 0.072,-0.009 0.036,-0.002 0.06,-10e-4 0.072,0.003 l 0.198,0.019 c 0.02,0.004 0.04,0.005 0.06,0.005 0.02,0 0.04,0.004 0.06,0.012 0.052,0.012 0.103,0.023 0.153,0.03 0.05,0.008 0.099,0.022 0.147,0.042 0.32,0.104 0.596,0.26 0.828,0.468 0.232,0.208 0.412,0.458 0.54,0.75 0.032,0.069 0.058,0.138 0.078,0.21 0.02,0.072 0.04,0.146 0.06,0.222 l 0.036,0.216 c 0.004,0.02 0.006,0.042 0.006,0.066 0,0.025 0.002,0.046 0.006,0.066 v 0.072 c 0.004,0.02 0.006,0.043 0.006,0.069 0,0.026 -0.002,0.047 -0.006,0.064"
       style="fill:#465d43;fill-opacity:1;fill-rule:nonzero;stroke:none"
       transform="matrix(1.3333333,0,0,-1.3333333,4837.2187,57.130933)"
       clip-path="url(#clipPath712)" />
  </g>
  <g
     id="layer-MC1"
     inkscape:groupmode="layer"
     inkscape:label="Logo"
     transform="translate(-4393.6039)" />
</svg>
