<?xml version="1.0" encoding="UTF-8" standalone="no"?>
<!-- Created with Inkscape (http://www.inkscape.org/) -->

<svg
   version="1.1"
   id="svg1"
   width="314.12668"
   height="223.23334"
   viewBox="0 0 314.12669 223.23333"
   sodipodi:docname="Healthy_Rituals_Logo_Suite (2).ai"
   xmlns:inkscape="http://www.inkscape.org/namespaces/inkscape"
   xmlns:sodipodi="http://sodipodi.sourceforge.net/DTD/sodipodi-0.dtd"
   xmlns="http://www.w3.org/2000/svg"
   xmlns:svg="http://www.w3.org/2000/svg">
  <defs
     id="defs1">
    <clipPath
       clipPathUnits="userSpaceOnUse"
       id="clipPath1024">
      <path
         d="M 0,167.425 H 235.595 V 0 H 0 Z"
         transform="translate(-40.247101,-40.644499)"
         id="path1024" />
    </clipPath>
    <clipPath
       clipPathUnits="userSpaceOnUse"
       id="clipPath1026">
      <path
         d="M 0,167.425 H 235.595 V 0 H 0 Z"
         transform="translate(-53.477026,-27.204101)"
         id="path1026" />
    </clipPath>
    <clipPath
       clipPathUnits="userSpaceOnUse"
       id="clipPath1028">
      <path
         d="M 0,167.425 H 235.595 V 0 H 0 Z"
         transform="translate(-62.937002,-32.223603)"
         id="path1028" />
    </clipPath>
    <clipPath
       clipPathUnits="userSpaceOnUse"
       id="clipPath1030">
      <path
         d="M 0,167.425 H 235.595 V 0 H 0 Z"
         transform="translate(-78.424277,-27.204101)"
         id="path1030" />
    </clipPath>
    <clipPath
       clipPathUnits="userSpaceOnUse"
       id="clipPath1032">
      <path
         d="M 0,167.425 H 235.595 V 0 H 0 Z"
         transform="translate(-89.890127,-40.707004)"
         id="path1032" />
    </clipPath>
    <clipPath
       clipPathUnits="userSpaceOnUse"
       id="clipPath1034">
      <path
         d="M 0,167.425 H 235.595 V 0 H 0 Z"
         transform="translate(-102.95213,-40.644499)"
         id="path1034" />
    </clipPath>
    <clipPath
       clipPathUnits="userSpaceOnUse"
       id="clipPath1036">
      <path
         d="M 0,167.425 H 235.595 V 0 H 0 Z"
         transform="translate(-117.1479,-40.759804)"
         id="path1036" />
    </clipPath>
    <clipPath
       clipPathUnits="userSpaceOnUse"
       id="clipPath1038">
      <path
         d="M 0,167.425 H 235.595 V 0 H 0 Z"
         transform="translate(-133.72748,-35.541003)"
         id="path1038" />
    </clipPath>
    <clipPath
       clipPathUnits="userSpaceOnUse"
       id="clipPath1040">
      <path
         d="M 0,167.425 H 235.595 V 0 H 0 Z"
         transform="translate(-140.0796,-40.560499)"
         id="path1040" />
    </clipPath>
    <clipPath
       clipPathUnits="userSpaceOnUse"
       id="clipPath1042">
      <path
         d="M 0,167.425 H 235.595 V 0 H 0 Z"
         transform="translate(-153.22508,-40.707004)"
         id="path1042" />
    </clipPath>
    <clipPath
       clipPathUnits="userSpaceOnUse"
       id="clipPath1044">
      <path
         d="M 0,167.425 H 235.595 V 0 H 0 Z"
         transform="translate(-166.07708,-40.749004)"
         id="path1044" />
    </clipPath>
    <clipPath
       clipPathUnits="userSpaceOnUse"
       id="clipPath1046">
      <path
         d="M 0,167.425 H 235.595 V 0 H 0 Z"
         transform="translate(-176.67143,-32.223603)"
         id="path1046" />
    </clipPath>
    <clipPath
       clipPathUnits="userSpaceOnUse"
       id="clipPath1048">
      <path
         d="M 0,167.425 H 235.595 V 0 H 0 Z"
         transform="translate(-192.1587,-27.204101)"
         id="path1048" />
    </clipPath>
    <clipPath
       clipPathUnits="userSpaceOnUse"
       id="clipPath1050">
      <path
         d="M 0,167.425 H 235.595 V 0 H 0 Z"
         transform="translate(-204.56978,-30.711401)"
         id="path1050" />
    </clipPath>
    <clipPath
       clipPathUnits="userSpaceOnUse"
       id="clipPath1052">
      <path
         d="M 0,167.425 H 235.595 V 0 H 0 Z"
         transform="translate(-116.67143,-81.249005)"
         id="path1052" />
    </clipPath>
    <clipPath
       clipPathUnits="userSpaceOnUse"
       id="clipPath1054">
      <path
         d="M 0,167.425 H 235.595 V 0 H 0 Z"
         transform="translate(-35.709526,-50.403304)"
         id="path1054" />
    </clipPath>
    <clipPath
       clipPathUnits="userSpaceOnUse"
       id="clipPath1056">
      <path
         d="M 0,167.425 H 235.595 V 0 H 0 Z"
         transform="translate(-54.757801,-66.631804)"
         id="path1056" />
    </clipPath>
    <clipPath
       clipPathUnits="userSpaceOnUse"
       id="clipPath1058">
      <path
         d="M 0,167.425 H 235.595 V 0 H 0 Z"
         transform="translate(-54.962926,-85.3955)"
         id="path1058" />
    </clipPath>
    <clipPath
       clipPathUnits="userSpaceOnUse"
       id="clipPath1060">
      <path
         d="M 0,167.425 H 235.595 V 0 H 0 Z"
         transform="translate(-59.063926,-107.5874)"
         id="path1060" />
    </clipPath>
    <clipPath
       clipPathUnits="userSpaceOnUse"
       id="clipPath1062">
      <path
         d="M 0,167.425 H 235.595 V 0 H 0 Z"
         transform="translate(-79.538627,-113.2231)"
         id="path1062" />
    </clipPath>
    <clipPath
       clipPathUnits="userSpaceOnUse"
       id="clipPath1064">
      <path
         d="M 0,167.425 H 235.595 V 0 H 0 Z"
         transform="translate(-108.01853,-79.474602)"
         id="path1064" />
    </clipPath>
    <clipPath
       clipPathUnits="userSpaceOnUse"
       id="clipPath1066">
      <path
         d="M 0,167.425 H 235.595 V 0 H 0 Z"
         transform="translate(-147.55523,-50.403304)"
         id="path1066" />
    </clipPath>
    <clipPath
       clipPathUnits="userSpaceOnUse"
       id="clipPath1068">
      <path
         d="M 0,167.425 H 235.595 V 0 H 0 Z"
         transform="translate(-176.9712,-66.983404)"
         id="path1068" />
    </clipPath>
    <clipPath
       clipPathUnits="userSpaceOnUse"
       id="clipPath1070">
      <path
         d="M 0,167.425 H 235.595 V 0 H 0 Z"
         transform="translate(-176.6973,-85.580105)"
         id="path1070" />
    </clipPath>
    <clipPath
       clipPathUnits="userSpaceOnUse"
       id="clipPath1072">
      <path
         d="M 0,167.425 H 235.595 V 0 H 0 Z"
         transform="translate(-172.57178,-107.5889)"
         id="path1072" />
    </clipPath>
    <clipPath
       clipPathUnits="userSpaceOnUse"
       id="clipPath1074">
      <path
         d="M 0,167.425 H 235.595 V 0 H 0 Z"
         transform="translate(-152.80418,-113.2231)"
         id="path1074" />
    </clipPath>
    <clipPath
       clipPathUnits="userSpaceOnUse"
       id="clipPath1076">
      <path
         d="M 0,167.425 H 235.595 V 0 H 0 Z"
         transform="translate(-133.28903,-113.8662)"
         id="path1076" />
    </clipPath>
    <clipPath
       clipPathUnits="userSpaceOnUse"
       id="clipPath1078">
      <path
         d="M 0,167.425 H 235.595 V 0 H 0 Z"
         transform="translate(-201.99413,-61.191402)"
         id="path1078" />
    </clipPath>
    <clipPath
       clipPathUnits="userSpaceOnUse"
       id="clipPath1080">
      <path
         d="M 0,167.425 H 235.595 V 0 H 0 Z"
         transform="translate(-139.6089,-50.236301)"
         id="path1080" />
    </clipPath>
    <clipPath
       clipPathUnits="userSpaceOnUse"
       id="clipPath1082">
      <path
         d="M 0,167.425 H 235.595 V 0 H 0 Z"
         transform="translate(-209.86463,-39.220901)"
         id="path1082" />
    </clipPath>
    <clipPath
       clipPathUnits="userSpaceOnUse"
       id="clipPath1084">
      <path
         d="M 0,167.425 H 235.595 V 0 H 0 Z"
         transform="translate(-208.99891,-39.635598)"
         id="path1084" />
    </clipPath>
  </defs>
  <sodipodi:namedview
     id="namedview1"
     pagecolor="#ffffff"
     bordercolor="#000000"
     borderopacity="0.25"
     inkscape:showpageshadow="2"
     inkscape:pageopacity="0.0"
     inkscape:pagecheckerboard="0"
     inkscape:deskcolor="#d1d1d1">
    <inkscape:page
       x="0"
       y="0"
       inkscape:label="22"
       id="page1022"
       width="314.12668"
       height="223.23334"
       margin="33.920532 33.919998 33.921333 33.920532"
       bleed="0" />
  </sodipodi:namedview>
  <g
     id="layer-MC0"
     inkscape:groupmode="layer"
     inkscape:label="BG"
     transform="translate(-7233.9559)">
    <path
       id="path1023"
       d="m 0,0 c -0.098,0.07 -0.221,0.108 -0.368,0.115 -0.147,0.007 -0.297,0.011 -0.451,0.011 -0.07,0 -0.14,0.003 -0.21,0.01 -0.07,0.008 -0.133,0.004 -0.189,-0.01 H -1.323 C -1.393,0.098 -1.459,0.077 -1.522,0.062 -1.585,0.049 -1.631,0.014 -1.659,-0.042 -1.771,-0.168 -1.82,-0.364 -1.806,-0.63 c 0.014,-0.266 0.021,-0.512 0.021,-0.735 v -3.297 c 0,-0.224 0.003,-0.486 0.011,-0.788 0.006,-0.301 -0.039,-0.522 -0.137,-0.661 -0.056,-0.084 -0.154,-0.14 -0.294,-0.168 -0.14,-0.029 -0.297,-0.046 -0.472,-0.053 -0.176,-0.007 -0.354,-0.007 -0.536,0 -0.182,0.007 -0.343,0.011 -0.483,0.011 h -3.696 -1.176 -0.588 c -0.112,0.028 -0.207,0.055 -0.283,0.084 -0.078,0.028 -0.144,0.084 -0.2,0.168 -0.028,0.028 -0.046,0.07 -0.052,0.126 -0.008,0.055 -0.018,0.105 -0.032,0.147 v 0.168 c -0.014,0.056 -0.018,0.122 -0.01,0.199 0.006,0.077 0.01,0.151 0.01,0.221 v 0.819 3.108 c 0,0.223 0.003,0.458 0.011,0.703 0.006,0.245 -0.046,0.431 -0.158,0.557 -0.084,0.112 -0.262,0.165 -0.535,0.157 -0.273,-0.007 -0.508,-0.01 -0.704,-0.01 -0.028,-0.014 -0.056,-0.018 -0.084,-0.011 -0.028,0.007 -0.056,0.004 -0.084,-0.011 -0.154,-0.042 -0.259,-0.111 -0.315,-0.209 -0.07,-0.098 -0.102,-0.231 -0.095,-0.399 0.007,-0.168 0.011,-0.329 0.011,-0.483 v -1.974 -8.379 -2.415 c 0,-0.196 0.003,-0.389 0.01,-0.578 0.007,-0.188 0.067,-0.318 0.179,-0.388 0.07,-0.056 0.164,-0.088 0.283,-0.094 0.12,-0.008 0.249,-0.011 0.389,-0.011 0.224,0 0.434,0.007 0.63,0.021 0.196,0.013 0.329,0.098 0.399,0.252 0.028,0.07 0.045,0.154 0.053,0.252 0.006,0.098 0.01,0.202 0.01,0.315 v 0.903 3.318 c 0,0.112 -0.004,0.248 -0.01,0.41 -0.008,0.16 -0.008,0.318 0,0.472 0.006,0.154 0.021,0.294 0.042,0.42 0.021,0.126 0.052,0.224 0.094,0.294 0.056,0.069 0.122,0.115 0.2,0.136 0.076,0.021 0.171,0.046 0.283,0.074 h 5.46 0.924 0.315 c 0.098,0 0.182,-0.015 0.252,-0.042 0.126,-0.057 0.217,-0.119 0.273,-0.189 0.042,-0.071 0.07,-0.168 0.084,-0.294 0.014,-0.126 0.021,-0.259 0.021,-0.399 v -0.43 -0.368 -3.549 c 0,-0.239 -0.007,-0.504 -0.021,-0.798 -0.014,-0.294 0.035,-0.511 0.147,-0.651 0.07,-0.098 0.192,-0.147 0.367,-0.147 h 0.515 c 0.056,0 0.115,-0.004 0.178,-0.011 0.063,-0.007 0.123,-0.003 0.179,0.011 0.084,0.028 0.154,0.042 0.21,0.042 0.056,0 0.112,0.021 0.168,0.063 0.112,0.07 0.175,0.182 0.189,0.336 0.014,0.154 0.021,0.328 0.021,0.525 v 1.995 8.673 2.289 c 0,0.168 -0.003,0.342 -0.01,0.525 C 0.15,-0.196 0.098,-0.07 0,0"
       style="fill:#f08c65;fill-opacity:1;fill-rule:nonzero;stroke:none"
       transform="matrix(1.3333333,0,0,-1.3333333,7287.6188,169.04067)"
       clip-path="url(#clipPath1024)" />
    <path
       id="path1025"
       d="M 0,0 C -0.056,0.098 -0.168,0.175 -0.336,0.231 -0.42,0.259 -0.519,0.27 -0.63,0.263 -0.743,0.256 -0.854,0.252 -0.966,0.252 h -1.197 -3.885 -1.344 c -0.154,0 -0.294,0.004 -0.42,0.011 -0.126,0.007 -0.238,0.045 -0.336,0.115 -0.098,0.07 -0.154,0.185 -0.168,0.347 -0.015,0.161 -0.021,0.339 -0.021,0.535 v 1.995 1.176 c 0,0.112 -0.004,0.224 -0.011,0.337 -0.007,0.111 0.004,0.21 0.032,0.294 0.042,0.139 0.115,0.237 0.22,0.293 0.105,0.056 0.228,0.095 0.368,0.116 0.14,0.021 0.29,0.028 0.451,0.021 0.161,-0.008 0.326,-0.011 0.494,-0.011 h 4.431 0.777 c 0.07,0 0.139,-0.003 0.21,-0.01 0.07,-0.007 0.139,-0.004 0.21,0.01 h 0.126 c 0.042,0.014 0.087,0.025 0.136,0.032 0.049,0.007 0.087,0.024 0.116,0.052 0.098,0.056 0.161,0.147 0.189,0.273 0.027,0.084 0.045,0.185 0.052,0.305 0.007,0.119 0.004,0.234 -0.01,0.346 -0.015,0.112 -0.036,0.217 -0.063,0.315 -0.028,0.098 -0.063,0.161 -0.105,0.189 -0.071,0.042 -0.172,0.073 -0.305,0.095 -0.133,0.02 -0.28,0.035 -0.441,0.042 -0.161,0.007 -0.318,0.007 -0.472,0 -0.154,-0.007 -0.294,-0.011 -0.42,-0.011 h -4.116 -0.714 c -0.07,0 -0.137,-0.003 -0.2,-0.011 C -7.445,7.102 -7.504,7.105 -7.56,7.119 h -0.21 c -0.14,0.028 -0.238,0.056 -0.294,0.084 -0.126,0.056 -0.21,0.168 -0.252,0.336 -0.028,0.126 -0.039,0.294 -0.032,0.504 0.007,0.21 0.011,0.392 0.011,0.546 v 2.142 c 0,0.224 0.003,0.441 0.01,0.651 0.007,0.21 0.081,0.357 0.221,0.441 0.14,0.084 0.36,0.122 0.661,0.115 0.301,-0.006 0.564,-0.01 0.788,-0.01 h 3.528 2.1 c 0.252,0 0.468,0.01 0.651,0.032 0.182,0.02 0.301,0.129 0.357,0.325 0.028,0.112 0.042,0.277 0.042,0.494 0,0.217 -0.014,0.374 -0.042,0.472 -0.028,0.042 -0.056,0.084 -0.084,0.126 -0.028,0.042 -0.063,0.077 -0.105,0.105 -0.098,0.07 -0.225,0.102 -0.378,0.095 -0.155,-0.008 -0.308,-0.011 -0.462,-0.011 h -1.806 -6.867 c -0.028,-0.014 -0.056,-0.017 -0.084,-0.01 -0.028,0.007 -0.056,0.003 -0.084,-0.011 -0.154,-0.042 -0.259,-0.112 -0.315,-0.21 -0.056,-0.07 -0.084,-0.168 -0.084,-0.294 V 12.663 11.361 6.657 1.029 -0.44 -0.829 c 0,-0.133 0.028,-0.242 0.084,-0.326 0.07,-0.112 0.175,-0.178 0.315,-0.199 0.14,-0.021 0.308,-0.032 0.504,-0.032 h 1.47 5.586 1.47 0.388 c 0.133,0 0.242,0.028 0.326,0.084 0.07,0.042 0.133,0.119 0.189,0.231 0.014,0.056 0.028,0.136 0.042,0.242 0.014,0.105 0.017,0.21 0.01,0.315 C 0.087,-0.409 0.077,-0.308 0.063,-0.21 0.049,-0.112 0.028,-0.042 0,0"
       style="fill:#f08c65;fill-opacity:1;fill-rule:nonzero;stroke:none"
       transform="matrix(1.3333333,0,0,-1.3333333,7305.2587,186.9612)"
       clip-path="url(#clipPath1026)" />
    <path
       id="path1027"
       d="m 0,0 c -0.035,-0.099 -0.116,-0.168 -0.242,-0.21 -0.112,-0.042 -0.28,-0.06 -0.504,-0.053 -0.224,0.007 -0.413,0.011 -0.566,0.011 H -3.56 c -0.196,0 -0.406,0.003 -0.629,0.01 -0.225,0.007 -0.372,0.066 -0.441,0.179 -0.029,0.055 -0.046,0.125 -0.053,0.209 -0.007,0.084 0.003,0.162 0.032,0.232 0.027,0.111 0.063,0.224 0.105,0.336 0.042,0.112 0.084,0.223 0.126,0.336 0.027,0.07 0.052,0.139 0.073,0.21 0.021,0.07 0.045,0.139 0.074,0.21 0.223,0.532 0.423,1.078 0.598,1.637 0.175,0.56 0.381,1.114 0.619,1.66 0.07,0.154 0.126,0.307 0.168,0.462 0.042,0.154 0.098,0.308 0.168,0.461 0.029,0.084 0.056,0.165 0.084,0.242 0.029,0.077 0.071,0.151 0.127,0.221 0.028,0.028 0.055,0.049 0.084,0.063 0.028,0.013 0.055,0.034 0.084,0.063 0.112,0 0.185,-0.032 0.22,-0.094 0.035,-0.064 0.066,-0.13 0.095,-0.201 0.069,-0.139 0.129,-0.287 0.178,-0.44 0.049,-0.154 0.108,-0.309 0.179,-0.462 0.21,-0.504 0.395,-1.019 0.556,-1.544 0.161,-0.525 0.346,-1.039 0.556,-1.543 0.056,-0.126 0.102,-0.249 0.137,-0.368 0.035,-0.119 0.073,-0.234 0.115,-0.346 0.028,-0.056 0.042,-0.105 0.042,-0.147 0,-0.042 0.014,-0.092 0.042,-0.147 C -0.179,0.903 -0.133,0.801 -0.084,0.682 -0.035,0.563 0,0.444 0.021,0.325 0.042,0.206 0.035,0.098 0,0 M 4.252,-5.313 C 4.098,-4.949 3.948,-4.578 3.801,-4.2 3.654,-3.822 3.503,-3.451 3.35,-3.087 3.308,-2.961 3.269,-2.843 3.234,-2.73 3.199,-2.618 3.153,-2.499 3.098,-2.373 2.664,-1.352 2.254,-0.319 1.869,0.724 1.484,1.767 1.082,2.8 0.662,3.822 0.536,4.102 0.42,4.389 0.315,4.683 0.21,4.977 0.102,5.264 -0.011,5.544 -0.15,5.866 -0.277,6.187 -0.389,6.51 -0.501,6.832 -0.627,7.153 -0.767,7.476 -0.837,7.63 -0.903,7.801 -0.966,7.99 -1.029,8.179 -1.117,8.315 -1.229,8.399 -1.383,8.512 -1.627,8.564 -1.963,8.557 -2.299,8.55 -2.594,8.547 -2.846,8.547 -2.874,8.533 -2.905,8.529 -2.94,8.536 -2.975,8.543 -3.007,8.54 -3.035,8.525 -3.161,8.498 -3.252,8.456 -3.308,8.399 -3.434,8.315 -3.528,8.179 -3.591,7.99 -3.654,7.801 -3.721,7.63 -3.791,7.476 -3.945,7.111 -4.088,6.741 -4.221,6.363 -4.354,5.984 -4.498,5.613 -4.651,5.25 -5.071,4.228 -5.471,3.202 -5.849,2.173 -6.227,1.145 -6.625,0.126 -7.045,-0.882 -7.171,-1.19 -7.291,-1.495 -7.402,-1.796 -7.515,-2.097 -7.633,-2.401 -7.759,-2.709 -7.941,-3.157 -8.11,-3.602 -8.264,-4.043 c -0.154,-0.441 -0.329,-0.886 -0.525,-1.333 -0.028,-0.042 -0.059,-0.109 -0.094,-0.2 -0.035,-0.091 -0.063,-0.182 -0.084,-0.273 -0.021,-0.091 -0.028,-0.178 -0.021,-0.262 0.007,-0.084 0.045,-0.147 0.115,-0.189 0.07,-0.056 0.158,-0.088 0.263,-0.095 0.105,-0.007 0.213,-0.01 0.325,-0.01 0.21,0 0.41,0.003 0.599,0.01 0.189,0.007 0.339,0.053 0.452,0.137 0.055,0.042 0.108,0.108 0.157,0.199 0.049,0.091 0.095,0.193 0.137,0.305 0.042,0.111 0.08,0.22 0.115,0.325 0.035,0.105 0.066,0.2 0.095,0.283 0.139,0.323 0.269,0.659 0.388,1.009 0.119,0.349 0.248,0.686 0.388,1.008 0.07,0.182 0.13,0.36 0.179,0.535 0.049,0.175 0.129,0.332 0.241,0.473 0.056,0.084 0.144,0.14 0.263,0.168 0.119,0.028 0.249,0.049 0.389,0.062 0.139,0.015 0.286,0.018 0.441,0.011 0.153,-0.007 0.294,-0.011 0.42,-0.011 h 3.968 c 0.098,0 0.193,0.004 0.284,0.011 0.091,0.007 0.171,-0.003 0.242,-0.031 0.139,-0.042 0.252,-0.098 0.336,-0.168 0.084,-0.07 0.15,-0.154 0.199,-0.252 0.049,-0.099 0.091,-0.203 0.126,-0.315 0.035,-0.113 0.074,-0.231 0.116,-0.357 0.153,-0.378 0.293,-0.764 0.419,-1.155 0.126,-0.392 0.266,-0.771 0.42,-1.134 0.07,-0.168 0.137,-0.357 0.2,-0.567 0.063,-0.21 0.165,-0.357 0.304,-0.441 0.126,-0.071 0.298,-0.105 0.515,-0.105 h 0.62 0.293 c 0.098,0 0.182,0.013 0.252,0.042 0.098,0.042 0.158,0.108 0.179,0.199 0.021,0.091 0.021,0.189 0,0.294 -0.021,0.105 -0.053,0.207 -0.095,0.305 -0.042,0.097 -0.077,0.181 -0.105,0.252"
       style="fill:#f08c65;fill-opacity:1;fill-rule:nonzero;stroke:none"
       transform="matrix(1.3333333,0,0,-1.3333333,7317.872,180.26853)"
       clip-path="url(#clipPath1028)" />
    <path
       id="path1029"
       d="M 0,0 C -0.056,0.098 -0.175,0.175 -0.357,0.231 -0.441,0.259 -0.535,0.27 -0.64,0.263 -0.745,0.256 -0.847,0.252 -0.945,0.252 h -1.176 -3.78 -1.071 c -0.112,0 -0.224,0.004 -0.336,0.011 -0.112,0.007 -0.203,0.024 -0.273,0.052 -0.112,0.07 -0.189,0.154 -0.231,0.252 -0.042,0.112 -0.063,0.259 -0.063,0.441 v 0.504 1.932 6.742 2.205 0.566 c 0,0.182 -0.042,0.329 -0.126,0.441 -0.042,0.056 -0.112,0.098 -0.21,0.126 -0.098,0.028 -0.206,0.045 -0.325,0.053 -0.119,0.007 -0.242,0.007 -0.368,0 -0.126,-0.008 -0.238,-0.011 -0.336,-0.011 -0.028,-0.014 -0.059,-0.017 -0.094,-0.01 -0.036,0.007 -0.067,0.003 -0.095,-0.011 -0.154,-0.056 -0.259,-0.126 -0.315,-0.21 -0.042,-0.07 -0.067,-0.168 -0.073,-0.294 -0.008,-0.126 -0.011,-0.252 -0.011,-0.378 V 11.361 6.804 1.071 -0.44 -0.829 c 0,-0.133 0.028,-0.242 0.084,-0.326 0.07,-0.112 0.175,-0.178 0.315,-0.199 0.14,-0.021 0.308,-0.032 0.504,-0.032 h 1.365 5.313 1.386 0.389 c 0.133,0 0.234,0.028 0.304,0.084 0.098,0.056 0.161,0.133 0.189,0.231 0.014,0.056 0.028,0.136 0.042,0.242 0.014,0.105 0.018,0.21 0.011,0.315 C 0.066,-0.409 0.056,-0.308 0.042,-0.21 0.028,-0.112 0.014,-0.042 0,0"
       style="fill:#f08c65;fill-opacity:1;fill-rule:nonzero;stroke:none"
       transform="matrix(1.3333333,0,0,-1.3333333,7338.5217,186.9612)"
       clip-path="url(#clipPath1030)" />
    <path
       id="path1031"
       d="m 0,0 c -0.098,0.056 -0.217,0.084 -0.357,0.084 h -0.42 -1.596 -8.778 c -0.028,-0.014 -0.056,-0.018 -0.084,-0.01 -0.028,0.007 -0.056,0.003 -0.084,-0.011 -0.056,-0.014 -0.108,-0.031 -0.157,-0.052 -0.049,-0.021 -0.088,-0.053 -0.116,-0.095 -0.042,-0.042 -0.077,-0.119 -0.105,-0.23 -0.028,-0.113 -0.045,-0.232 -0.052,-0.358 -0.007,-0.126 -0.004,-0.252 0.01,-0.378 0.014,-0.126 0.042,-0.217 0.084,-0.273 0.028,-0.042 0.063,-0.076 0.105,-0.105 0.042,-0.028 0.084,-0.056 0.126,-0.084 0.112,-0.042 0.277,-0.059 0.494,-0.052 0.217,0.006 0.409,0.01 0.577,0.01 h 2.31 c 0.28,0 0.543,-0.007 0.788,-0.021 0.245,-0.014 0.402,-0.133 0.472,-0.357 0.042,-0.126 0.06,-0.291 0.053,-0.493 -0.007,-0.203 -0.011,-0.382 -0.011,-0.536 v -2.079 -6.909 -1.868 c 0,-0.183 0.004,-0.351 0.011,-0.505 0.007,-0.154 0.052,-0.287 0.136,-0.399 0.07,-0.098 0.207,-0.147 0.41,-0.147 h 0.577 c 0.112,0 0.217,0.004 0.315,0.011 0.098,0.006 0.182,0.024 0.252,0.052 0.14,0.07 0.221,0.189 0.242,0.357 0.021,0.168 0.031,0.357 0.031,0.567 v 2.226 6.636 2.038 c 0,0.153 -0.007,0.328 -0.021,0.524 -0.014,0.196 0,0.357 0.042,0.483 0.042,0.126 0.105,0.221 0.189,0.284 0.084,0.063 0.185,0.105 0.305,0.126 0.119,0.021 0.252,0.028 0.399,0.021 0.147,-0.007 0.297,-0.011 0.451,-0.011 h 2.394 0.567 c 0.196,0 0.35,0.035 0.462,0.105 0.07,0.056 0.116,0.119 0.137,0.189 0.021,0.071 0.045,0.161 0.073,0.274 v 0.252 c 0,0.181 -0.01,0.332 -0.031,0.451 C 0.179,-0.164 0.112,-0.07 0,0"
       style="fill:#f08c65;fill-opacity:1;fill-rule:nonzero;stroke:none"
       transform="matrix(1.3333333,0,0,-1.3333333,7353.8095,168.95733)"
       clip-path="url(#clipPath1032)" />
    <path
       id="path1033"
       d="m 0,0 c -0.098,0.07 -0.221,0.108 -0.368,0.115 -0.147,0.007 -0.297,0.011 -0.451,0.011 -0.07,0 -0.14,0.003 -0.21,0.01 -0.07,0.008 -0.133,0.004 -0.189,-0.01 H -1.323 C -1.393,0.098 -1.459,0.077 -1.522,0.062 -1.585,0.049 -1.631,0.014 -1.659,-0.042 -1.771,-0.168 -1.82,-0.364 -1.806,-0.63 c 0.014,-0.266 0.021,-0.512 0.021,-0.735 v -3.297 c 0,-0.224 0.003,-0.486 0.011,-0.788 0.006,-0.301 -0.039,-0.522 -0.137,-0.661 -0.056,-0.084 -0.154,-0.14 -0.294,-0.168 -0.14,-0.029 -0.297,-0.046 -0.472,-0.053 -0.176,-0.007 -0.354,-0.007 -0.536,0 -0.182,0.007 -0.343,0.011 -0.483,0.011 h -3.696 -1.176 -0.588 c -0.112,0.028 -0.207,0.055 -0.283,0.084 -0.078,0.028 -0.144,0.084 -0.2,0.168 -0.028,0.028 -0.046,0.07 -0.052,0.126 -0.008,0.055 -0.018,0.105 -0.032,0.147 v 0.168 c -0.014,0.056 -0.018,0.122 -0.01,0.199 0.006,0.077 0.01,0.151 0.01,0.221 v 0.819 3.108 c 0,0.223 0.003,0.458 0.011,0.703 0.006,0.245 -0.046,0.431 -0.158,0.557 -0.084,0.112 -0.262,0.165 -0.535,0.157 -0.273,-0.007 -0.508,-0.01 -0.704,-0.01 -0.028,-0.014 -0.056,-0.018 -0.084,-0.011 -0.028,0.007 -0.056,0.004 -0.084,-0.011 -0.154,-0.042 -0.259,-0.111 -0.315,-0.209 -0.07,-0.098 -0.102,-0.231 -0.095,-0.399 0.007,-0.168 0.011,-0.329 0.011,-0.483 v -1.974 -8.379 -2.415 c 0,-0.196 0.003,-0.389 0.01,-0.578 0.007,-0.188 0.067,-0.318 0.179,-0.388 0.07,-0.056 0.164,-0.088 0.283,-0.094 0.12,-0.008 0.249,-0.011 0.389,-0.011 0.224,0 0.434,0.007 0.63,0.021 0.196,0.013 0.329,0.098 0.399,0.252 0.028,0.07 0.045,0.154 0.053,0.252 0.006,0.098 0.01,0.202 0.01,0.315 v 0.903 3.318 c 0,0.112 -0.004,0.248 -0.01,0.41 -0.008,0.16 -0.008,0.318 0,0.472 0.006,0.154 0.021,0.294 0.042,0.42 0.021,0.126 0.052,0.224 0.094,0.294 0.056,0.069 0.122,0.115 0.2,0.136 0.076,0.021 0.171,0.046 0.283,0.074 h 5.46 0.924 0.315 c 0.098,0 0.182,-0.015 0.252,-0.042 0.126,-0.057 0.217,-0.119 0.273,-0.189 0.042,-0.071 0.07,-0.168 0.084,-0.294 0.014,-0.126 0.021,-0.259 0.021,-0.399 v -0.43 -0.368 -3.549 c 0,-0.239 -0.007,-0.504 -0.021,-0.798 -0.014,-0.294 0.035,-0.511 0.147,-0.651 0.07,-0.098 0.192,-0.147 0.367,-0.147 h 0.515 c 0.056,0 0.115,-0.004 0.178,-0.011 0.063,-0.007 0.123,-0.003 0.179,0.011 0.084,0.028 0.154,0.042 0.21,0.042 0.056,0 0.112,0.021 0.168,0.063 0.112,0.07 0.175,0.182 0.189,0.336 0.014,0.154 0.021,0.328 0.021,0.525 v 1.995 8.673 2.289 c 0,0.168 -0.003,0.342 -0.01,0.525 C 0.15,-0.196 0.098,-0.07 0,0"
       style="fill:#f08c65;fill-opacity:1;fill-rule:nonzero;stroke:none"
       transform="matrix(1.3333333,0,0,-1.3333333,7371.2255,169.04067)"
       clip-path="url(#clipPath1034)" />
    <path
       id="path1035"
       d="M 0,0 C -0.112,0.007 -0.224,0.011 -0.336,0.011 H -1.04 c -0.231,0 -0.409,-0.05 -0.535,-0.148 -0.084,-0.07 -0.154,-0.146 -0.21,-0.23 -0.056,-0.084 -0.112,-0.176 -0.168,-0.274 -0.112,-0.168 -0.22,-0.339 -0.325,-0.514 -0.105,-0.175 -0.214,-0.354 -0.326,-0.535 -0.378,-0.588 -0.749,-1.184 -1.113,-1.786 -0.364,-0.601 -0.735,-1.204 -1.113,-1.805 -0.126,-0.197 -0.249,-0.4 -0.368,-0.61 -0.119,-0.21 -0.248,-0.413 -0.388,-0.609 -0.028,-0.056 -0.081,-0.122 -0.158,-0.199 -0.077,-0.077 -0.171,-0.102 -0.283,-0.073 -0.112,0.027 -0.2,0.087 -0.263,0.178 -0.063,0.091 -0.122,0.186 -0.178,0.283 -0.14,0.21 -0.277,0.42 -0.409,0.63 -0.134,0.21 -0.27,0.428 -0.41,0.652 -0.378,0.615 -0.76,1.224 -1.145,1.827 -0.385,0.601 -0.773,1.21 -1.165,1.827 -0.098,0.14 -0.189,0.279 -0.273,0.42 -0.084,0.14 -0.168,0.279 -0.252,0.42 -0.07,0.098 -0.136,0.188 -0.2,0.272 -0.063,0.084 -0.15,0.155 -0.262,0.21 -0.154,0.071 -0.385,0.098 -0.693,0.084 -0.308,-0.013 -0.567,-0.02 -0.777,-0.02 -0.014,-0.014 -0.031,-0.018 -0.052,-0.011 -0.021,0.007 -0.039,0.011 -0.053,0.011 -0.07,-0.029 -0.136,-0.05 -0.199,-0.064 -0.063,-0.013 -0.102,-0.055 -0.116,-0.126 -0.042,-0.042 -0.049,-0.112 -0.021,-0.21 0.042,-0.139 0.112,-0.272 0.21,-0.398 0.182,-0.28 0.36,-0.55 0.535,-0.809 0.175,-0.259 0.354,-0.529 0.536,-0.808 0.476,-0.714 0.938,-1.425 1.386,-2.132 0.448,-0.707 0.91,-1.417 1.386,-2.131 l 0.819,-1.261 c 0.112,-0.181 0.221,-0.353 0.326,-0.514 0.105,-0.161 0.192,-0.361 0.262,-0.598 v -0.273 c 0.014,-0.057 0.021,-0.116 0.021,-0.179 v -0.199 -0.736 -2.793 c 0,-0.126 -0.004,-0.265 -0.01,-0.42 -0.008,-0.154 -0.008,-0.304 0,-0.451 0.006,-0.147 0.021,-0.287 0.042,-0.42 0.021,-0.133 0.059,-0.227 0.115,-0.283 0.07,-0.099 0.189,-0.147 0.357,-0.147 h 0.504 c 0.07,0 0.136,-0.004 0.199,-0.011 0.063,-0.007 0.123,-0.004 0.179,0.011 0.056,0.013 0.105,0.017 0.147,0.01 0.042,-0.007 0.084,0.003 0.126,0.032 0.154,0.069 0.252,0.231 0.294,0.482 v 0.357 c 0.028,0.113 0.035,0.232 0.021,0.358 -0.014,0.126 -0.021,0.244 -0.021,0.356 v 3.004 0.84 0.325 c 0,0.105 0.014,0.199 0.042,0.283 0.07,0.197 0.15,0.361 0.242,0.494 0.09,0.133 0.185,0.276 0.283,0.43 0.154,0.239 0.301,0.466 0.441,0.683 0.14,0.217 0.287,0.437 0.441,0.662 0.462,0.741 0.924,1.477 1.386,2.205 0.462,0.728 0.938,1.448 1.428,2.163 0.07,0.111 0.133,0.216 0.189,0.315 0.056,0.097 0.119,0.195 0.189,0.294 0.112,0.153 0.217,0.311 0.315,0.472 0.098,0.161 0.203,0.325 0.315,0.493 0.042,0.056 0.087,0.151 0.137,0.284 0.049,0.133 0.024,0.234 -0.074,0.304 C 0.203,-0.039 0.112,-0.007 0,0"
       style="fill:#f08c65;fill-opacity:1;fill-rule:nonzero;stroke:none"
       transform="matrix(1.3333333,0,0,-1.3333333,7390.1532,168.88693)"
       clip-path="url(#clipPath1036)" />
    <path
       id="path1037"
       d="m 0,0 c -0.049,-0.168 -0.123,-0.329 -0.221,-0.482 -0.21,-0.336 -0.49,-0.588 -0.84,-0.757 -0.35,-0.168 -0.745,-0.283 -1.186,-0.346 -0.441,-0.063 -0.921,-0.091 -1.439,-0.084 -0.518,0.007 -1.05,0.01 -1.596,0.01 h -1.301 c -0.168,0 -0.323,0.011 -0.462,0.032 -0.141,0.021 -0.246,0.08 -0.316,0.178 -0.098,0.126 -0.143,0.305 -0.136,0.536 0.007,0.231 0.01,0.451 0.01,0.661 v 2.415 c 0,0.182 -0.003,0.385 -0.01,0.609 -0.007,0.224 0.017,0.399 0.073,0.525 0.056,0.14 0.168,0.231 0.337,0.273 0.042,0.014 0.08,0.021 0.115,0.021 0.035,0 0.066,0.007 0.095,0.021 h 3.464 c 0.392,0 0.774,-0.007 1.145,-0.021 C -1.897,3.577 -1.572,3.514 -1.292,3.402 -0.634,3.136 -0.193,2.653 0.031,1.953 0.087,1.799 0.129,1.607 0.157,1.376 0.185,1.145 0.178,0.931 0.136,0.735 V 0.546 C 0.094,0.35 0.049,0.168 0,0 m 2.131,-8.693 c -0.028,0.084 -0.045,0.164 -0.052,0.241 -0.007,0.077 -0.025,0.157 -0.053,0.241 -0.042,0.126 -0.07,0.263 -0.084,0.41 -0.014,0.147 -0.035,0.29 -0.063,0.43 -0.014,0.07 -0.017,0.13 -0.01,0.179 0.007,0.048 0.003,0.101 -0.011,0.157 -0.028,0.112 -0.035,0.224 -0.021,0.336 0.014,0.112 0.007,0.218 -0.021,0.315 v 0.19 c -0.028,0.097 -0.035,0.195 -0.021,0.294 0.014,0.097 0.007,0.195 -0.021,0.294 -0.014,0.111 -0.028,0.22 -0.042,0.325 -0.014,0.105 -0.028,0.213 -0.042,0.325 -0.07,0.28 -0.14,0.543 -0.21,0.788 -0.07,0.245 -0.182,0.465 -0.335,0.661 -0.099,0.154 -0.214,0.287 -0.347,0.4 -0.133,0.111 -0.277,0.216 -0.431,0.314 -0.056,0.028 -0.122,0.07 -0.199,0.126 -0.077,0.056 -0.109,0.126 -0.095,0.21 0.014,0.084 0.049,0.15 0.105,0.2 0.056,0.049 0.119,0.094 0.189,0.136 0.112,0.07 0.217,0.143 0.315,0.221 0.098,0.077 0.203,0.157 0.316,0.241 0.027,0.028 0.059,0.063 0.094,0.105 0.034,0.042 0.066,0.077 0.095,0.105 0.013,0.014 0.027,0.025 0.042,0.032 0.013,0.007 0.027,0.018 0.042,0.031 0.041,0.071 0.086,0.133 0.136,0.19 0.049,0.055 0.094,0.118 0.136,0.188 0.112,0.168 0.2,0.347 0.263,0.536 0.063,0.189 0.129,0.388 0.199,0.598 0.028,0.098 0.046,0.196 0.053,0.294 0.007,0.098 0.024,0.203 0.052,0.315 v 0.231 c 0.014,0.07 0.025,0.151 0.032,0.242 0.007,0.091 0.003,0.171 -0.011,0.241 v 0.21 C 2.103,1.771 2.086,1.887 2.079,2.006 2.072,2.125 2.054,2.24 2.026,2.353 1.886,2.814 1.708,3.217 1.491,3.56 1.273,3.903 0.99,4.193 0.64,4.432 0.444,4.571 0.234,4.69 0.01,4.788 -0.214,4.886 -0.459,4.978 -0.725,5.062 -0.837,5.089 -0.952,5.11 -1.071,5.124 -1.19,5.138 -1.306,5.159 -1.417,5.187 -1.516,5.201 -1.606,5.212 -1.69,5.219 -1.774,5.226 -1.858,5.236 -1.943,5.25 H -2.174 C -2.258,5.264 -2.356,5.268 -2.468,5.261 -2.58,5.254 -2.685,5.25 -2.783,5.25 h -6.09 C -8.901,5.236 -8.929,5.232 -8.957,5.24 -8.985,5.247 -9.013,5.243 -9.041,5.229 -9.195,5.173 -9.3,5.104 -9.355,5.02 -9.426,4.921 -9.458,4.788 -9.45,4.62 -9.443,4.452 -9.439,4.291 -9.439,4.138 V -8.631 -9.188 c 0,-0.188 0.055,-0.318 0.168,-0.388 0.097,-0.07 0.22,-0.109 0.367,-0.115 0.147,-0.007 0.297,-0.011 0.451,-0.011 0.07,0 0.14,-0.003 0.21,-0.01 0.07,-0.008 0.133,-0.004 0.189,0.01 0.07,0.028 0.13,0.042 0.179,0.042 0.049,0 0.101,0.014 0.157,0.042 0.084,0.028 0.14,0.091 0.168,0.189 0.07,0.14 0.098,0.354 0.084,0.641 -0.014,0.287 -0.021,0.528 -0.021,0.725 v 3.044 c 0,0.238 -0.003,0.515 -0.01,0.83 -0.007,0.315 0.038,0.543 0.136,0.682 0.056,0.07 0.123,0.116 0.2,0.137 0.077,0.021 0.164,0.045 0.263,0.073 h 3.863 c 0.238,0 0.466,-0.003 0.683,-0.01 0.217,-0.007 0.416,-0.046 0.599,-0.116 0.615,-0.196 1.056,-0.588 1.322,-1.176 0.098,-0.224 0.165,-0.462 0.2,-0.713 0.035,-0.252 0.087,-0.504 0.157,-0.756 0.028,-0.113 0.042,-0.218 0.042,-0.316 0,-0.097 0.014,-0.196 0.042,-0.294 l 0.063,-0.945 v -0.252 c 0,-0.084 0.007,-0.168 0.021,-0.252 0.014,-0.056 0.014,-0.112 0,-0.168 C 0.08,-8.351 0.087,-8.414 0.115,-8.483 V -8.62 c 0,-0.049 0.007,-0.102 0.021,-0.157 0.028,-0.155 0.06,-0.305 0.095,-0.452 0.035,-0.147 0.108,-0.256 0.22,-0.326 0.126,-0.098 0.301,-0.147 0.526,-0.147 h 0.671 c 0.112,0 0.221,0.004 0.326,0.011 0.105,0.006 0.192,0.031 0.262,0.073 0.126,0.098 0.154,0.238 0.084,0.42 z"
       style="fill:#f08c65;fill-opacity:1;fill-rule:nonzero;stroke:none"
       transform="matrix(1.3333333,0,0,-1.3333333,7412.2593,175.84533)"
       clip-path="url(#clipPath1038)" />
    <path
       id="path1039"
       d="m 0,0 c -0.042,0.056 -0.112,0.098 -0.21,0.126 -0.098,0.028 -0.207,0.045 -0.325,0.052 -0.119,0.008 -0.242,0.008 -0.368,0 C -1.029,0.171 -1.141,0.168 -1.239,0.168 -1.267,0.154 -1.295,0.15 -1.323,0.157 -1.351,0.164 -1.379,0.161 -1.407,0.146 -1.575,0.104 -1.687,0.035 -1.743,-0.063 c -0.07,-0.112 -0.102,-0.263 -0.094,-0.452 0.006,-0.189 0.01,-0.36 0.01,-0.514 v -2.268 -8.778 -1.68 -0.452 c 0,-0.147 0.028,-0.262 0.084,-0.346 0.07,-0.126 0.189,-0.197 0.357,-0.21 0.168,-0.014 0.35,-0.021 0.546,-0.021 h 0.399 c 0.112,0.028 0.207,0.049 0.284,0.063 0.076,0.013 0.143,0.056 0.199,0.126 0.07,0.112 0.105,0.269 0.105,0.472 v 0.578 2.457 8.106 2.037 c 0,0.181 -0.003,0.36 -0.01,0.535 C 0.129,-0.235 0.084,-0.099 0,0"
       style="fill:#f08c65;fill-opacity:1;fill-rule:nonzero;stroke:none"
       transform="matrix(1.3333333,0,0,-1.3333333,7420.7288,169.15267)"
       clip-path="url(#clipPath1040)" />
    <path
       id="path1041"
       d="m 0,0 c -0.098,0.056 -0.217,0.084 -0.357,0.084 h -0.42 -1.596 -8.778 c -0.028,-0.014 -0.056,-0.018 -0.084,-0.01 -0.028,0.007 -0.056,0.003 -0.084,-0.011 -0.056,-0.014 -0.108,-0.031 -0.157,-0.052 -0.049,-0.021 -0.088,-0.053 -0.116,-0.095 -0.042,-0.042 -0.077,-0.119 -0.105,-0.23 -0.028,-0.113 -0.045,-0.232 -0.052,-0.358 -0.007,-0.126 -0.004,-0.252 0.01,-0.378 0.014,-0.126 0.042,-0.217 0.084,-0.273 0.028,-0.042 0.063,-0.076 0.105,-0.105 0.042,-0.028 0.084,-0.056 0.126,-0.084 0.112,-0.042 0.277,-0.059 0.494,-0.052 0.217,0.006 0.409,0.01 0.577,0.01 h 2.31 c 0.28,0 0.543,-0.007 0.788,-0.021 0.245,-0.014 0.402,-0.133 0.472,-0.357 0.042,-0.126 0.06,-0.291 0.053,-0.493 -0.007,-0.203 -0.011,-0.382 -0.011,-0.536 v -2.079 -6.909 -1.868 c 0,-0.183 0.004,-0.351 0.011,-0.505 0.007,-0.154 0.052,-0.287 0.136,-0.399 0.07,-0.098 0.207,-0.147 0.41,-0.147 h 0.577 c 0.112,0 0.217,0.004 0.315,0.011 0.098,0.006 0.182,0.024 0.252,0.052 0.14,0.07 0.221,0.189 0.242,0.357 0.021,0.168 0.031,0.357 0.031,0.567 v 2.226 6.636 2.038 c 0,0.153 -0.007,0.328 -0.021,0.524 -0.014,0.196 0,0.357 0.042,0.483 0.042,0.126 0.105,0.221 0.189,0.284 0.084,0.063 0.185,0.105 0.305,0.126 0.119,0.021 0.252,0.028 0.399,0.021 0.147,-0.007 0.297,-0.011 0.451,-0.011 h 2.394 0.567 c 0.196,0 0.35,0.035 0.462,0.105 0.07,0.056 0.116,0.119 0.137,0.189 0.021,0.071 0.045,0.161 0.073,0.274 v 0.252 c 0,0.181 -0.01,0.332 -0.031,0.451 C 0.179,-0.164 0.112,-0.07 0,0"
       style="fill:#f08c65;fill-opacity:1;fill-rule:nonzero;stroke:none"
       transform="matrix(1.3333333,0,0,-1.3333333,7438.2561,168.95733)"
       clip-path="url(#clipPath1042)" />
    <path
       id="path1043"
       d="m 0,0 c -0.07,0 -0.137,0.004 -0.2,0.011 -0.063,0.007 -0.129,0.01 -0.199,0.01 h -0.557 c -0.189,0 -0.318,-0.049 -0.388,-0.147 -0.112,-0.126 -0.165,-0.339 -0.157,-0.64 0.006,-0.301 0.01,-0.571 0.01,-0.809 v -3.633 -3.443 c 0,-0.463 -0.01,-0.914 -0.031,-1.355 -0.021,-0.441 -0.088,-0.837 -0.2,-1.186 -0.182,-0.561 -0.424,-1.009 -0.724,-1.345 -0.302,-0.336 -0.718,-0.609 -1.25,-0.818 -0.154,-0.071 -0.308,-0.12 -0.462,-0.148 -0.154,-0.028 -0.315,-0.062 -0.483,-0.104 -0.07,-0.015 -0.144,-0.018 -0.22,-0.011 -0.077,0.007 -0.151,0.003 -0.221,-0.011 -0.07,-0.028 -0.15,-0.038 -0.242,-0.031 -0.091,0.007 -0.178,0.011 -0.262,0.011 h -0.21 c -0.084,0.013 -0.172,0.024 -0.263,0.031 -0.091,0.007 -0.178,0.017 -0.262,0.031 -0.168,0.042 -0.336,0.074 -0.504,0.095 -0.168,0.021 -0.329,0.066 -0.483,0.137 -0.518,0.223 -0.945,0.51 -1.281,0.86 -0.336,0.35 -0.595,0.798 -0.777,1.345 -0.126,0.363 -0.196,0.78 -0.21,1.249 -0.014,0.468 -0.021,0.948 -0.021,1.438 v 3.906 3.15 c 0,0.224 0.003,0.463 0.011,0.715 0.006,0.252 -0.046,0.44 -0.158,0.566 -0.084,0.112 -0.262,0.165 -0.535,0.158 C -10.553,0.024 -10.787,0.021 -10.983,0.021 -11.011,0.007 -11.067,0 -11.151,0 c -0.154,-0.042 -0.259,-0.112 -0.315,-0.21 -0.056,-0.084 -0.084,-0.188 -0.084,-0.314 v -0.378 -1.429 -5.481 -1.365 c 0,-0.112 -0.007,-0.227 -0.021,-0.346 -0.014,-0.12 -0.007,-0.235 0.021,-0.347 v -0.21 c 0.014,-0.112 0.024,-0.22 0.031,-0.325 0.007,-0.105 0.018,-0.214 0.032,-0.325 0.056,-0.239 0.105,-0.47 0.147,-0.694 0.042,-0.223 0.105,-0.441 0.189,-0.651 0.196,-0.49 0.434,-0.917 0.714,-1.28 0.28,-0.365 0.63,-0.68 1.05,-0.946 0.098,-0.07 0.192,-0.133 0.283,-0.189 0.091,-0.056 0.186,-0.105 0.284,-0.147 0.21,-0.098 0.43,-0.178 0.661,-0.241 0.231,-0.063 0.466,-0.129 0.704,-0.2 0.112,-0.027 0.221,-0.048 0.326,-0.063 0.105,-0.013 0.213,-0.035 0.325,-0.063 h 0.168 c 0.098,-0.027 0.199,-0.038 0.304,-0.031 0.105,0.007 0.207,-0.003 0.305,-0.032 h 0.252 c 0.07,-0.013 0.182,-0.021 0.336,-0.021 0.154,0 0.266,0.008 0.336,0.021 h 0.252 c 0.14,0.029 0.284,0.042 0.431,0.042 0.147,0 0.29,0.015 0.43,0.042 0.14,0.029 0.273,0.053 0.399,0.074 0.126,0.021 0.252,0.052 0.378,0.094 0.266,0.084 0.518,0.175 0.756,0.273 0.238,0.098 0.462,0.21 0.672,0.336 0.532,0.337 0.955,0.746 1.27,1.229 0.315,0.483 0.571,1.067 0.767,1.753 0.112,0.406 0.175,0.861 0.189,1.365 0.014,0.504 0.021,1.015 0.021,1.534 v 4.367 2.898 c 0,0.168 0.003,0.358 0.011,0.568 0.006,0.21 -0.025,0.37 -0.095,0.482 C 0.322,-0.112 0.196,-0.042 0,0"
       style="fill:#f08c65;fill-opacity:1;fill-rule:nonzero;stroke:none"
       transform="matrix(1.3333333,0,0,-1.3333333,7455.3921,168.90133)"
       clip-path="url(#clipPath1044)" />
    <path
       id="path1045"
       d="m 0,0 c -0.035,-0.099 -0.116,-0.168 -0.242,-0.21 -0.112,-0.042 -0.28,-0.06 -0.504,-0.053 -0.224,0.007 -0.413,0.011 -0.566,0.011 H -3.56 c -0.196,0 -0.406,0.003 -0.629,0.01 -0.225,0.007 -0.372,0.066 -0.441,0.179 -0.029,0.055 -0.046,0.125 -0.053,0.209 -0.007,0.084 0.003,0.162 0.032,0.232 0.027,0.111 0.063,0.224 0.105,0.336 0.042,0.112 0.084,0.223 0.126,0.336 0.027,0.07 0.052,0.139 0.073,0.21 0.021,0.07 0.045,0.139 0.074,0.21 0.223,0.532 0.423,1.078 0.598,1.637 0.175,0.56 0.381,1.114 0.619,1.66 0.07,0.154 0.126,0.307 0.168,0.462 0.042,0.154 0.098,0.308 0.168,0.461 0.029,0.084 0.056,0.165 0.084,0.242 0.029,0.077 0.071,0.151 0.127,0.221 0.028,0.028 0.055,0.049 0.084,0.063 0.028,0.013 0.055,0.034 0.084,0.063 0.112,0 0.185,-0.032 0.22,-0.094 0.035,-0.064 0.066,-0.13 0.095,-0.201 0.069,-0.139 0.129,-0.287 0.178,-0.44 0.049,-0.154 0.108,-0.309 0.179,-0.462 0.21,-0.504 0.395,-1.019 0.556,-1.544 0.161,-0.525 0.346,-1.039 0.556,-1.543 0.056,-0.126 0.102,-0.249 0.137,-0.368 0.035,-0.119 0.073,-0.234 0.115,-0.346 0.028,-0.056 0.042,-0.105 0.042,-0.147 0,-0.042 0.014,-0.092 0.042,-0.147 C -0.179,0.903 -0.133,0.801 -0.084,0.682 -0.035,0.563 0,0.444 0.021,0.325 0.042,0.206 0.035,0.098 0,0 M 4.252,-5.313 C 4.098,-4.949 3.948,-4.578 3.801,-4.2 3.654,-3.822 3.503,-3.451 3.35,-3.087 3.308,-2.961 3.269,-2.843 3.234,-2.73 3.199,-2.618 3.153,-2.499 3.098,-2.373 2.664,-1.352 2.254,-0.319 1.869,0.724 1.484,1.767 1.082,2.8 0.662,3.822 0.536,4.102 0.42,4.389 0.315,4.683 0.21,4.977 0.102,5.264 -0.011,5.544 -0.15,5.866 -0.277,6.187 -0.389,6.51 -0.501,6.832 -0.627,7.153 -0.767,7.476 -0.837,7.63 -0.903,7.801 -0.966,7.99 -1.029,8.179 -1.117,8.315 -1.229,8.399 -1.383,8.512 -1.627,8.564 -1.963,8.557 -2.299,8.55 -2.594,8.547 -2.846,8.547 -2.874,8.533 -2.905,8.529 -2.94,8.536 -2.975,8.543 -3.007,8.54 -3.035,8.525 -3.161,8.498 -3.252,8.456 -3.308,8.399 -3.434,8.315 -3.528,8.179 -3.591,7.99 -3.654,7.801 -3.721,7.63 -3.791,7.476 -3.945,7.111 -4.088,6.741 -4.221,6.363 -4.354,5.984 -4.498,5.613 -4.651,5.25 -5.071,4.228 -5.471,3.202 -5.849,2.173 -6.227,1.145 -6.625,0.126 -7.045,-0.882 -7.171,-1.19 -7.291,-1.495 -7.402,-1.796 -7.515,-2.097 -7.633,-2.401 -7.759,-2.709 -7.941,-3.157 -8.11,-3.602 -8.264,-4.043 c -0.154,-0.441 -0.329,-0.886 -0.525,-1.333 -0.028,-0.042 -0.059,-0.109 -0.094,-0.2 -0.035,-0.091 -0.063,-0.182 -0.084,-0.273 -0.021,-0.091 -0.028,-0.178 -0.021,-0.262 0.007,-0.084 0.045,-0.147 0.115,-0.189 0.07,-0.056 0.158,-0.088 0.263,-0.095 0.105,-0.007 0.213,-0.01 0.325,-0.01 0.21,0 0.41,0.003 0.599,0.01 0.189,0.007 0.339,0.053 0.452,0.137 0.055,0.042 0.108,0.108 0.157,0.199 0.049,0.091 0.095,0.193 0.137,0.305 0.042,0.111 0.08,0.22 0.115,0.325 0.035,0.105 0.066,0.2 0.095,0.283 0.139,0.323 0.269,0.659 0.388,1.009 0.119,0.349 0.248,0.686 0.388,1.008 0.07,0.182 0.13,0.36 0.179,0.535 0.049,0.175 0.129,0.332 0.241,0.473 0.056,0.084 0.144,0.14 0.263,0.168 0.119,0.028 0.249,0.049 0.389,0.062 0.139,0.015 0.286,0.018 0.441,0.011 0.153,-0.007 0.294,-0.011 0.42,-0.011 h 3.968 c 0.098,0 0.193,0.004 0.284,0.011 0.091,0.007 0.171,-0.003 0.242,-0.031 0.139,-0.042 0.252,-0.098 0.336,-0.168 0.084,-0.07 0.15,-0.154 0.199,-0.252 0.049,-0.099 0.091,-0.203 0.126,-0.315 0.035,-0.113 0.074,-0.231 0.116,-0.357 0.153,-0.378 0.293,-0.764 0.419,-1.155 0.126,-0.392 0.266,-0.771 0.42,-1.134 0.07,-0.168 0.137,-0.357 0.2,-0.567 0.063,-0.21 0.165,-0.357 0.304,-0.441 0.126,-0.071 0.298,-0.105 0.515,-0.105 h 0.62 0.293 c 0.098,0 0.182,0.013 0.252,0.042 0.098,0.042 0.158,0.108 0.179,0.199 0.021,0.091 0.021,0.189 0,0.294 -0.021,0.105 -0.053,0.207 -0.095,0.305 -0.042,0.097 -0.077,0.181 -0.105,0.252"
       style="fill:#f08c65;fill-opacity:1;fill-rule:nonzero;stroke:none"
       transform="matrix(1.3333333,0,0,-1.3333333,7469.5179,180.26853)"
       clip-path="url(#clipPath1046)" />
    <path
       id="path1047"
       d="M 0,0 C -0.056,0.098 -0.175,0.175 -0.357,0.231 -0.441,0.259 -0.535,0.27 -0.64,0.263 -0.745,0.256 -0.847,0.252 -0.945,0.252 h -1.176 -3.78 -1.071 c -0.112,0 -0.224,0.004 -0.336,0.011 -0.112,0.007 -0.203,0.024 -0.273,0.052 -0.112,0.07 -0.189,0.154 -0.231,0.252 -0.042,0.112 -0.063,0.259 -0.063,0.441 v 0.504 1.932 6.742 2.205 0.566 c 0,0.182 -0.042,0.329 -0.126,0.441 -0.042,0.056 -0.112,0.098 -0.21,0.126 -0.098,0.028 -0.206,0.045 -0.325,0.053 -0.119,0.007 -0.242,0.007 -0.368,0 -0.126,-0.008 -0.238,-0.011 -0.336,-0.011 -0.028,-0.014 -0.059,-0.017 -0.094,-0.01 -0.036,0.007 -0.067,0.003 -0.095,-0.011 -0.154,-0.056 -0.259,-0.126 -0.315,-0.21 -0.042,-0.07 -0.067,-0.168 -0.073,-0.294 -0.008,-0.126 -0.011,-0.252 -0.011,-0.378 V 11.361 6.804 1.071 -0.44 -0.829 c 0,-0.133 0.028,-0.242 0.084,-0.326 0.07,-0.112 0.175,-0.178 0.315,-0.199 0.14,-0.021 0.308,-0.032 0.504,-0.032 h 1.365 5.313 1.386 0.389 c 0.133,0 0.234,0.028 0.304,0.084 0.098,0.056 0.161,0.133 0.189,0.231 0.014,0.056 0.028,0.136 0.042,0.242 0.014,0.105 0.018,0.21 0.011,0.315 C 0.066,-0.409 0.056,-0.308 0.042,-0.21 0.028,-0.112 0.014,-0.042 0,0"
       style="fill:#f08c65;fill-opacity:1;fill-rule:nonzero;stroke:none"
       transform="matrix(1.3333333,0,0,-1.3333333,7490.1676,186.9612)"
       clip-path="url(#clipPath1048)" />
    <path
       id="path1049"
       d="M 0,0 C -0.028,0.14 -0.056,0.273 -0.084,0.399 -0.112,0.525 -0.154,0.651 -0.21,0.777 -0.364,1.126 -0.564,1.431 -0.809,1.69 -1.054,1.949 -1.33,2.177 -1.638,2.373 -1.876,2.527 -2.128,2.66 -2.394,2.772 -2.66,2.884 -2.933,2.989 -3.213,3.087 -3.339,3.129 -3.465,3.167 -3.591,3.203 -3.717,3.237 -3.843,3.269 -3.969,3.297 -4.025,3.311 -4.074,3.321 -4.116,3.329 -4.158,3.335 -4.208,3.346 -4.263,3.36 -4.459,3.43 -4.666,3.482 -4.883,3.517 -5.1,3.552 -5.306,3.598 -5.502,3.654 -5.628,3.696 -5.754,3.724 -5.88,3.738 -6.006,3.751 -6.132,3.773 -6.258,3.801 -6.664,3.913 -7.056,4.018 -7.434,4.116 -7.812,4.213 -8.155,4.361 -8.463,4.557 -8.729,4.711 -8.936,4.872 -9.083,5.04 -9.229,5.208 -9.352,5.453 -9.45,5.775 -9.479,5.873 -9.496,5.992 -9.502,6.132 -9.51,6.272 -9.5,6.398 -9.471,6.51 c 0.028,0.14 0.053,0.269 0.074,0.388 0.021,0.119 0.059,0.235 0.115,0.347 0.112,0.28 0.28,0.514 0.504,0.704 0.224,0.188 0.476,0.339 0.756,0.451 0.49,0.224 1.099,0.336 1.827,0.336 h 0.336 c 0.112,0 0.224,-0.014 0.336,-0.042 h 0.168 c 0.084,-0.028 0.168,-0.046 0.252,-0.053 0.084,-0.007 0.168,-0.024 0.252,-0.052 0.448,-0.112 0.833,-0.28 1.155,-0.504 0.434,-0.28 0.77,-0.7 1.008,-1.26 0.07,-0.14 0.122,-0.301 0.157,-0.483 0.035,-0.182 0.095,-0.336 0.179,-0.462 0.028,-0.028 0.056,-0.052 0.084,-0.074 0.028,-0.02 0.056,-0.038 0.084,-0.052 0.056,-0.028 0.108,-0.042 0.158,-0.042 0.048,0 0.108,-0.007 0.178,-0.021 C -1.792,5.677 -1.736,5.67 -1.68,5.67 h 0.189 c 0.168,0 0.329,0.007 0.483,0.021 0.154,0.014 0.266,0.07 0.336,0.168 0.042,0.07 0.066,0.171 0.073,0.305 C -0.592,6.296 -0.602,6.418 -0.63,6.531 -0.7,6.796 -0.77,7.052 -0.84,7.297 -0.91,7.542 -1.008,7.763 -1.134,7.959 -1.176,8.029 -1.215,8.102 -1.25,8.179 -1.285,8.256 -1.33,8.33 -1.386,8.4 -1.442,8.47 -1.498,8.54 -1.554,8.61 -1.61,8.68 -1.667,8.75 -1.722,8.82 -1.75,8.862 -1.785,8.9 -1.827,8.936 -1.869,8.97 -1.904,9.001 -1.932,9.03 -1.96,9.058 -1.988,9.083 -2.016,9.104 -2.044,9.125 -2.072,9.149 -2.1,9.177 -2.17,9.247 -2.244,9.303 -2.321,9.345 -2.397,9.387 -2.478,9.436 -2.562,9.492 -3.038,9.8 -3.584,10.031 -4.2,10.185 c -0.616,0.154 -1.323,0.217 -2.121,0.189 -0.028,-0.028 -0.084,-0.035 -0.168,-0.021 -0.084,0.014 -0.147,0.014 -0.189,0 -0.113,-0.028 -0.235,-0.042 -0.367,-0.042 -0.134,0 -0.256,-0.014 -0.368,-0.042 C -7.525,10.241 -7.63,10.216 -7.728,10.196 -7.826,10.174 -7.931,10.15 -8.043,10.122 -8.449,10.01 -8.806,9.876 -9.114,9.723 -9.142,9.695 -9.177,9.677 -9.219,9.67 -9.261,9.664 -9.296,9.646 -9.324,9.618 -9.702,9.379 -10.045,9.117 -10.353,8.831 -10.661,8.543 -10.913,8.19 -11.109,7.77 c -0.056,-0.126 -0.102,-0.259 -0.137,-0.399 -0.035,-0.14 -0.073,-0.288 -0.115,-0.441 -0.042,-0.14 -0.077,-0.34 -0.105,-0.598 -0.028,-0.26 -0.021,-0.473 0.021,-0.641 0,-0.042 0.003,-0.084 0.01,-0.126 0.007,-0.042 0.011,-0.091 0.011,-0.147 0.042,-0.154 0.077,-0.304 0.105,-0.452 0.028,-0.147 0.077,-0.283 0.147,-0.409 0.154,-0.364 0.364,-0.661 0.63,-0.892 0.266,-0.232 0.56,-0.445 0.882,-0.641 0.126,-0.084 0.259,-0.154 0.399,-0.21 0.14,-0.056 0.28,-0.112 0.42,-0.168 0.028,-0.014 0.049,-0.021 0.063,-0.021 0.014,0 0.035,-0.007 0.063,-0.021 0.196,-0.084 0.406,-0.15 0.63,-0.199 0.224,-0.05 0.448,-0.109 0.672,-0.179 0.392,-0.112 0.798,-0.21 1.218,-0.294 0.42,-0.084 0.829,-0.172 1.228,-0.263 0.4,-0.091 0.78,-0.199 1.145,-0.325 0.364,-0.126 0.693,-0.294 0.987,-0.504 0.196,-0.14 0.364,-0.291 0.504,-0.452 0.14,-0.161 0.252,-0.36 0.336,-0.598 0.028,-0.056 0.042,-0.109 0.042,-0.158 0,-0.049 0.014,-0.108 0.042,-0.178 0.028,-0.098 0.042,-0.224 0.042,-0.378 0,-0.155 -0.014,-0.287 -0.042,-0.399 C -1.939,-1.435 -1.967,-1.547 -1.995,-1.659 -2.023,-1.771 -2.058,-1.883 -2.1,-1.995 -2.254,-2.345 -2.475,-2.622 -2.762,-2.825 -3.049,-3.028 -3.374,-3.206 -3.738,-3.36 -3.85,-3.402 -3.969,-3.434 -4.095,-3.455 -4.221,-3.476 -4.34,-3.5 -4.452,-3.528 -4.508,-3.556 -4.554,-3.567 -4.588,-3.56 c -0.036,0.007 -0.074,0.004 -0.116,-0.01 -0.07,-0.014 -0.14,-0.021 -0.21,-0.021 -0.07,0 -0.14,-0.007 -0.21,-0.021 h -0.147 c -0.07,-0.028 -0.158,-0.042 -0.263,-0.042 -0.105,0 -0.185,0.007 -0.241,0.021 -0.07,0.028 -0.144,0.035 -0.221,0.021 -0.077,-0.014 -0.143,-0.014 -0.199,0 -0.042,0 -0.084,0.003 -0.126,0.01 -0.042,0.007 -0.077,0.011 -0.105,0.011 -0.112,0.013 -0.224,0.028 -0.336,0.042 -0.113,0.013 -0.224,0.035 -0.336,0.063 -0.322,0.098 -0.623,0.203 -0.903,0.315 -0.28,0.112 -0.539,0.259 -0.777,0.441 -0.476,0.35 -0.833,0.826 -1.071,1.428 -0.042,0.097 -0.073,0.196 -0.094,0.294 -0.021,0.097 -0.046,0.196 -0.074,0.294 -0.028,0.084 -0.046,0.165 -0.052,0.241 -0.008,0.077 -0.032,0.151 -0.074,0.221 -0.028,0.056 -0.091,0.112 -0.189,0.168 -0.056,0.028 -0.105,0.039 -0.147,0.032 -0.042,-0.008 -0.098,-0.004 -0.168,0.01 -0.042,0.014 -0.095,0.021 -0.158,0.021 h -0.178 c -0.154,0 -0.312,-0.007 -0.473,-0.021 -0.161,-0.014 -0.276,-0.07 -0.346,-0.168 -0.07,-0.07 -0.105,-0.186 -0.105,-0.347 0,-0.161 0.014,-0.304 0.042,-0.43 0.028,-0.07 0.045,-0.147 0.052,-0.231 0.007,-0.084 0.025,-0.168 0.053,-0.252 0.07,-0.224 0.143,-0.434 0.22,-0.63 0.077,-0.196 0.172,-0.385 0.284,-0.567 0.336,-0.56 0.738,-1.015 1.208,-1.365 0.468,-0.35 1.046,-0.637 1.732,-0.861 0.14,-0.056 0.276,-0.098 0.409,-0.126 0.134,-0.028 0.277,-0.056 0.431,-0.084 0.07,-0.014 0.133,-0.024 0.189,-0.031 0.056,-0.007 0.112,-0.018 0.168,-0.032 0.126,-0.028 0.259,-0.042 0.399,-0.042 0.14,0 0.28,-0.014 0.42,-0.042 h 0.231 c 0.07,-0.014 0.171,-0.021 0.304,-0.021 0.133,0 0.235,0.007 0.305,0.021 0.084,0 0.168,0.003 0.252,0.01 0.084,0.008 0.168,0.011 0.252,0.011 0.07,0.014 0.144,0.021 0.221,0.021 0.076,0 0.15,0.007 0.22,0.021 0.168,0.042 0.336,0.073 0.504,0.095 0.168,0.02 0.329,0.059 0.483,0.115 0.154,0.042 0.297,0.084 0.43,0.126 0.133,0.042 0.27,0.091 0.41,0.147 0.42,0.196 0.812,0.42 1.176,0.672 0.364,0.252 0.665,0.56 0.903,0.924 0.126,0.168 0.231,0.35 0.315,0.546 0.084,0.196 0.161,0.399 0.231,0.609 0.042,0.112 0.066,0.227 0.073,0.347 0.007,0.118 0.025,0.233 0.053,0.346 v 0.168 c 0,0.055 0.007,0.112 0.021,0.168 v 0.189 0.231 C 0.056,-0.42 0.042,-0.333 0.042,-0.242 0.042,-0.151 0.028,-0.07 0,0"
       style="fill:#f08c65;fill-opacity:1;fill-rule:nonzero;stroke:none"
       transform="matrix(1.3333333,0,0,-1.3333333,7506.7157,182.2848)"
       clip-path="url(#clipPath1050)" />
    <path
       id="path1051"
       d="m 0,0 v 50.219 c 0,0.276 -0.224,0.5 -0.5,0.5 -0.276,0 -0.5,-0.224 -0.5,-0.5 V 0 c 0,-0.276 0.224,-0.5 0.5,-0.5 0.276,0 0.5,0.224 0.5,0.5"
       style="fill:#f08c65;fill-opacity:1;fill-rule:nonzero;stroke:none"
       transform="matrix(1.3333333,0,0,-1.3333333,7389.5179,114.90133)"
       clip-path="url(#clipPath1052)" />
    <path
       id="path1053"
       d="m 0,0 c 0,-0.276 0.224,-0.5 0.5,-0.5 h 48.078 c 0.276,0 0.5,0.224 0.5,0.5 0,0.276 -0.224,0.5 -0.5,0.5 H 0.5 C 0.224,0.5 0,0.276 0,0"
       style="fill:#f08c65;fill-opacity:1;fill-rule:nonzero;stroke:none"
       transform="matrix(1.3333333,0,0,-1.3333333,7281.5687,156.02893)"
       clip-path="url(#clipPath1054)" />
    <path
       id="path1055"
       d="m 0,0 c -0.073,-0.266 0.084,-0.541 0.351,-0.613 l 30.963,-8.429 c 0.044,-0.012 0.089,-0.018 0.132,-0.018 0.22,0 0.422,0.147 0.482,0.369 0.073,0.266 -0.084,0.542 -0.351,0.614 L 0.614,0.352 C 0.35,0.424 0.072,0.267 0,0"
       style="fill:#f08c65;fill-opacity:1;fill-rule:nonzero;stroke:none"
       transform="matrix(1.3333333,0,0,-1.3333333,7306.9664,134.39093)"
       clip-path="url(#clipPath1056)" />
    <path
       id="path1057"
       d="m 0,0 c -0.138,-0.239 -0.055,-0.545 0.185,-0.683 l 33.22,-19.069 c 0.079,-0.045 0.164,-0.066 0.249,-0.066 0.173,0 0.342,0.089 0.434,0.251 0.138,0.239 0.055,0.545 -0.185,0.682 L 0.683,0.185 C 0.442,0.322 0.137,0.24 0,0"
       style="fill:#f08c65;fill-opacity:1;fill-rule:nonzero;stroke:none"
       transform="matrix(1.3333333,0,0,-1.3333333,7307.2399,109.37267)"
       clip-path="url(#clipPath1058)" />
    <path
       id="path1059"
       d="m 0,0 c -0.195,-0.196 -0.194,-0.512 0.002,-0.708 l 34.73,-34.564 c 0.097,-0.097 0.225,-0.145 0.352,-0.145 0.129,0 0.257,0.049 0.355,0.147 0.195,0.196 0.194,0.513 -0.002,0.707 L 0.707,0.001 C 0.512,0.196 0.195,0.195 0,0"
       style="fill:#f08c65;fill-opacity:1;fill-rule:nonzero;stroke:none"
       transform="matrix(1.3333333,0,0,-1.3333333,7312.7079,79.783467)"
       clip-path="url(#clipPath1060)" />
    <path
       id="path1061"
       d="m 0,0 c -0.237,-0.141 -0.316,-0.447 -0.175,-0.685 l 20.721,-34.999 c 0.093,-0.158 0.26,-0.246 0.431,-0.246 0.086,0 0.174,0.023 0.254,0.07 0.237,0.141 0.316,0.447 0.175,0.685 l -20.721,35 C 0.545,0.062 0.239,0.141 0,0"
       style="fill:#f08c65;fill-opacity:1;fill-rule:nonzero;stroke:none"
       transform="matrix(1.3333333,0,0,-1.3333333,7340.0075,72.2692)"
       clip-path="url(#clipPath1062)" />
    <path
       id="path1063"
       d="m 0,0 c 0.042,0 0.085,0.005 0.128,0.017 0.268,0.07 0.427,0.344 0.356,0.611 l -8.837,33.408 c -0.071,0.268 -0.344,0.425 -0.611,0.356 C -9.231,34.321 -9.391,34.048 -9.32,33.78 L -0.483,0.372 C -0.424,0.148 -0.221,0 0,0"
       style="fill:#f08c65;fill-opacity:1;fill-rule:nonzero;stroke:none"
       transform="matrix(1.3333333,0,0,-1.3333333,7377.9807,117.2672)"
       clip-path="url(#clipPath1064)" />
    <path
       id="path1065"
       d="m 0,0 c 0,-0.276 0.224,-0.5 0.5,-0.5 h 48.078 c 0.276,0 0.5,0.224 0.5,0.5 0,0.276 -0.224,0.5 -0.5,0.5 H 0.5 C 0.224,0.5 0,0.276 0,0"
       style="fill:#f08c65;fill-opacity:1;fill-rule:nonzero;stroke:none"
       transform="matrix(1.3333333,0,0,-1.3333333,7430.6963,156.02893)"
       clip-path="url(#clipPath1066)" />
    <path
       id="path1067"
       d="m 0,0 -30.963,-8.429 c -0.267,-0.072 -0.424,-0.347 -0.351,-0.613 0.06,-0.223 0.262,-0.369 0.481,-0.369 0.044,0 0.088,0.006 0.132,0.017 l 30.964,8.429 c 0.266,0.072 0.424,0.347 0.351,0.613 C 0.542,-0.085 0.265,0.073 0,0"
       style="fill:#f08c65;fill-opacity:1;fill-rule:nonzero;stroke:none"
       transform="matrix(1.3333333,0,0,-1.3333333,7469.9176,133.92213)"
       clip-path="url(#clipPath1068)" />
    <path
       id="path1069"
       d="m 0,0 -33.221,-19.069 c -0.239,-0.138 -0.322,-0.444 -0.184,-0.683 0.092,-0.161 0.26,-0.251 0.434,-0.251 0.084,0 0.17,0.022 0.248,0.066 L 0.498,-0.867 C 0.737,-0.729 0.82,-0.424 0.683,-0.185 0.545,0.055 0.24,0.138 0,0"
       style="fill:#f08c65;fill-opacity:1;fill-rule:nonzero;stroke:none"
       transform="matrix(1.3333333,0,0,-1.3333333,7469.5524,109.12653)"
       clip-path="url(#clipPath1070)" />
    <path
       id="path1071"
       d="m 0,0 -34.729,-34.564 c -0.196,-0.195 -0.197,-0.512 -0.002,-0.707 0.097,-0.099 0.226,-0.148 0.354,-0.148 0.127,0 0.255,0.049 0.353,0.146 L 0.705,-0.709 c 0.196,0.195 0.197,0.512 0.002,0.708 C 0.512,0.194 0.194,0.195 0,0"
       style="fill:#f08c65;fill-opacity:1;fill-rule:nonzero;stroke:none"
       transform="matrix(1.3333333,0,0,-1.3333333,7464.0517,79.781467)"
       clip-path="url(#clipPath1072)" />
    <path
       id="path1073"
       d="m 0,0 c -0.238,0.141 -0.544,0.062 -0.685,-0.175 l -20.721,-35 c -0.141,-0.238 -0.062,-0.544 0.175,-0.685 0.08,-0.047 0.168,-0.07 0.254,-0.07 0.171,0 0.338,0.088 0.431,0.246 L 0.175,-0.685 C 0.316,-0.447 0.237,-0.141 0,0"
       style="fill:#f08c65;fill-opacity:1;fill-rule:nonzero;stroke:none"
       transform="matrix(1.3333333,0,0,-1.3333333,7437.6949,72.2692)"
       clip-path="url(#clipPath1074)" />
    <path
       id="path1075"
       d="m 0,0 c -0.266,0.069 -0.541,-0.088 -0.611,-0.355 l -8.838,-33.409 c -0.071,-0.267 0.089,-0.541 0.356,-0.611 0.043,-0.011 0.086,-0.017 0.128,-0.017 0.221,0 0.424,0.148 0.483,0.372 L 0.355,-0.611 C 0.426,-0.344 0.267,-0.07 0,0"
       style="fill:#f08c65;fill-opacity:1;fill-rule:nonzero;stroke:none"
       transform="matrix(1.3333333,0,0,-1.3333333,7411.6747,71.411733)"
       clip-path="url(#clipPath1076)" />
    <path
       id="path1077"
       d="m 0,0 c -3.027,4.421 -6.406,6.805 -8.425,8.229 -0.332,0.235 -0.627,0.442 -0.875,0.628 -5.4,4.071 -5.256,11.435 -5.09,19.961 0.165,8.497 0.337,17.283 -5.158,24.068 -4.996,6.169 -11.217,6.412 -18.421,6.694 -7.691,0.3 -16.408,0.641 -26.993,8.003 -3.142,2.186 -5.549,4.374 -7.673,6.305 -4.243,3.857 -7.596,6.905 -13.414,6.905 h -0.042 c -5.586,-0.014 -8.678,-2.841 -12.592,-6.419 -2.332,-2.131 -4.975,-4.547 -8.776,-6.996 -9.751,-6.28 -17.641,-6.682 -24.602,-7.036 -6.848,-0.349 -12.762,-0.651 -17.725,-6.604 -3.727,-4.471 -4.312,-10.787 -4.93,-17.474 -0.818,-8.836 -1.663,-17.973 -10.035,-23.139 -12.908,-7.965 -12.116,-15.698 -11.539,-21.345 0.103,-1.004 0.201,-1.952 0.201,-2.787 0,-1.04 0.843,-1.884 1.883,-1.884 1.04,0 1.883,0.844 1.883,1.884 0,1.028 -0.106,2.069 -0.219,3.17 -0.529,5.171 -1.129,11.032 9.77,17.756 9.97,6.153 10.946,16.696 11.807,25.998 0.563,6.087 1.095,11.837 4.072,15.409 3.908,4.687 8.571,4.925 15.024,5.253 7.063,0.36 15.854,0.808 26.45,7.632 4.068,2.621 6.957,5.261 9.277,7.383 3.699,3.381 5.932,5.422 10.061,5.431 h 0.03 c 4.363,0 6.958,-2.358 10.882,-5.924 2.209,-2.009 4.713,-4.285 8.056,-6.61 11.488,-7.992 21.196,-8.371 28.997,-8.676 6.804,-0.265 11.719,-0.458 15.64,-5.299 4.63,-5.717 4.472,-13.804 4.32,-21.624 -0.171,-8.758 -0.348,-17.815 6.589,-23.042 0.275,-0.208 0.601,-0.439 0.97,-0.699 1.93,-1.361 4.845,-3.418 7.489,-7.279 0.75,-1.096 1.416,-1.882 2.004,-2.575 1.541,-1.818 2.245,-2.647 2.245,-7.326 0,-1.04 0.843,-1.884 1.883,-1.884 1.04,0 1.884,0.844 1.884,1.884 0,5.78 -1.135,7.399 -3.139,9.763 C 1.214,-1.612 0.64,-0.936 0,0"
       style="fill:#f08c65;fill-opacity:1;fill-rule:nonzero;stroke:none"
       transform="matrix(1.3333333,0,0,-1.3333333,7503.2815,141.6448)"
       clip-path="url(#clipPath1078)" />
    <path
       id="path1079"
       d="m 0,0 c 0,12.925 -10.515,23.44 -23.44,23.44 -12.925,0 -23.44,-10.515 -23.44,-23.44 0,-1.104 0.896,-2 2,-2 1.105,0 2,0.896 2,2 0,10.72 8.721,19.44 19.44,19.44 C -12.721,19.44 -4,10.72 -4,0 c 0,-1.104 0.896,-2 2,-2 1.104,0 2,0.896 2,2"
       style="fill:#f08c65;fill-opacity:1;fill-rule:nonzero;stroke:none"
       transform="matrix(1.3333333,0,0,-1.3333333,7420.1012,156.2516)"
       clip-path="url(#clipPath1080)" />
    <path
       id="path1081"
       d="m 0,0 c -0.001,-0.033 -0.005,-0.064 -0.01,-0.092 0,-0.012 -10e-4,-0.022 -0.003,-0.032 -0.001,-0.01 -0.002,-0.02 -0.002,-0.028 -0.014,-0.058 -0.027,-0.114 -0.039,-0.168 -0.011,-0.054 -0.029,-0.106 -0.051,-0.155 -0.063,-0.146 -0.141,-0.271 -0.234,-0.375 -0.093,-0.105 -0.204,-0.198 -0.333,-0.278 -0.032,-0.02 -0.066,-0.037 -0.103,-0.051 -0.038,-0.015 -0.073,-0.029 -0.108,-0.043 -0.04,-0.017 -0.081,-0.029 -0.122,-0.035 -0.042,-0.005 -0.085,-0.014 -0.131,-0.025 l -0.103,-0.013 h -0.056 c -0.015,-0.003 -0.037,-0.004 -0.067,-0.002 -0.03,10e-4 -0.052,0.003 -0.067,0.006 h -0.025 c -0.02,0.006 -0.04,0.009 -0.058,0.011 -0.019,0.001 -0.04,0.003 -0.063,0.006 -0.022,0.006 -0.046,0.012 -0.07,0.017 -0.025,0.006 -0.049,0.012 -0.071,0.018 -0.026,0.008 -0.052,0.017 -0.078,0.028 -0.025,0.01 -0.05,0.02 -0.073,0.032 -0.154,0.066 -0.287,0.156 -0.399,0.271 -0.112,0.114 -0.201,0.249 -0.267,0.403 -0.014,0.029 -0.025,0.058 -0.034,0.088 -0.008,0.03 -0.019,0.061 -0.03,0.093 -0.003,0.009 -0.005,0.018 -0.006,0.028 -0.002,0.01 -0.004,0.019 -0.007,0.027 -0.009,0.032 -0.014,0.064 -0.017,0.097 -0.003,0.033 -0.009,0.066 -0.017,0.097 v 0.043 c 0,0.015 -0.002,0.028 -0.005,0.043 -0.003,0.014 -0.004,0.039 -0.004,0.075 0,0.036 10e-4,0.061 0.004,0.076 v 0.034 c 0.003,0.02 0.005,0.038 0.007,0.056 10e-4,0.017 0.004,0.035 0.006,0.055 0.014,0.049 0.025,0.097 0.033,0.144 0.007,0.048 0.019,0.093 0.036,0.136 0.078,0.186 0.176,0.342 0.294,0.468 0.119,0.126 0.27,0.227 0.454,0.305 0.043,0.017 0.086,0.03 0.131,0.039 0.044,0.008 0.091,0.02 0.139,0.034 l 0.116,0.013 c 0.006,0.003 0.012,0.004 0.02,0.002 0.007,-10e-4 0.013,-10e-4 0.019,0.002 0.028,0 0.059,0.001 0.092,0.002 0.033,0.002 0.063,0 0.088,-0.006 0.006,0 0.013,-10e-4 0.022,-0.002 0.008,-0.002 0.016,-0.002 0.021,-0.002 0.018,-0.003 0.035,-0.005 0.054,-0.007 0.018,-0.002 0.037,-0.005 0.054,-0.011 0.04,-0.008 0.078,-0.017 0.113,-0.025 0.036,-0.009 0.072,-0.02 0.106,-0.035 0.175,-0.071 0.325,-0.172 0.451,-0.3 0.017,-0.015 0.034,-0.031 0.052,-0.05 0.017,-0.019 0.033,-0.038 0.047,-0.058 0.025,-0.032 0.05,-0.065 0.073,-0.101 C -0.198,0.82 -0.176,0.783 -0.152,0.745 -0.138,0.723 -0.127,0.699 -0.12,0.675 -0.113,0.65 -0.104,0.625 -0.092,0.599 -0.064,0.531 -0.041,0.455 -0.024,0.372 -0.006,0.289 0.002,0.199 0.002,0.101 0.002,0.067 0.001,0.033 0,0 M 0.286,0.131 V 0.183 C 0.283,0.203 0.281,0.222 0.279,0.238 0.278,0.256 0.276,0.274 0.273,0.294 0.27,0.317 0.267,0.34 0.264,0.361 0.262,0.382 0.257,0.405 0.251,0.428 0.237,0.473 0.225,0.518 0.215,0.561 0.205,0.604 0.191,0.645 0.174,0.685 0.151,0.743 0.125,0.797 0.096,0.849 0.068,0.9 0.036,0.95 0.002,0.999 -0.012,1.019 -0.027,1.037 -0.041,1.053 -0.055,1.068 -0.069,1.087 -0.084,1.106 -0.118,1.155 -0.157,1.197 -0.2,1.231 -0.206,1.237 -0.21,1.242 -0.215,1.246 -0.219,1.25 -0.224,1.255 -0.23,1.261 -0.244,1.273 -0.258,1.284 -0.271,1.296 -0.283,1.307 -0.297,1.318 -0.311,1.33 -0.337,1.35 -0.364,1.369 -0.391,1.388 -0.418,1.407 -0.446,1.426 -0.475,1.446 -0.486,1.452 -0.498,1.457 -0.509,1.463 -0.52,1.469 -0.532,1.475 -0.543,1.48 c -0.026,0.017 -0.053,0.032 -0.082,0.043 -0.029,0.012 -0.059,0.024 -0.09,0.039 -0.092,0.04 -0.191,0.07 -0.299,0.09 -0.107,0.02 -0.227,0.029 -0.359,0.026 -0.005,-0.003 -0.012,-0.003 -0.021,0 -0.009,0.003 -0.016,0.003 -0.021,0 C -1.438,1.675 -1.463,1.673 -1.489,1.671 -1.515,1.67 -1.539,1.668 -1.561,1.665 -1.579,1.659 -1.597,1.656 -1.617,1.654 -1.638,1.653 -1.656,1.649 -1.673,1.643 -1.71,1.632 -1.748,1.622 -1.785,1.613 -1.822,1.605 -1.858,1.594 -1.892,1.579 -2.116,1.487 -2.305,1.367 -2.459,1.218 -2.614,1.069 -2.738,0.883 -2.829,0.66 -2.852,0.611 -2.869,0.559 -2.881,0.505 -2.892,0.45 -2.905,0.395 -2.919,0.337 -2.922,0.315 -2.924,0.293 -2.926,0.273 -2.927,0.253 -2.929,0.233 -2.932,0.213 V 0.183 C -2.938,0.166 -2.941,0.141 -2.941,0.108 c 0,-0.033 0.003,-0.058 0.009,-0.076 v -0.038 c 0,-0.015 10e-4,-0.029 0.002,-0.043 0.001,-0.015 0.002,-0.029 0.002,-0.043 0.006,-0.014 0.008,-0.03 0.006,-0.045 -10e-4,-0.016 0.001,-0.031 0.007,-0.046 0.006,-0.023 0.011,-0.046 0.015,-0.07 0.004,-0.025 0.009,-0.048 0.015,-0.071 0.015,-0.04 0.026,-0.077 0.034,-0.112 0.009,-0.034 0.02,-0.07 0.035,-0.107 0.083,-0.189 0.192,-0.354 0.327,-0.494 0.134,-0.141 0.296,-0.252 0.485,-0.336 0.02,-0.008 0.04,-0.016 0.062,-0.025 0.022,-0.009 0.042,-0.017 0.062,-0.026 0.032,-0.014 0.063,-0.025 0.093,-0.032 0.03,-0.008 0.061,-0.015 0.092,-0.024 0.023,-0.006 0.048,-0.01 0.073,-0.013 0.026,-0.003 0.05,-0.007 0.073,-0.013 0.009,0 0.018,0 0.026,-0.002 0.008,-10e-4 0.019,-0.002 0.03,-0.002 0.012,-0.003 0.024,-0.004 0.036,-0.004 0.014,0 0.026,-0.002 0.037,-0.004 h 0.047 c 0.009,-0.004 0.026,-0.006 0.052,-0.007 0.026,-0.002 0.043,-0.001 0.051,0.002 l 0.142,0.013 c 0.015,0.003 0.029,0.004 0.043,0.004 0.014,0 0.029,0.003 0.043,0.009 0.037,0.009 0.074,0.016 0.11,0.022 0.036,0.005 0.071,0.015 0.105,0.03 0.229,0.074 0.427,0.186 0.593,0.335 0.166,0.148 0.295,0.328 0.386,0.537 0.024,0.049 0.042,0.098 0.056,0.15 0.015,0.052 0.029,0.104 0.043,0.159 l 0.026,0.155 c 0.003,0.014 0.004,0.03 0.004,0.047 0,0.017 0.002,0.033 0.005,0.047 V 0.037 C 0.289,0.051 0.29,0.067 0.29,0.086 0.29,0.105 0.289,0.12 0.286,0.131"
       style="fill:#f08c65;fill-opacity:1;fill-rule:nonzero;stroke:none"
       transform="matrix(1.3333333,0,0,-1.3333333,7513.7755,170.9388)"
       clip-path="url(#clipPath1082)" />
    <path
       id="path1083"
       d="m 0,0 c -0.008,-0.043 -0.026,-0.081 -0.051,-0.116 -0.02,-0.029 -0.048,-0.051 -0.082,-0.067 -0.034,-0.015 -0.073,-0.027 -0.116,-0.036 -0.043,-0.009 -0.089,-0.014 -0.14,-0.015 -0.05,-0.002 -0.099,-0.002 -0.148,-0.002 -0.046,0 -0.091,0 -0.135,0.002 -0.045,0.001 -0.077,0.017 -0.097,0.045 -0.02,0.026 -0.03,0.069 -0.028,0.131 0.002,0.061 0.002,0.115 0.002,0.161 0,0.017 0,0.036 -0.002,0.056 -0.002,0.02 0.001,0.037 0.006,0.051 v 0.048 c 0.004,0.011 0.006,0.023 0.007,0.034 0.002,0.011 0.005,0.022 0.011,0.03 0.011,0.02 0.031,0.035 0.06,0.043 0.005,0 0.012,0.001 0.019,0.002 0.007,0.002 0.014,0.003 0.02,0.003 h 0.208 c 0.07,0 0.135,-0.005 0.193,-0.013 0.059,-0.009 0.11,-0.025 0.155,-0.048 C -0.074,0.287 -0.04,0.251 -0.017,0.202 -0.006,0.179 0.003,0.148 0.009,0.11 0.014,0.071 0.012,0.034 0,0 M 0.189,0.417 C 0.169,0.443 0.141,0.466 0.103,0.486 0.026,0.543 -0.063,0.576 -0.163,0.585 -0.264,0.593 -0.381,0.597 -0.515,0.597 H -0.971 C -0.977,0.597 -0.982,0.596 -0.988,0.595 -0.994,0.594 -1,0.593 -1.005,0.593 -1.031,0.585 -1.05,0.57 -1.061,0.55 -1.073,0.536 -1.078,0.516 -1.078,0.49 V 0.417 -1.027 c 0,-0.02 -10e-4,-0.04 -0.002,-0.062 -0.002,-0.021 -10e-4,-0.04 0.002,-0.054 v -0.025 c 0.005,-0.015 0.01,-0.029 0.013,-0.043 0.002,-0.015 0.01,-0.026 0.021,-0.035 0.014,-0.011 0.034,-0.018 0.058,-0.021 0.025,-0.003 0.049,-0.004 0.073,-0.002 0.024,10e-4 0.047,0.007 0.067,0.017 0.019,0.01 0.033,0.022 0.038,0.036 0.012,0.023 0.017,0.05 0.015,0.08 -0.001,0.03 -0.002,0.061 -0.002,0.092 v 0.348 c 0,0.037 0.001,0.073 0.002,0.108 0.002,0.034 0.01,0.063 0.024,0.085 0.012,0.015 0.026,0.023 0.043,0.026 0.017,0.003 0.037,0.007 0.06,0.013 h 0.039 c 0.026,0 0.051,-0.001 0.075,-0.002 0.024,-0.001 0.045,-0.008 0.063,-0.019 0.034,-0.023 0.061,-0.053 0.081,-0.088 0.02,-0.036 0.042,-0.071 0.064,-0.106 l 0.271,-0.425 c 0.017,-0.023 0.034,-0.049 0.049,-0.077 0.016,-0.029 0.037,-0.05 0.063,-0.065 0.011,-0.008 0.023,-0.013 0.037,-0.013 0.012,0 0.026,-0.002 0.04,-0.008 0.029,-0.006 0.055,-0.006 0.077,0 0.015,0.003 0.026,0.004 0.035,0.004 0.008,0 0.018,0.003 0.03,0.009 0.02,0.02 0.024,0.045 0.013,0.077 -0.009,0.023 -0.02,0.044 -0.033,0.064 -0.012,0.02 -0.026,0.04 -0.04,0.061 l -0.258,0.399 c -0.011,0.02 -0.023,0.038 -0.034,0.054 -0.012,0.015 -0.023,0.035 -0.035,0.058 -0.002,0.005 -0.006,0.013 -0.008,0.021 -0.003,0.009 -0.005,0.017 -0.005,0.026 0.003,0.02 0.013,0.037 0.03,0.049 0.018,0.014 0.036,0.024 0.056,0.032 0.02,0.01 0.041,0.017 0.062,0.024 0.022,0.007 0.042,0.016 0.058,0.024 0.049,0.031 0.091,0.067 0.127,0.107 0.036,0.041 0.064,0.092 0.084,0.155 0.006,0.02 0.012,0.051 0.019,0.093 0.007,0.041 0.008,0.074 0.002,0.1 V 0.129 L 0.284,0.206 C 0.264,0.287 0.232,0.357 0.189,0.417"
       style="fill:#f08c65;fill-opacity:1;fill-rule:nonzero;stroke:none"
       transform="matrix(1.3333333,0,0,-1.3333333,7512.6212,170.38587)"
       clip-path="url(#clipPath1084)" />
  </g>
  <g
     id="layer-MC1"
     inkscape:groupmode="layer"
     inkscape:label="Logo"
     transform="translate(-7233.9559)" />
</svg>
