<?xml version="1.0" encoding="UTF-8" standalone="no"?>
<!-- Created with Inkscape (http://www.inkscape.org/) -->

<svg
   version="1.1"
   id="svg1"
   width="325.18268"
   height="199.29066"
   viewBox="0 0 325.18269 199.29066"
   sodipodi:docname="Healthy_Rituals_Logo_Suite (2).ai"
   xmlns:inkscape="http://www.inkscape.org/namespaces/inkscape"
   xmlns:sodipodi="http://sodipodi.sourceforge.net/DTD/sodipodi-0.dtd"
   xmlns="http://www.w3.org/2000/svg"
   xmlns:svg="http://www.w3.org/2000/svg">
  <defs
     id="defs1">
    <clipPath
       clipPathUnits="userSpaceOnUse"
       id="clipPath498">
      <path
         d="M 0,149.468 H 243.887 V 0 H 0 Z"
         transform="translate(-120.81093,-58.810701)"
         id="path498" />
    </clipPath>
    <clipPath
       clipPathUnits="userSpaceOnUse"
       id="clipPath500">
      <path
         d="M 0,149.468 H 243.887 V 0 H 0 Z"
         transform="translate(-88.427127,-28.465003)"
         id="path500" />
    </clipPath>
    <clipPath
       clipPathUnits="userSpaceOnUse"
       id="clipPath502">
      <path
         d="M 0,149.468 H 243.887 V 0 H 0 Z"
         transform="translate(-90.474477,-36.116301)"
         id="path502" />
    </clipPath>
    <clipPath
       clipPathUnits="userSpaceOnUse"
       id="clipPath504">
      <path
         d="M 0,149.468 H 243.887 V 0 H 0 Z"
         transform="translate(-93.005727,-44.072399)"
         id="path504" />
    </clipPath>
    <clipPath
       clipPathUnits="userSpaceOnUse"
       id="clipPath506">
      <path
         d="M 0,149.468 H 243.887 V 0 H 0 Z"
         transform="translate(-63.203502,-85.148602)"
         id="path506" />
    </clipPath>
    <clipPath
       clipPathUnits="userSpaceOnUse"
       id="clipPath508">
      <path
         d="M 0,149.468 H 243.887 V 0 H 0 Z"
         transform="translate(-83.678127,-90.784802)"
         id="path508" />
    </clipPath>
    <clipPath
       clipPathUnits="userSpaceOnUse"
       id="clipPath510">
      <path
         d="M 0,149.468 H 243.887 V 0 H 0 Z"
         transform="translate(-112.1581,-57.036299)"
         id="path510" />
    </clipPath>
    <clipPath
       clipPathUnits="userSpaceOnUse"
       id="clipPath512">
      <path
         d="M 0,149.468 H 243.887 V 0 H 0 Z"
         transform="translate(-200.27283,-28.465003)"
         id="path512" />
    </clipPath>
    <clipPath
       clipPathUnits="userSpaceOnUse"
       id="clipPath514">
      <path
         d="M 0,149.468 H 243.887 V 0 H 0 Z"
         transform="translate(-181.7245,-44.193501)"
         id="path514" />
    </clipPath>
    <clipPath
       clipPathUnits="userSpaceOnUse"
       id="clipPath516">
      <path
         d="M 0,149.468 H 243.887 V 0 H 0 Z"
         transform="translate(-181.51938,-62.957204)"
         id="path516" />
    </clipPath>
    <clipPath
       clipPathUnits="userSpaceOnUse"
       id="clipPath518">
      <path
         d="M 0,149.468 H 243.887 V 0 H 0 Z"
         transform="translate(-141.97938,-49.879004)"
         id="path518" />
    </clipPath>
    <clipPath
       clipPathUnits="userSpaceOnUse"
       id="clipPath520">
      <path
         d="M 0,149.468 H 243.887 V 0 H 0 Z"
         transform="translate(-156.94368,-90.784802)"
         id="path520" />
    </clipPath>
    <clipPath
       clipPathUnits="userSpaceOnUse"
       id="clipPath522">
      <path
         d="M 0,149.468 H 243.887 V 0 H 0 Z"
         transform="translate(-137.42808,-91.427902)"
         id="path522" />
    </clipPath>
    <clipPath
       clipPathUnits="userSpaceOnUse"
       id="clipPath524">
      <path
         d="M 0,149.468 H 243.887 V 0 H 0 Z"
         transform="translate(-213.57018,-39.440601)"
         id="path524" />
    </clipPath>
    <clipPath
       clipPathUnits="userSpaceOnUse"
       id="clipPath526">
      <path
         d="M 0,149.468 H 243.887 V 0 H 0 Z"
         transform="translate(-120.3085,-51.238401)"
         id="path526" />
    </clipPath>
  </defs>
  <sodipodi:namedview
     id="namedview1"
     pagecolor="#ffffff"
     bordercolor="#000000"
     borderopacity="0.25"
     inkscape:showpageshadow="2"
     inkscape:pageopacity="0.0"
     inkscape:pagecheckerboard="0"
     inkscape:deskcolor="#d1d1d1">
    <inkscape:page
       x="0"
       y="0"
       inkscape:label="11"
       id="page496"
       width="325.18268"
       height="199.29066"
       margin="32.965065 33.428001 32.965332 33.427734"
       bleed="0" />
  </sodipodi:namedview>
  <g
     id="layer-MC0"
     inkscape:groupmode="layer"
     inkscape:label="BG"
     transform="translate(-3444.3865)">
    <path
       id="path497"
       d="m 0,0 v 50.219 c 0,0.276 -0.224,0.5 -0.5,0.5 -0.276,0 -0.5,-0.224 -0.5,-0.5 V 0 c 0,-0.276 0.224,-0.5 0.5,-0.5 0.276,0 0.5,0.224 0.5,0.5"
       style="fill:#465d43;fill-opacity:1;fill-rule:nonzero;stroke:none"
       transform="matrix(1.3333333,0,0,-1.3333333,3605.4679,120.8764)"
       clip-path="url(#clipPath498)" />
    <path
       id="path499"
       d="m 0,0 h -48.078 c -0.276,0 -0.5,-0.224 -0.5,-0.5 0,-0.276 0.224,-0.5 0.5,-0.5 H 0 c 0.276,0 0.5,0.224 0.5,0.5 C 0.5,-0.224 0.276,0 0,0"
       style="fill:#465d43;fill-opacity:1;fill-rule:nonzero;stroke:none"
       transform="matrix(1.3333333,0,0,-1.3333333,3562.2895,161.33733)"
       clip-path="url(#clipPath500)" />
    <path
       id="path501"
       d="m 0,0 -30.963,8.429 c -0.266,0.072 -0.542,-0.085 -0.614,-0.352 -0.073,-0.266 0.084,-0.541 0.351,-0.613 l 30.963,-8.429 c 0.044,-0.012 0.089,-0.017 0.132,-0.017 0.22,0 0.422,0.146 0.482,0.368 C 0.424,-0.348 0.267,-0.072 0,0"
       style="fill:#465d43;fill-opacity:1;fill-rule:nonzero;stroke:none"
       transform="matrix(1.3333333,0,0,-1.3333333,3565.0193,151.1356)"
       clip-path="url(#clipPath502)" />
    <path
       id="path503"
       d="m 0,0 -33.221,19.069 c -0.24,0.139 -0.545,0.056 -0.682,-0.184 -0.138,-0.239 -0.055,-0.545 0.184,-0.683 L -0.498,-0.867 c 0.079,-0.045 0.164,-0.067 0.248,-0.067 0.174,0 0.342,0.09 0.435,0.251 C 0.322,-0.443 0.239,-0.138 0,0"
       style="fill:#465d43;fill-opacity:1;fill-rule:nonzero;stroke:none"
       transform="matrix(1.3333333,0,0,-1.3333333,3568.3943,140.52747)"
       clip-path="url(#clipPath504)" />
    <path
       id="path505"
       d="m 0,0 c -0.195,-0.195 -0.194,-0.512 0.002,-0.707 l 34.729,-34.564 c 0.098,-0.097 0.226,-0.146 0.353,-0.146 0.128,0 0.257,0.049 0.354,0.147 0.195,0.196 0.194,0.513 -0.001,0.707 L 0.707,0.002 C 0.512,0.196 0.195,0.196 0,0"
       style="fill:#465d43;fill-opacity:1;fill-rule:nonzero;stroke:none"
       transform="matrix(1.3333333,0,0,-1.3333333,3528.658,85.7592)"
       clip-path="url(#clipPath506)" />
    <path
       id="path507"
       d="m 0,0 c -0.237,-0.141 -0.316,-0.447 -0.175,-0.685 l 20.721,-35 c 0.093,-0.157 0.26,-0.245 0.431,-0.245 0.086,0 0.174,0.022 0.254,0.07 0.237,0.141 0.316,0.447 0.175,0.685 l -20.721,35 C 0.545,0.062 0.239,0.141 0,0"
       style="fill:#465d43;fill-opacity:1;fill-rule:nonzero;stroke:none"
       transform="matrix(1.3333333,0,0,-1.3333333,3555.9575,78.244267)"
       clip-path="url(#clipPath508)" />
    <path
       id="path509"
       d="m 0,0 c 0.042,0 0.085,0.005 0.128,0.017 0.268,0.07 0.427,0.344 0.356,0.611 l -8.838,33.408 c -0.07,0.268 -0.345,0.426 -0.611,0.356 C -9.232,34.321 -9.391,34.048 -9.32,33.78 L -0.483,0.372 C -0.424,0.148 -0.221,0 0,0"
       style="fill:#465d43;fill-opacity:1;fill-rule:nonzero;stroke:none"
       transform="matrix(1.3333333,0,0,-1.3333333,3593.9308,123.24227)"
       clip-path="url(#clipPath510)" />
    <path
       id="path511"
       d="m 0,0 h -48.078 c -0.276,0 -0.5,-0.224 -0.5,-0.5 0,-0.276 0.224,-0.5 0.5,-0.5 H 0 c 0.276,0 0.5,0.224 0.5,0.5 C 0.5,-0.224 0.276,0 0,0"
       style="fill:#465d43;fill-opacity:1;fill-rule:nonzero;stroke:none"
       transform="matrix(1.3333333,0,0,-1.3333333,3711.4171,161.33733)"
       clip-path="url(#clipPath512)" />
    <path
       id="path513"
       d="m 0,0 c -0.073,0.267 -0.348,0.424 -0.614,0.352 l -30.963,-8.429 c -0.267,-0.072 -0.424,-0.348 -0.351,-0.614 0.06,-0.222 0.262,-0.369 0.482,-0.369 0.043,0 0.088,0.006 0.132,0.018 l 30.963,8.429 C -0.084,-0.541 0.073,-0.266 0,0"
       style="fill:#465d43;fill-opacity:1;fill-rule:nonzero;stroke:none"
       transform="matrix(1.3333333,0,0,-1.3333333,3686.686,140.366)"
       clip-path="url(#clipPath514)" />
    <path
       id="path515"
       d="m 0,0 c -0.137,0.239 -0.443,0.322 -0.683,0.185 l -33.22,-19.07 c -0.24,-0.137 -0.323,-0.443 -0.185,-0.682 0.092,-0.162 0.261,-0.251 0.434,-0.251 0.085,0 0.17,0.021 0.249,0.066 l 33.22,19.069 C 0.055,-0.545 0.138,-0.239 0,0"
       style="fill:#465d43;fill-opacity:1;fill-rule:nonzero;stroke:none"
       transform="matrix(1.3333333,0,0,-1.3333333,3686.4125,115.34773)"
       clip-path="url(#clipPath516)" />
    <path
       id="path517"
       d="m 0,0 c 0.098,-0.098 0.226,-0.147 0.354,-0.147 0.128,0 0.256,0.048 0.353,0.145 l 34.73,34.565 c 0.196,0.194 0.197,0.511 0.002,0.707 -0.195,0.196 -0.512,0.196 -0.707,10e-4 L 0.002,0.707 C -0.194,0.513 -0.195,0.196 0,0"
       style="fill:#465d43;fill-opacity:1;fill-rule:nonzero;stroke:none"
       transform="matrix(1.3333333,0,0,-1.3333333,3633.6925,132.78533)"
       clip-path="url(#clipPath518)" />
    <path
       id="path519"
       d="m 0,0 c -0.238,0.141 -0.544,0.062 -0.685,-0.175 l -20.721,-35 c -0.141,-0.238 -0.062,-0.544 0.175,-0.685 0.08,-0.048 0.168,-0.07 0.254,-0.07 0.171,0 0.338,0.088 0.431,0.245 l 20.721,35 C 0.316,-0.447 0.237,-0.141 0,0"
       style="fill:#465d43;fill-opacity:1;fill-rule:nonzero;stroke:none"
       transform="matrix(1.3333333,0,0,-1.3333333,3653.6449,78.244267)"
       clip-path="url(#clipPath520)" />
    <path
       id="path521"
       d="m 0,0 c -0.267,0.07 -0.541,-0.088 -0.611,-0.355 l -8.837,-33.409 c -0.071,-0.267 0.088,-0.541 0.355,-0.611 0.043,-0.011 0.086,-0.017 0.129,-0.017 0.221,0 0.423,0.148 0.483,0.372 L 0.355,-0.611 C 0.426,-0.344 0.267,-0.07 0,0"
       style="fill:#465d43;fill-opacity:1;fill-rule:nonzero;stroke:none"
       transform="matrix(1.3333333,0,0,-1.3333333,3627.6241,77.3868)"
       clip-path="url(#clipPath522)" />
    <path
       id="path523"
       d="m 0,0 c -3.232,4.668 -6.84,7.185 -8.995,8.688 -0.356,0.249 -0.671,0.467 -0.935,0.665 -5.762,4.293 -5.609,12.063 -5.431,21.06 0.177,8.977 0.36,18.259 -5.513,25.429 -5.331,6.511 -11.969,6.766 -19.655,7.063 -8.217,0.318 -17.53,0.677 -28.838,8.455 -3.355,2.308 -5.925,4.619 -8.194,6.658 -4.527,4.069 -8.106,7.286 -14.308,7.286 h -0.044 c -5.954,-0.015 -9.254,-2.997 -13.43,-6.773 -2.49,-2.251 -5.313,-4.801 -9.372,-7.387 -10.418,-6.635 -18.847,-7.06 -26.284,-7.434 -7.307,-0.368 -13.617,-0.686 -18.913,-6.969 -3.984,-4.725 -4.608,-11.398 -5.269,-18.463 -0.873,-9.325 -1.775,-18.966 -10.711,-24.42 -13.789,-8.413 -12.942,-16.587 -12.325,-22.556 0.11,-1.059 0.213,-2.059 0.213,-2.94 0,-1.104 0.896,-2 2,-2 1.105,0 2,0.896 2,2 0,1.087 -0.114,2.187 -0.234,3.351 -0.564,5.453 -1.204,11.633 10.429,18.731 10.649,6.497 11.691,17.635 12.611,27.461 0.601,6.424 1.168,12.491 4.344,16.258 4.176,4.953 9.159,5.204 16.057,5.552 7.539,0.38 16.921,0.852 28.23,8.055 4.344,2.766 7.428,5.554 9.906,7.794 3.953,3.573 6.338,5.729 10.758,5.74 h 0.032 c 4.67,0 7.444,-2.492 11.637,-6.262 2.358,-2.12 5.031,-4.522 8.601,-6.978 12.262,-8.434 22.624,-8.834 30.95,-9.156 7.271,-0.281 12.524,-0.483 16.715,-5.6 4.938,-6.031 4.77,-14.564 4.608,-22.817 -0.183,-9.254 -0.371,-18.822 7.039,-24.345 0.294,-0.219 0.643,-0.463 1.037,-0.738 2.06,-1.437 5.173,-3.609 7.995,-7.685 0.802,-1.158 1.514,-1.988 2.142,-2.72 1.643,-1.915 2.393,-2.79 2.393,-7.72 0,-1.104 0.895,-2 2,-2 1.104,0 2,0.896 2,2 0,6.113 -1.213,7.825 -3.357,10.324 C 1.296,-1.702 0.684,-0.987 0,0"
       style="fill:#465d43;fill-opacity:1;fill-rule:nonzero;stroke:none"
       transform="matrix(1.3333333,0,0,-1.3333333,3729.1469,146.7032)"
       clip-path="url(#clipPath524)" />
    <path
       id="path525"
       d="m 0,0 c -12.925,0 -23.44,-10.515 -23.44,-23.44 0,-1.105 0.895,-2 2,-2 1.104,0 2,0.895 2,2 0,10.719 8.72,19.44 19.44,19.44 10.719,0 19.44,-8.721 19.44,-19.44 0,-1.105 0.895,-2 2,-2 1.104,0 2,0.895 2,2 C 23.44,-10.515 12.925,0 0,0"
       style="fill:#465d43;fill-opacity:1;fill-rule:nonzero;stroke:none"
       transform="matrix(1.3333333,0,0,-1.3333333,3604.798,130.9728)"
       clip-path="url(#clipPath526)" />
  </g>
  <g
     id="layer-MC1"
     inkscape:groupmode="layer"
     inkscape:label="Logo"
     transform="translate(-3444.3865)" />
</svg>
