<?xml version="1.0" encoding="UTF-8" standalone="no"?>
<!-- Created with Inkscape (http://www.inkscape.org/) -->

<svg
   version="1.1"
   id="svg1"
   width="249.90799"
   height="234.25467"
   viewBox="0 0 249.908 234.25466"
   sodipodi:docname="Healthy_Rituals_Logo_Suite (2).ai"
   xmlns:inkscape="http://www.inkscape.org/namespaces/inkscape"
   xmlns:sodipodi="http://sodipodi.sourceforge.net/DTD/sodipodi-0.dtd"
   xmlns="http://www.w3.org/2000/svg"
   xmlns:svg="http://www.w3.org/2000/svg">
  <defs
     id="defs1">
    <clipPath
       clipPathUnits="userSpaceOnUse"
       id="clipPath838">
      <path
         d="M 0,175.691 H 187.431 V 0 H 0 Z"
         transform="translate(-37.422126,-59.148404)"
         id="path838" />
    </clipPath>
    <clipPath
       clipPathUnits="userSpaceOnUse"
       id="clipPath840">
      <path
         d="M 0,175.691 H 187.431 V 0 H 0 Z"
         transform="translate(-61.867477,-48.030299)"
         id="path840" />
    </clipPath>
    <clipPath
       clipPathUnits="userSpaceOnUse"
       id="clipPath842">
      <path
         d="M 0,175.691 H 187.431 V 0 H 0 Z"
         transform="translate(-71.047627,-59.012204)"
         id="path842" />
    </clipPath>
    <clipPath
       clipPathUnits="userSpaceOnUse"
       id="clipPath844">
      <path
         d="M 0,175.691 H 187.431 V 0 H 0 Z"
         transform="translate(-90.903127,-55.850099)"
         id="path844" />
    </clipPath>
    <clipPath
       clipPathUnits="userSpaceOnUse"
       id="clipPath846">
      <path
         d="M 0,175.691 H 187.431 V 0 H 0 Z"
         transform="translate(-122.21713,-72.135704)"
         id="path846" />
    </clipPath>
    <clipPath
       clipPathUnits="userSpaceOnUse"
       id="clipPath848">
      <path
         d="M 0,175.691 H 187.431 V 0 H 0 Z"
         transform="translate(-140.4407,-58.297904)"
         id="path848" />
    </clipPath>
    <clipPath
       clipPathUnits="userSpaceOnUse"
       id="clipPath850">
      <path
         d="M 0,175.691 H 187.431 V 0 H 0 Z"
         transform="translate(-166.3484,-72.221204)"
         id="path850" />
    </clipPath>
    <clipPath
       clipPathUnits="userSpaceOnUse"
       id="clipPath852">
      <path
         d="M 0,175.691 H 187.431 V 0 H 0 Z"
         transform="translate(-44.800101,-36.835903)"
         id="path852" />
    </clipPath>
    <clipPath
       clipPathUnits="userSpaceOnUse"
       id="clipPath854">
      <path
         d="M 0,175.691 H 187.431 V 0 H 0 Z"
         transform="translate(-55.085226,-44.961899)"
         id="path854" />
    </clipPath>
    <clipPath
       clipPathUnits="userSpaceOnUse"
       id="clipPath856">
      <path
         d="M 0,175.691 H 187.431 V 0 H 0 Z"
         transform="translate(-76.368427,-45.200204)"
         id="path856" />
    </clipPath>
    <clipPath
       clipPathUnits="userSpaceOnUse"
       id="clipPath858">
      <path
         d="M 0,175.691 H 187.431 V 0 H 0 Z"
         transform="translate(-97.176127,-45.268101)"
         id="path858" />
    </clipPath>
    <clipPath
       clipPathUnits="userSpaceOnUse"
       id="clipPath860">
      <path
         d="M 0,175.691 H 187.431 V 0 H 0 Z"
         transform="translate(-114.3284,-31.463901)"
         id="path860" />
    </clipPath>
    <clipPath
       clipPathUnits="userSpaceOnUse"
       id="clipPath862">
      <path
         d="M 0,175.691 H 187.431 V 0 H 0 Z"
         transform="translate(-139.4036,-23.337898)"
         id="path862" />
    </clipPath>
    <clipPath
       clipPathUnits="userSpaceOnUse"
       id="clipPath864">
      <path
         d="M 0,175.691 H 187.431 V 0 H 0 Z"
         transform="translate(-159.4973,-29.016103)"
         id="path864" />
    </clipPath>
    <clipPath
       clipPathUnits="userSpaceOnUse"
       id="clipPath866">
      <path
         d="M 0,175.691 H 187.431 V 0 H 0 Z"
         transform="translate(-93.932302,-106.311)"
         id="path866" />
    </clipPath>
    <clipPath
       clipPathUnits="userSpaceOnUse"
       id="clipPath868">
      <path
         d="M 0,175.691 H 187.431 V 0 H 0 Z"
         transform="translate(-28.750026,-81.477502)"
         id="path868" />
    </clipPath>
    <clipPath
       clipPathUnits="userSpaceOnUse"
       id="clipPath870">
      <path
         d="M 0,175.691 H 187.431 V 0 H 0 Z"
         transform="translate(-44.085726,-94.5435)"
         id="path870" />
    </clipPath>
    <clipPath
       clipPathUnits="userSpaceOnUse"
       id="clipPath872">
      <path
         d="M 0,175.691 H 187.431 V 0 H 0 Z"
         transform="translate(-44.250876,-109.6499)"
         id="path872" />
    </clipPath>
    <clipPath
       clipPathUnits="userSpaceOnUse"
       id="clipPath874">
      <path
         d="M 0,175.691 H 187.431 V 0 H 0 Z"
         transform="translate(-47.552826,-127.5166)"
         id="path874" />
    </clipPath>
    <clipPath
       clipPathUnits="userSpaceOnUse"
       id="clipPath876">
      <path
         d="M 0,175.691 H 187.431 V 0 H 0 Z"
         transform="translate(-64.036777,-132.0537)"
         id="path876" />
    </clipPath>
    <clipPath
       clipPathUnits="userSpaceOnUse"
       id="clipPath878">
      <path
         d="M 0,175.691 H 187.431 V 0 H 0 Z"
         transform="translate(-86.965927,-104.8828)"
         id="path878" />
    </clipPath>
    <clipPath
       clipPathUnits="userSpaceOnUse"
       id="clipPath880">
      <path
         d="M 0,175.691 H 187.431 V 0 H 0 Z"
         transform="translate(-119.1992,-81.075202)"
         id="path880" />
    </clipPath>
    <clipPath
       clipPathUnits="userSpaceOnUse"
       id="clipPath882">
      <path
         d="M 0,175.691 H 187.431 V 0 H 0 Z"
         transform="translate(-117.6563,-87.249)"
         id="path882" />
    </clipPath>
    <clipPath
       clipPathUnits="userSpaceOnUse"
       id="clipPath884">
      <path
         d="M 0,175.691 H 187.431 V 0 H 0 Z"
         transform="translate(-115.71388,-93.693802)"
         id="path884" />
    </clipPath>
    <clipPath
       clipPathUnits="userSpaceOnUse"
       id="clipPath886">
      <path
         d="M 0,175.691 H 187.431 V 0 H 0 Z"
         transform="translate(-139.50688,-127.5166)"
         id="path886" />
    </clipPath>
    <clipPath
       clipPathUnits="userSpaceOnUse"
       id="clipPath888">
      <path
         d="M 0,175.691 H 187.431 V 0 H 0 Z"
         transform="translate(-105.92968,-103.1831)"
         id="path888" />
    </clipPath>
    <clipPath
       clipPathUnits="userSpaceOnUse"
       id="clipPath890">
      <path
         d="M 0,175.691 H 187.431 V 0 H 0 Z"
         transform="translate(-107.31118,-132.5718)"
         id="path890" />
    </clipPath>
    <clipPath
       clipPathUnits="userSpaceOnUse"
       id="clipPath892">
      <path
         d="M 0,175.691 H 187.431 V 0 H 0 Z"
         transform="translate(-23.888676,-81.301305)"
         id="path892" />
    </clipPath>
    <clipPath
       clipPathUnits="userSpaceOnUse"
       id="clipPath894">
      <path
         d="M 0,175.691 H 187.431 V 0 H 0 Z"
         transform="translate(-109.1789,-81.343305)"
         id="path894" />
    </clipPath>
    <clipPath
       clipPathUnits="userSpaceOnUse"
       id="clipPath896">
      <path
         d="M 0,175.691 H 187.431 V 0 H 0 Z"
         transform="translate(-173.6648,-69.980002)"
         id="path896" />
    </clipPath>
    <clipPath
       clipPathUnits="userSpaceOnUse"
       id="clipPath898">
      <path
         d="M 0,175.691 H 187.431 V 0 H 0 Z"
         transform="translate(-172.45543,-70.559099)"
         id="path898" />
    </clipPath>
  </defs>
  <sodipodi:namedview
     id="namedview1"
     pagecolor="#ffffff"
     bordercolor="#000000"
     borderopacity="0.25"
     inkscape:showpageshadow="2"
     inkscape:pageopacity="0.0"
     inkscape:pagecheckerboard="0"
     inkscape:deskcolor="#d1d1d1">
    <inkscape:page
       x="0"
       y="0"
       inkscape:label="18"
       id="page836"
       width="249.908"
       height="234.25465"
       margin="27.309866 17.814667 27.309334 27.309866"
       bleed="0" />
  </sodipodi:namedview>
  <g
     id="layer-MC0"
     inkscape:groupmode="layer"
     inkscape:label="BG"
     transform="translate(-5845.8892)">
    <path
       id="path837"
       d="M 0,0 H 0.51 C 0.668,0 0.805,-0.023 0.918,-0.068 1.122,-0.159 1.27,-0.261 1.36,-0.374 1.428,-0.488 1.473,-0.646 1.496,-0.851 1.519,-1.055 1.53,-1.27 1.53,-1.496 v -0.697 -0.595 -5.746 c 0,-0.386 -0.011,-0.817 -0.034,-1.292 -0.023,-0.476 0.057,-0.828 0.238,-1.054 0.113,-0.159 0.311,-0.238 0.595,-0.238 h 0.833 c 0.09,0 0.187,-0.006 0.289,-0.017 0.102,-0.012 0.198,-0.006 0.289,0.017 0.136,0.045 0.249,0.068 0.34,0.068 0.09,0 0.181,0.033 0.272,0.102 0.181,0.113 0.283,0.294 0.306,0.544 0.023,0.249 0.034,0.532 0.034,0.849 v 3.231 14.042 3.706 c 0,0.271 -0.005,0.555 -0.017,0.849 C 4.663,12.568 4.578,12.772 4.42,12.886 4.261,12.999 4.063,13.061 3.825,13.073 3.587,13.084 3.343,13.09 3.094,13.09 2.98,13.09 2.867,13.095 2.754,13.106 2.641,13.118 2.538,13.112 2.448,13.09 H 2.278 C 2.164,13.044 2.057,13.01 1.955,12.987 1.853,12.965 1.779,12.908 1.734,12.817 1.553,12.614 1.473,12.296 1.496,11.866 1.519,11.435 1.53,11.038 1.53,10.676 V 5.338 C 1.53,4.975 1.535,4.55 1.547,4.062 1.559,3.575 1.484,3.218 1.326,2.992 1.235,2.855 1.076,2.765 0.85,2.72 0.623,2.674 0.368,2.646 0.085,2.635 c -0.284,-0.012 -0.572,-0.012 -0.867,0 -0.295,0.011 -0.556,0.016 -0.782,0.016 h -5.984 -1.904 -0.952 c -0.182,0.046 -0.334,0.091 -0.459,0.137 -0.125,0.045 -0.233,0.136 -0.323,0.272 -0.045,0.044 -0.074,0.113 -0.085,0.204 -0.012,0.09 -0.029,0.17 -0.051,0.238 v 0.271 c -0.023,0.091 -0.029,0.199 -0.017,0.324 0.011,0.124 0.017,0.243 0.017,0.357 v 1.325 5.033 c 0,0.362 0.006,0.742 0.017,1.139 0.011,0.396 -0.074,0.696 -0.255,0.901 -0.136,0.181 -0.425,0.266 -0.867,0.254 -0.442,-0.011 -0.822,-0.016 -1.139,-0.016 -0.045,-0.023 -0.091,-0.029 -0.136,-0.017 -0.046,0.011 -0.091,0.005 -0.136,-0.017 -0.25,-0.069 -0.42,-0.182 -0.51,-0.34 -0.114,-0.159 -0.165,-0.374 -0.153,-0.647 0.011,-0.271 0.017,-0.532 0.017,-0.781 V 8.092 -5.475 -9.384 c 0,-0.318 0.005,-0.63 0.017,-0.935 0.011,-0.306 0.108,-0.516 0.289,-0.629 0.114,-0.091 0.266,-0.142 0.459,-0.154 0.193,-0.011 0.403,-0.016 0.629,-0.016 0.362,0 0.702,0.011 1.02,0.034 0.317,0.022 0.532,0.158 0.646,0.408 0.045,0.113 0.073,0.249 0.085,0.407 0.011,0.159 0.017,0.329 0.017,0.511 v 1.462 5.372 c 0,0.181 -0.006,0.402 -0.017,0.663 -0.012,0.26 -0.012,0.515 0,0.765 0.011,0.249 0.034,0.475 0.068,0.68 0.034,0.204 0.085,0.362 0.153,0.476 0.091,0.112 0.198,0.187 0.323,0.221 0.124,0.034 0.277,0.073 0.459,0.119 h 8.84 z"
       style="fill:#f0e88c;fill-opacity:1;fill-rule:nonzero;stroke:none"
       transform="matrix(1.3333333,0,0,-1.3333333,5895.7855,155.39013)"
       clip-path="url(#clipPath838)" />
    <path
       id="path839"
       d="M 0,0 H 0.629 C 0.845,0 1.021,0.045 1.156,0.136 1.27,0.204 1.371,0.328 1.462,0.51 1.484,0.6 1.507,0.73 1.53,0.901 1.553,1.071 1.559,1.241 1.547,1.411 1.536,1.581 1.519,1.745 1.496,1.904 1.474,2.062 1.439,2.176 1.395,2.244 1.304,2.402 1.122,2.527 0.851,2.618 0.714,2.663 0.556,2.68 0.374,2.669 0.192,2.657 0.012,2.652 -0.17,2.652 h -1.937 -6.29 -2.177 c -0.249,0 -0.476,0.005 -0.68,0.017 -0.204,0.011 -0.386,0.073 -0.544,0.186 -0.159,0.114 -0.249,0.301 -0.272,0.562 -0.023,0.26 -0.034,0.549 -0.034,0.867 v 3.23 1.904 c 0,0.181 -0.005,0.362 -0.017,0.544 -0.011,0.181 0.006,0.34 0.051,0.476 0.068,0.226 0.187,0.385 0.357,0.476 0.17,0.09 0.368,0.153 0.595,0.187 0.226,0.034 0.471,0.045 0.731,0.034 0.261,-0.012 0.528,-0.017 0.799,-0.017 h 7.174 1.258 c 0.114,0 0.226,-0.006 0.341,-0.017 0.112,-0.012 0.226,-0.006 0.339,0.017 h 0.205 c 0.067,0.022 0.141,0.039 0.22,0.051 0.079,0.011 0.142,0.039 0.187,0.085 0.159,0.09 0.26,0.238 0.306,0.442 0.045,0.136 0.074,0.3 0.085,0.492 0.011,0.193 0.005,0.38 -0.017,0.562 -0.023,0.181 -0.057,0.351 -0.102,0.51 -0.046,0.158 -0.101,0.26 -0.17,0.306 -0.113,0.068 -0.278,0.119 -0.493,0.153 -0.216,0.034 -0.453,0.056 -0.714,0.068 -0.26,0.011 -0.515,0.011 -0.764,0 -0.25,-0.012 -0.477,-0.017 -0.681,-0.017 h -6.664 -1.155 c -0.115,0 -0.222,-0.006 -0.324,-0.017 -0.102,-0.012 -0.198,-0.006 -0.289,0.017 h -0.34 c -0.227,0.045 -0.385,0.09 -0.476,0.136 -0.204,0.09 -0.34,0.272 -0.408,0.544 -0.045,0.204 -0.062,0.476 -0.051,0.816 0.012,0.339 0.017,0.634 0.017,0.884 v 3.468 c 0,0.362 0.005,0.714 0.017,1.054 0.011,0.34 0.13,0.578 0.358,0.714 0.226,0.135 0.583,0.198 1.07,0.187 0.487,-0.012 0.912,-0.017 1.275,-0.017 h 5.712 3.401 c 0.407,0 0.758,0.017 1.053,0.051 0.295,0.034 0.488,0.209 0.578,0.527 0.045,0.181 0.068,0.447 0.068,0.799 0,0.351 -0.023,0.606 -0.068,0.765 -0.046,0.068 -0.09,0.136 -0.135,0.204 -0.046,0.068 -0.103,0.124 -0.171,0.17 -0.158,0.113 -0.363,0.164 -0.612,0.153 -0.25,-0.012 -0.499,-0.017 -0.748,-0.017 h -2.923 -11.119 c -0.046,-0.023 -0.09,-0.029 -0.135,-0.017 -0.046,0.011 -0.091,0.005 -0.137,-0.017 -0.249,-0.069 -0.419,-0.182 -0.51,-0.34 -0.091,-0.114 -0.136,-0.272 -0.136,-0.476 V 22.746 20.638 13.021 3.91 1.53 0.901 c 0,-0.216 0.045,-0.391 0.136,-0.527 0.113,-0.182 0.283,-0.289 0.51,-0.323 C -14.394,0.017 -14.121,0 -13.804,0 h 2.38 9.044 z"
       style="fill:#f0e88c;fill-opacity:1;fill-rule:nonzero;stroke:none"
       transform="matrix(1.3333333,0,0,-1.3333333,5928.3793,170.21427)"
       clip-path="url(#clipPath840)" />
    <path
       id="path841"
       d="m 0,0 c 0.045,0.181 0.102,0.362 0.17,0.544 0.068,0.181 0.136,0.362 0.204,0.544 0.045,0.113 0.085,0.226 0.119,0.34 0.034,0.113 0.073,0.226 0.119,0.34 0.362,0.861 0.685,1.745 0.969,2.652 0.283,0.906 0.617,1.802 1.003,2.686 0.113,0.249 0.204,0.498 0.272,0.748 0.068,0.249 0.158,0.498 0.272,0.748 0.045,0.136 0.09,0.266 0.136,0.391 0.045,0.124 0.113,0.243 0.204,0.357 0.045,0.045 0.09,0.079 0.136,0.102 0.045,0.022 0.09,0.056 0.136,0.102 0.181,0 0.3,-0.051 0.357,-0.153 C 4.153,9.299 4.205,9.191 4.25,9.078 4.363,8.851 4.459,8.613 4.539,8.364 4.618,8.114 4.714,7.865 4.828,7.616 5.168,6.8 5.468,5.967 5.729,5.117 5.989,4.267 6.29,3.434 6.63,2.618 6.72,2.414 6.794,2.215 6.851,2.023 6.907,1.83 6.97,1.643 7.038,1.462 7.083,1.371 7.106,1.292 7.106,1.224 7.106,1.156 7.128,1.076 7.174,0.986 7.242,0.85 7.315,0.685 7.395,0.493 7.474,0.3 7.531,0.107 7.565,-0.085 7.599,-0.278 7.587,-0.454 7.531,-0.612 7.474,-0.771 7.344,-0.884 7.14,-0.952 6.958,-1.02 6.686,-1.049 6.324,-1.037 5.961,-1.026 5.655,-1.02 5.406,-1.02 H 1.768 c -0.318,0 -0.658,0.005 -1.02,0.017 -0.363,0.011 -0.601,0.107 -0.714,0.289 -0.046,0.09 -0.074,0.204 -0.085,0.34 C -0.063,-0.238 -0.045,-0.114 0,0 m -6.834,-10.812 c 0.113,-0.091 0.255,-0.142 0.425,-0.153 0.17,-0.012 0.345,-0.017 0.527,-0.017 0.34,0 0.663,0.005 0.969,0.017 0.306,0.011 0.549,0.085 0.731,0.221 0.09,0.068 0.175,0.175 0.255,0.323 0.079,0.147 0.153,0.311 0.221,0.493 0.068,0.181 0.13,0.357 0.187,0.527 0.057,0.17 0.107,0.323 0.153,0.459 0.226,0.521 0.436,1.065 0.629,1.632 0.193,0.566 0.402,1.11 0.629,1.632 0.113,0.294 0.209,0.583 0.289,0.867 0.079,0.283 0.209,0.538 0.391,0.765 0.091,0.136 0.232,0.226 0.425,0.272 0.192,0.045 0.402,0.079 0.629,0.102 0.226,0.022 0.464,0.028 0.714,0.017 0.249,-0.012 0.476,-0.017 0.68,-0.017 h 6.426 c 0.158,0 0.311,0.005 0.459,0.017 0.147,0.011 0.277,-0.006 0.391,-0.051 0.226,-0.068 0.408,-0.159 0.544,-0.272 0.136,-0.114 0.243,-0.25 0.323,-0.408 0.079,-0.159 0.147,-0.329 0.204,-0.51 0.056,-0.182 0.119,-0.374 0.187,-0.578 0.249,-0.612 0.476,-1.235 0.68,-1.87 0.204,-0.635 0.431,-1.247 0.68,-1.836 0.113,-0.272 0.221,-0.578 0.323,-0.918 0.102,-0.34 0.266,-0.578 0.493,-0.714 0.204,-0.114 0.481,-0.17 0.833,-0.17 h 1.003 0.476 c 0.158,0 0.294,0.023 0.408,0.068 0.158,0.068 0.255,0.175 0.289,0.323 0.034,0.147 0.034,0.306 0,0.476 -0.034,0.17 -0.085,0.334 -0.153,0.493 -0.068,0.158 -0.125,0.294 -0.17,0.408 -0.249,0.589 -0.493,1.19 -0.731,1.802 -0.238,0.612 -0.482,1.212 -0.731,1.802 -0.068,0.204 -0.131,0.396 -0.187,0.578 -0.057,0.181 -0.131,0.374 -0.221,0.578 C 11.843,-2.8 11.18,-1.128 10.557,0.561 9.933,2.25 9.282,3.921 8.602,5.576 8.398,6.029 8.211,6.494 8.041,6.97 7.871,7.446 7.695,7.91 7.514,8.364 7.287,8.885 7.083,9.406 6.902,9.928 6.72,10.449 6.516,10.97 6.29,11.492 6.176,11.741 6.069,12.019 5.967,12.325 5.865,12.631 5.723,12.852 5.542,12.988 5.292,13.169 4.896,13.254 4.352,13.243 3.808,13.231 3.332,13.226 2.924,13.226 2.878,13.203 2.827,13.197 2.771,13.209 2.714,13.22 2.663,13.214 2.618,13.192 2.414,13.146 2.266,13.078 2.176,12.988 1.972,12.852 1.819,12.631 1.717,12.325 1.615,12.019 1.507,11.741 1.394,11.492 1.144,10.902 0.912,10.302 0.697,9.69 0.481,9.078 0.249,8.477 0,7.888 -0.68,6.233 -1.326,4.573 -1.938,2.907 -2.55,1.241 -3.196,-0.408 -3.876,-2.04 -4.08,-2.539 -4.273,-3.032 -4.454,-3.519 -4.636,-4.007 -4.828,-4.5 -5.032,-4.998 c -0.295,-0.726 -0.567,-1.445 -0.816,-2.159 -0.25,-0.714 -0.533,-1.434 -0.85,-2.159 -0.046,-0.068 -0.096,-0.176 -0.153,-0.323 -0.057,-0.148 -0.102,-0.295 -0.136,-0.442 -0.034,-0.148 -0.046,-0.289 -0.034,-0.425 0.011,-0.136 0.073,-0.238 0.187,-0.306"
       style="fill:#f0e88c;fill-opacity:1;fill-rule:nonzero;stroke:none"
       transform="matrix(1.3333333,0,0,-1.3333333,5940.6195,155.57173)"
       clip-path="url(#clipPath842)" />
    <path
       id="path843"
       d="m 0,0 v 10.914 3.57 0.918 c 0,0.294 -0.068,0.532 -0.204,0.714 -0.068,0.091 -0.181,0.158 -0.34,0.204 -0.159,0.045 -0.334,0.073 -0.527,0.085 -0.193,0.012 -0.391,0.012 -0.595,0 -0.204,-0.012 -0.385,-0.017 -0.544,-0.017 -0.045,-0.023 -0.097,-0.029 -0.153,-0.017 -0.056,0.011 -0.108,0.005 -0.153,-0.017 -0.25,-0.091 -0.42,-0.204 -0.51,-0.34 C -3.094,15.9 -3.134,15.742 -3.145,15.538 -3.157,15.334 -3.162,15.13 -3.162,14.926 V 12.818 5.44 -3.842 -6.29 -6.919 c 0,-0.216 0.045,-0.391 0.136,-0.527 0.113,-0.181 0.283,-0.289 0.51,-0.323 0.226,-0.034 0.498,-0.051 0.816,-0.051 h 2.21 8.602 2.244 0.629 c 0.215,0 0.38,0.045 0.493,0.136 0.158,0.09 0.261,0.215 0.306,0.374 0.022,0.09 0.046,0.221 0.068,0.391 0.023,0.17 0.028,0.34 0.017,0.51 -0.012,0.17 -0.029,0.334 -0.051,0.493 -0.023,0.158 -0.046,0.272 -0.068,0.34 -0.091,0.159 -0.284,0.283 -0.578,0.374 -0.136,0.045 -0.289,0.062 -0.459,0.051 -0.17,-0.012 -0.335,-0.017 -0.493,-0.017 H 9.316 3.196 1.462 c -0.181,0 -0.363,0.005 -0.544,0.017 C 0.736,-5.14 0.589,-5.112 0.476,-5.066 0.294,-4.953 0.17,-4.817 0.102,-4.658 0.034,-4.477 0,-4.239 0,-3.944 v 0.816 z"
       style="fill:#f0e88c;fill-opacity:1;fill-rule:nonzero;stroke:none"
       transform="matrix(1.3333333,0,0,-1.3333333,5967.0935,159.78787)"
       clip-path="url(#clipPath844)" />
    <path
       id="path845"
       d="m 0,0 c -0.159,0.091 -0.352,0.136 -0.578,0.136 h -0.68 -2.584 -14.212 C -18.1,0.113 -18.145,0.107 -18.19,0.119 c -0.045,0.012 -0.091,0.006 -0.136,-0.016 -0.091,-0.023 -0.176,-0.052 -0.255,-0.085 -0.08,-0.035 -0.142,-0.085 -0.187,-0.154 -0.068,-0.068 -0.125,-0.193 -0.17,-0.374 -0.045,-0.181 -0.074,-0.374 -0.085,-0.578 -0.012,-0.204 -0.006,-0.408 0.017,-0.612 0.023,-0.203 0.068,-0.351 0.136,-0.442 0.045,-0.068 0.102,-0.125 0.17,-0.17 0.068,-0.045 0.136,-0.09 0.204,-0.136 0.182,-0.068 0.447,-0.096 0.799,-0.085 0.351,0.012 0.663,0.017 0.935,0.017 h 3.74 c 0.453,0 0.878,-0.011 1.275,-0.034 0.396,-0.022 0.651,-0.216 0.765,-0.578 0.068,-0.204 0.096,-0.471 0.085,-0.799 -0.012,-0.328 -0.017,-0.617 -0.017,-0.867 v -3.366 -11.186 -3.026 c 0,-0.295 0.005,-0.566 0.017,-0.815 0.011,-0.25 0.085,-0.465 0.221,-0.647 0.113,-0.158 0.334,-0.237 0.663,-0.237 h 0.935 c 0.182,0 0.351,0.005 0.51,0.016 0.158,0.012 0.295,0.039 0.408,0.085 0.226,0.114 0.357,0.306 0.391,0.578 0.034,0.272 0.051,0.579 0.051,0.918 v 3.604 10.744 3.298 c 0,0.249 -0.011,0.533 -0.034,0.85 -0.022,0.318 0,0.579 0.068,0.783 0.068,0.203 0.17,0.356 0.306,0.459 0.136,0.101 0.3,0.17 0.493,0.203 0.193,0.034 0.408,0.046 0.646,0.034 0.238,-0.011 0.481,-0.017 0.731,-0.017 h 3.876 0.918 c 0.318,0 0.567,0.057 0.748,0.17 0.113,0.091 0.187,0.193 0.221,0.306 0.034,0.113 0.073,0.261 0.119,0.442 v 0.409 c 0,0.293 -0.017,0.538 -0.051,0.73 C 0.289,-0.267 0.181,-0.113 0,0"
       style="fill:#f0e88c;fill-opacity:1;fill-rule:nonzero;stroke:none"
       transform="matrix(1.3333333,0,0,-1.3333333,6008.8455,138.07373)"
       clip-path="url(#clipPath846)" />
    <path
       id="path847"
       d="M 0,0 C 0.022,-0.204 0.034,-0.419 0.034,-0.646 V -1.343 -1.937 -7.684 C 0.034,-8.069 0.022,-8.5 0,-8.976 c -0.022,-0.476 0.057,-0.828 0.238,-1.054 0.114,-0.158 0.312,-0.238 0.595,-0.238 h 0.833 c 0.091,0 0.188,-0.005 0.289,-0.017 0.102,-0.011 0.198,-0.006 0.289,0.017 0.136,0.045 0.249,0.068 0.34,0.068 0.091,0 0.182,0.034 0.272,0.102 0.181,0.114 0.284,0.294 0.306,0.544 0.023,0.249 0.034,0.533 0.034,0.85 v 3.23 14.042 3.706 c 0,0.272 -0.006,0.555 -0.017,0.85 -0.012,0.294 -0.096,0.499 -0.255,0.612 -0.158,0.114 -0.357,0.176 -0.595,0.187 -0.238,0.012 -0.481,0.017 -0.731,0.017 -0.114,0 -0.227,0.005 -0.34,0.017 C 1.145,13.969 1.042,13.963 0.952,13.94 H 0.782 C 0.668,13.895 0.562,13.86 0.459,13.838 0.357,13.815 0.283,13.759 0.238,13.668 0.057,13.464 -0.022,13.146 0,12.716 0.022,12.285 0.034,11.889 0.034,11.526 V 6.188 C 0.034,5.825 0.04,5.4 0.051,4.913 0.062,4.426 -0.012,4.068 -0.17,3.842 -0.261,3.706 -0.419,3.615 -0.646,3.57 -0.873,3.524 -1.128,3.496 -1.411,3.485 -1.694,3.474 -1.983,3.474 -2.278,3.485 -2.572,3.496 -2.833,3.502 -3.06,3.502 h -5.984 -1.904 -0.951 c -0.183,0.045 -0.335,0.091 -0.46,0.136 -0.124,0.046 -0.233,0.136 -0.323,0.272 -0.046,0.045 -0.074,0.113 -0.085,0.204 -0.011,0.091 -0.028,0.17 -0.051,0.239 v 0.271 c -0.023,0.091 -0.029,0.198 -0.017,0.323 0.011,0.124 0.017,0.243 0.017,0.357 v 1.326 5.032 c 0,0.362 0.005,0.742 0.017,1.139 0.011,0.396 -0.074,0.697 -0.255,0.901 -0.135,0.181 -0.424,0.267 -0.867,0.255 -0.442,-0.012 -0.822,-0.017 -1.139,-0.017 -0.045,-0.023 -0.09,-0.028 -0.136,-0.017 -0.045,0.012 -0.091,0.006 -0.136,-0.017 -0.249,-0.068 -0.419,-0.181 -0.51,-0.34 -0.114,-0.159 -0.165,-0.374 -0.153,-0.646 0.012,-0.272 0.018,-0.532 0.018,-0.782 V 8.942 -4.624 -8.534 c 0,-0.318 0.004,-0.629 0.016,-0.935 0.011,-0.305 0.108,-0.515 0.289,-0.629 0.113,-0.09 0.266,-0.141 0.459,-0.153 0.193,-0.012 0.402,-0.017 0.629,-0.017 0.362,0 0.702,0.011 1.021,0.035 0.316,0.022 0.532,0.158 0.645,0.407 0.045,0.113 0.073,0.249 0.085,0.408 0.011,0.158 0.017,0.329 0.017,0.51 v 1.462 5.372 c 0,0.181 -0.006,0.402 -0.017,0.663 -0.012,0.261 -0.012,0.515 0,0.765 0.011,0.25 0.034,0.476 0.068,0.68 0.035,0.204 0.085,0.362 0.153,0.476 0.091,0.113 0.198,0.187 0.323,0.221 0.124,0.034 0.277,0.074 0.459,0.12 h 8.84 1.496 0.51 c 0.159,0 0.295,-0.024 0.408,-0.069 C -0.374,0.691 -0.227,0.589 -0.136,0.477 -0.068,0.362 -0.022,0.204 0,0"
       style="fill:#f0e88c;fill-opacity:1;fill-rule:nonzero;stroke:none"
       transform="matrix(1.3333333,0,0,-1.3333333,6033.1436,156.52413)"
       clip-path="url(#clipPath848)" />
    <path
       id="path849"
       d="m 0,0 c -0.182,0.011 -0.363,0.017 -0.544,0.017 h -1.139 c -0.374,0 -0.663,-0.08 -0.867,-0.238 -0.136,-0.113 -0.249,-0.238 -0.34,-0.374 -0.091,-0.136 -0.182,-0.284 -0.272,-0.442 -0.182,-0.272 -0.357,-0.55 -0.527,-0.833 -0.17,-0.284 -0.346,-0.573 -0.527,-0.867 -0.612,-0.952 -1.213,-1.916 -1.802,-2.89 -0.59,-0.975 -1.19,-1.95 -1.802,-2.924 -0.204,-0.318 -0.403,-0.646 -0.595,-0.986 -0.193,-0.34 -0.403,-0.669 -0.629,-0.986 -0.045,-0.091 -0.13,-0.199 -0.255,-0.323 -0.125,-0.125 -0.278,-0.165 -0.459,-0.119 -0.182,0.045 -0.323,0.141 -0.425,0.289 -0.102,0.147 -0.198,0.3 -0.289,0.459 -0.227,0.34 -0.448,0.68 -0.663,1.02 -0.216,0.34 -0.437,0.691 -0.663,1.054 -0.612,0.997 -1.23,1.983 -1.853,2.958 -0.624,0.975 -1.253,1.96 -1.887,2.958 -0.159,0.227 -0.306,0.453 -0.442,0.68 -0.136,0.226 -0.272,0.453 -0.408,0.68 -0.113,0.159 -0.221,0.306 -0.323,0.442 -0.102,0.136 -0.244,0.249 -0.425,0.34 -0.25,0.113 -0.624,0.158 -1.122,0.136 -0.499,-0.023 -0.918,-0.034 -1.258,-0.034 -0.023,-0.023 -0.051,-0.029 -0.085,-0.017 -0.034,0.011 -0.063,0.017 -0.085,0.017 -0.113,-0.046 -0.221,-0.08 -0.323,-0.102 -0.102,-0.023 -0.164,-0.091 -0.187,-0.204 -0.068,-0.068 -0.08,-0.182 -0.034,-0.34 0.068,-0.227 0.181,-0.442 0.34,-0.646 0.294,-0.454 0.583,-0.89 0.867,-1.309 0.283,-0.42 0.572,-0.856 0.867,-1.309 0.77,-1.156 1.518,-2.307 2.244,-3.451 0.725,-1.145 1.473,-2.295 2.244,-3.451 l 1.326,-2.04 c 0.181,-0.295 0.357,-0.573 0.527,-0.833 0.17,-0.261 0.312,-0.584 0.425,-0.969 v -0.442 c 0.022,-0.091 0.034,-0.187 0.034,-0.289 v -0.323 -1.19 -4.522 c 0,-0.204 -0.006,-0.431 -0.017,-0.68 -0.012,-0.25 -0.012,-0.493 0,-0.731 0.011,-0.238 0.034,-0.465 0.068,-0.68 0.034,-0.215 0.097,-0.369 0.187,-0.459 0.113,-0.159 0.306,-0.238 0.578,-0.238 h 0.816 c 0.113,0 0.221,-0.006 0.323,-0.017 0.102,-0.012 0.198,-0.006 0.289,0.017 0.09,0.023 0.17,0.028 0.238,0.017 0.068,-0.012 0.136,0.006 0.204,0.051 0.249,0.113 0.408,0.374 0.476,0.782 v 0.578 c 0.045,0.181 0.056,0.374 0.034,0.578 -0.023,0.204 -0.034,0.396 -0.034,0.578 v 4.862 1.36 0.527 c 0,0.17 0.023,0.323 0.068,0.459 0.113,0.317 0.244,0.583 0.391,0.799 0.147,0.215 0.3,0.447 0.459,0.697 0.249,0.385 0.487,0.753 0.714,1.105 0.227,0.351 0.464,0.708 0.714,1.071 0.748,1.201 1.496,2.391 2.244,3.57 0.748,1.178 1.519,2.346 2.312,3.502 0.113,0.181 0.215,0.351 0.306,0.51 0.09,0.158 0.193,0.317 0.306,0.476 0.181,0.249 0.351,0.504 0.51,0.765 0.158,0.26 0.328,0.527 0.51,0.799 0.068,0.09 0.141,0.243 0.221,0.459 C 0.64,-0.431 0.6,-0.267 0.442,-0.153 0.328,-0.063 0.181,-0.012 0,0"
       style="fill:#f0e88c;fill-opacity:1;fill-rule:nonzero;stroke:none"
       transform="matrix(1.3333333,0,0,-1.3333333,6067.6872,137.95973)"
       clip-path="url(#clipPath850)" />
    <path
       id="path851"
       d="m 0,0 c -0.08,-0.272 -0.199,-0.533 -0.357,-0.782 -0.34,-0.544 -0.793,-0.952 -1.36,-1.224 -0.567,-0.272 -1.207,-0.459 -1.921,-0.561 -0.714,-0.102 -1.491,-0.148 -2.329,-0.136 -0.839,0.012 -1.7,0.017 -2.584,0.017 h -2.108 c -0.272,0 -0.522,0.017 -0.748,0.051 -0.227,0.034 -0.397,0.13 -0.51,0.289 -0.159,0.204 -0.232,0.493 -0.221,0.867 0.011,0.374 0.017,0.731 0.017,1.071 v 3.91 c 0,0.294 -0.006,0.623 -0.017,0.986 -0.011,0.363 0.028,0.646 0.119,0.85 0.09,0.226 0.272,0.374 0.544,0.442 0.068,0.023 0.13,0.034 0.187,0.034 0.057,0 0.107,0.011 0.153,0.034 h 5.61 c 0.634,0 1.252,-0.012 1.853,-0.034 0.6,-0.023 1.127,-0.125 1.581,-0.306 C -1.026,5.077 -0.312,4.295 0.051,3.162 0.142,2.912 0.209,2.601 0.255,2.227 0.3,1.853 0.289,1.507 0.221,1.19 V 0.884 C 0.153,0.566 0.079,0.272 0,0 m 3.451,-14.076 c -0.046,0.136 -0.074,0.266 -0.085,0.391 -0.012,0.124 -0.04,0.255 -0.085,0.391 -0.068,0.204 -0.114,0.425 -0.136,0.663 -0.023,0.238 -0.057,0.47 -0.102,0.697 -0.023,0.113 -0.029,0.209 -0.017,0.289 0.011,0.08 0.005,0.165 -0.017,0.255 -0.046,0.181 -0.057,0.363 -0.034,0.544 0.022,0.181 0.011,0.351 -0.034,0.51 v 0.306 c -0.045,0.158 -0.057,0.317 -0.034,0.476 0.022,0.158 0.011,0.317 -0.034,0.476 -0.023,0.182 -0.046,0.357 -0.068,0.527 -0.023,0.17 -0.046,0.345 -0.068,0.527 -0.114,0.453 -0.227,0.878 -0.34,1.275 -0.114,0.396 -0.295,0.753 -0.544,1.071 -0.159,0.249 -0.346,0.464 -0.561,0.646 -0.216,0.181 -0.448,0.351 -0.697,0.51 -0.091,0.045 -0.199,0.113 -0.323,0.204 -0.125,0.09 -0.176,0.204 -0.153,0.34 0.023,0.136 0.079,0.244 0.17,0.323 0.09,0.079 0.192,0.153 0.306,0.221 0.181,0.113 0.351,0.232 0.51,0.357 0.158,0.124 0.329,0.255 0.51,0.391 0.045,0.045 0.096,0.102 0.153,0.17 0.056,0.068 0.107,0.124 0.153,0.17 0.022,0.023 0.045,0.039 0.068,0.051 0.022,0.011 0.045,0.028 0.068,0.051 0.068,0.113 0.141,0.215 0.221,0.306 0.079,0.09 0.153,0.192 0.221,0.306 0.181,0.272 0.323,0.561 0.425,0.867 0.102,0.306 0.209,0.629 0.323,0.969 C 3.292,0.362 3.32,0.521 3.332,0.68 3.343,0.838 3.371,1.009 3.417,1.19 V 1.564 C 3.439,1.677 3.456,1.808 3.468,1.955 3.479,2.103 3.473,2.232 3.451,2.346 v 0.34 C 3.405,2.867 3.377,3.054 3.366,3.247 3.354,3.439 3.326,3.626 3.281,3.808 3.054,4.556 2.765,5.208 2.414,5.763 2.063,6.318 1.604,6.788 1.037,7.174 0.719,7.4 0.379,7.593 0.017,7.752 -0.346,7.91 -0.743,8.058 -1.173,8.194 -1.354,8.239 -1.542,8.273 -1.734,8.296 -1.927,8.318 -2.114,8.353 -2.295,8.398 -2.454,8.42 -2.601,8.438 -2.737,8.449 -2.873,8.46 -3.009,8.478 -3.145,8.5 H -3.519 C -3.655,8.522 -3.814,8.528 -3.995,8.517 -4.177,8.505 -4.347,8.5 -4.505,8.5 h -9.86 c -0.046,-0.022 -0.091,-0.028 -0.136,-0.017 -0.046,0.011 -0.091,0.005 -0.136,-0.017 -0.25,-0.091 -0.42,-0.204 -0.51,-0.34 -0.114,-0.159 -0.165,-0.374 -0.153,-0.646 0.011,-0.272 0.017,-0.533 0.017,-0.782 v -20.672 -0.901 c 0,-0.306 0.091,-0.516 0.272,-0.629 0.158,-0.114 0.357,-0.176 0.595,-0.187 0.238,-0.012 0.481,-0.017 0.731,-0.017 0.113,0 0.226,-0.006 0.34,-0.017 0.113,-0.011 0.215,-0.005 0.306,0.017 0.113,0.045 0.209,0.068 0.289,0.068 0.079,0 0.164,0.022 0.255,0.068 0.136,0.046 0.226,0.147 0.272,0.306 0.113,0.226 0.159,0.573 0.136,1.037 -0.023,0.464 -0.034,0.855 -0.034,1.173 v 4.93 c 0,0.385 -0.006,0.833 -0.017,1.343 -0.011,0.51 0.062,0.878 0.221,1.105 0.09,0.114 0.198,0.187 0.323,0.221 0.124,0.034 0.266,0.073 0.425,0.119 h 6.256 c 0.385,0 0.753,-0.006 1.105,-0.017 0.351,-0.011 0.674,-0.074 0.969,-0.187 0.997,-0.317 1.711,-0.952 2.142,-1.904 0.158,-0.363 0.266,-0.748 0.323,-1.156 0.057,-0.408 0.142,-0.816 0.255,-1.224 0.045,-0.182 0.068,-0.352 0.068,-0.51 0,-0.159 0.022,-0.317 0.068,-0.476 l 0.102,-1.53 v -0.408 c 0,-0.136 0.011,-0.272 0.034,-0.408 0.022,-0.091 0.022,-0.182 0,-0.272 -0.023,-0.091 -0.011,-0.193 0.034,-0.306 v -0.221 c 0,-0.08 0.011,-0.165 0.034,-0.255 0.045,-0.25 0.096,-0.493 0.153,-0.731 0.056,-0.238 0.175,-0.413 0.357,-0.527 0.204,-0.159 0.487,-0.238 0.85,-0.238 h 1.088 c 0.181,0 0.357,0.005 0.527,0.017 0.17,0.011 0.311,0.051 0.425,0.119 0.204,0.158 0.249,0.385 0.136,0.68 z"
       style="fill:#f0e88c;fill-opacity:1;fill-rule:nonzero;stroke:none"
       transform="matrix(1.3333333,0,0,-1.3333333,5905.6228,185.14013)"
       clip-path="url(#clipPath852)" />
    <path
       id="path853"
       d="M 0,0 C -0.068,0.091 -0.182,0.158 -0.34,0.204 -0.499,0.249 -0.675,0.277 -0.867,0.289 -1.06,0.3 -1.258,0.3 -1.462,0.289 -1.666,0.277 -1.848,0.272 -2.006,0.272 -2.052,0.249 -2.097,0.243 -2.143,0.255 -2.188,0.267 -2.233,0.261 -2.278,0.238 -2.55,0.17 -2.732,0.057 -2.822,-0.102 c -0.114,-0.181 -0.165,-0.425 -0.154,-0.731 0.012,-0.306 0.018,-0.584 0.018,-0.833 v -3.672 -14.212 -2.72 -0.731 c 0,-0.238 0.045,-0.425 0.136,-0.561 0.113,-0.204 0.305,-0.318 0.578,-0.34 0.272,-0.022 0.566,-0.034 0.884,-0.034 h 0.646 c 0.181,0.045 0.334,0.08 0.459,0.102 0.124,0.022 0.232,0.09 0.322,0.204 0.114,0.181 0.171,0.437 0.171,0.765 v 0.935 3.978 13.124 3.298 c 0,0.295 -0.006,0.584 -0.017,0.867 C 0.209,-0.38 0.136,-0.159 0,0"
       style="fill:#f0e88c;fill-opacity:1;fill-rule:nonzero;stroke:none"
       transform="matrix(1.3333333,0,0,-1.3333333,5919.3363,174.30547)"
       clip-path="url(#clipPath854)" />
    <path
       id="path855"
       d="m 0,0 c -0.159,0.09 -0.352,0.136 -0.578,0.136 h -0.68 -2.584 -14.212 C -18.1,0.113 -18.145,0.107 -18.19,0.119 c -0.045,0.011 -0.091,0.005 -0.136,-0.017 -0.091,-0.023 -0.176,-0.051 -0.255,-0.085 -0.08,-0.034 -0.142,-0.085 -0.187,-0.153 -0.068,-0.068 -0.125,-0.193 -0.17,-0.374 -0.045,-0.182 -0.074,-0.374 -0.085,-0.578 -0.012,-0.204 -0.006,-0.408 0.017,-0.612 0.023,-0.204 0.068,-0.352 0.136,-0.442 0.045,-0.068 0.102,-0.125 0.17,-0.171 0.068,-0.045 0.136,-0.09 0.204,-0.135 0.182,-0.068 0.447,-0.097 0.799,-0.085 0.351,0.011 0.663,0.017 0.935,0.017 h 3.74 c 0.453,0 0.878,-0.012 1.275,-0.034 0.396,-0.023 0.651,-0.216 0.765,-0.578 0.068,-0.204 0.096,-0.471 0.085,-0.799 -0.012,-0.329 -0.017,-0.618 -0.017,-0.867 v -3.366 -11.186 -3.026 c 0,-0.295 0.005,-0.567 0.017,-0.816 0.011,-0.249 0.085,-0.465 0.221,-0.646 0.113,-0.159 0.334,-0.238 0.663,-0.238 h 0.935 c 0.182,0 0.351,0.005 0.51,0.017 0.158,0.011 0.295,0.039 0.408,0.085 0.226,0.113 0.357,0.306 0.391,0.578 0.034,0.272 0.051,0.578 0.051,0.918 v 3.604 10.744 3.298 c 0,0.249 -0.011,0.532 -0.034,0.85 -0.022,0.317 0,0.578 0.068,0.782 0.068,0.204 0.17,0.357 0.306,0.459 0.136,0.102 0.3,0.17 0.493,0.204 0.193,0.034 0.408,0.045 0.646,0.034 0.238,-0.012 0.481,-0.017 0.731,-0.017 h 3.876 0.918 c 0.318,0 0.567,0.056 0.748,0.17 0.113,0.09 0.187,0.192 0.221,0.306 0.034,0.113 0.073,0.26 0.119,0.442 v 0.408 c 0,0.294 -0.017,0.538 -0.051,0.731 C 0.289,-0.267 0.181,-0.114 0,0"
       style="fill:#f0e88c;fill-opacity:1;fill-rule:nonzero;stroke:none"
       transform="matrix(1.3333333,0,0,-1.3333333,5947.7139,173.98773)"
       clip-path="url(#clipPath856)" />
    <path
       id="path857"
       d="m 0,0 c -0.114,0 -0.221,0.005 -0.323,0.017 -0.102,0.011 -0.21,0.017 -0.323,0.017 h -0.901 c -0.306,0 -0.516,-0.079 -0.629,-0.238 -0.181,-0.204 -0.266,-0.55 -0.255,-1.037 0.011,-0.488 0.017,-0.924 0.017,-1.309 v -5.882 -5.576 c 0,-0.748 -0.017,-1.479 -0.051,-2.193 -0.034,-0.714 -0.142,-1.355 -0.323,-1.921 -0.295,-0.907 -0.686,-1.632 -1.173,-2.176 -0.488,-0.544 -1.162,-0.986 -2.023,-1.326 -0.249,-0.114 -0.499,-0.193 -0.748,-0.238 -0.249,-0.046 -0.51,-0.102 -0.782,-0.17 -0.114,-0.023 -0.233,-0.029 -0.357,-0.017 -0.125,0.011 -0.244,0.006 -0.357,-0.017 -0.114,-0.046 -0.244,-0.062 -0.391,-0.051 -0.148,0.011 -0.289,0.017 -0.425,0.017 h -0.34 c -0.136,0.022 -0.278,0.039 -0.425,0.051 -0.148,0.011 -0.289,0.028 -0.425,0.051 -0.272,0.068 -0.544,0.119 -0.816,0.153 -0.272,0.034 -0.533,0.107 -0.782,0.221 -0.839,0.362 -1.53,0.827 -2.074,1.394 -0.544,0.566 -0.964,1.292 -1.258,2.176 -0.204,0.589 -0.317,1.263 -0.34,2.023 -0.023,0.759 -0.034,1.535 -0.034,2.329 v 6.324 5.1 c 0,0.362 0.005,0.748 0.017,1.156 0.011,0.408 -0.074,0.714 -0.255,0.918 -0.136,0.181 -0.425,0.266 -0.867,0.255 C -17.085,0.04 -17.465,0.034 -17.782,0.034 -17.828,0.011 -17.918,0 -18.054,0 c -0.25,-0.068 -0.42,-0.182 -0.51,-0.34 -0.091,-0.136 -0.136,-0.306 -0.136,-0.51 v -0.612 -2.312 -8.874 -2.21 c 0,-0.182 -0.012,-0.369 -0.034,-0.561 -0.023,-0.193 -0.012,-0.38 0.034,-0.561 v -0.34 c 0.022,-0.181 0.039,-0.357 0.051,-0.527 0.011,-0.17 0.028,-0.346 0.051,-0.527 0.09,-0.386 0.17,-0.76 0.238,-1.122 0.068,-0.363 0.17,-0.714 0.306,-1.054 0.317,-0.794 0.702,-1.485 1.156,-2.074 0.453,-0.589 1.02,-1.1 1.7,-1.53 0.158,-0.114 0.311,-0.216 0.459,-0.306 0.147,-0.091 0.3,-0.17 0.459,-0.238 0.34,-0.159 0.697,-0.289 1.071,-0.391 0.374,-0.102 0.753,-0.209 1.139,-0.323 0.181,-0.046 0.357,-0.079 0.527,-0.102 0.17,-0.023 0.345,-0.056 0.527,-0.102 h 0.272 c 0.158,-0.045 0.323,-0.062 0.493,-0.051 0.17,0.012 0.334,-0.005 0.493,-0.051 h 0.408 c 0.113,-0.022 0.294,-0.034 0.544,-0.034 0.249,0 0.43,0.012 0.544,0.034 h 0.408 c 0.226,0.046 0.459,0.068 0.697,0.068 0.238,0 0.47,0.023 0.697,0.068 0.227,0.045 0.442,0.085 0.646,0.119 0.204,0.034 0.408,0.085 0.612,0.153 0.431,0.136 0.838,0.283 1.224,0.442 0.385,0.159 0.748,0.34 1.088,0.544 0.861,0.544 1.547,1.207 2.057,1.989 0.51,0.782 0.923,1.728 1.241,2.839 0.181,0.657 0.283,1.394 0.306,2.21 0.022,0.816 0.034,1.643 0.034,2.482 v 7.072 4.692 c 0,0.272 0.005,0.578 0.017,0.918 0.011,0.34 -0.04,0.6 -0.153,0.782 C 0.521,-0.182 0.317,-0.068 0,0"
       style="fill:#f0e88c;fill-opacity:1;fill-rule:nonzero;stroke:none"
       transform="matrix(1.3333333,0,0,-1.3333333,5975.4575,173.8972)"
       clip-path="url(#clipPath858)" />
    <path
       id="path859"
       d="m 0,0 c -0.057,-0.159 -0.187,-0.271 -0.391,-0.34 -0.181,-0.068 -0.454,-0.097 -0.816,-0.085 -0.362,0.011 -0.669,0.017 -0.918,0.017 h -3.638 c -0.318,0 -0.657,0.006 -1.02,0.017 -0.363,0.011 -0.601,0.108 -0.714,0.289 -0.045,0.09 -0.073,0.205 -0.085,0.34 -0.012,0.136 0.006,0.261 0.051,0.374 0.046,0.181 0.102,0.363 0.17,0.544 0.068,0.181 0.136,0.363 0.204,0.544 0.046,0.113 0.085,0.227 0.119,0.34 0.034,0.113 0.073,0.227 0.119,0.34 0.362,0.861 0.686,1.745 0.969,2.652 0.283,0.906 0.617,1.802 1.003,2.686 0.113,0.249 0.204,0.499 0.272,0.748 0.068,0.249 0.158,0.499 0.272,0.748 0.046,0.136 0.091,0.266 0.136,0.391 0.045,0.124 0.114,0.244 0.205,0.357 0.044,0.045 0.089,0.079 0.135,0.102 0.045,0.022 0.091,0.057 0.136,0.102 0.182,0 0.3,-0.051 0.357,-0.153 0.057,-0.102 0.108,-0.209 0.153,-0.323 0.113,-0.227 0.21,-0.464 0.289,-0.714 0.079,-0.249 0.176,-0.498 0.289,-0.747 0.34,-0.817 0.64,-1.65 0.901,-2.5 0.26,-0.85 0.561,-1.683 0.901,-2.499 0.09,-0.204 0.165,-0.403 0.221,-0.595 0.056,-0.193 0.119,-0.38 0.187,-0.561 0.045,-0.091 0.068,-0.17 0.068,-0.238 0,-0.067 0.023,-0.148 0.068,-0.238 0.068,-0.136 0.141,-0.3 0.221,-0.493 C -0.057,0.912 0,0.72 0.034,0.527 0.068,0.334 0.057,0.158 0,0 M 6.885,-8.602 C 6.636,-8.013 6.392,-7.412 6.154,-6.8 5.916,-6.187 5.672,-5.587 5.423,-4.998 5.355,-4.794 5.292,-4.602 5.236,-4.42 5.18,-4.239 5.105,-4.046 5.015,-3.842 4.312,-2.188 3.649,-0.516 3.026,1.173 2.402,2.861 1.751,4.533 1.071,6.188 0.867,6.642 0.68,7.106 0.51,7.582 0.34,8.058 0.164,8.522 -0.017,8.976 c -0.227,0.521 -0.431,1.043 -0.612,1.564 -0.182,0.522 -0.386,1.043 -0.612,1.564 -0.113,0.25 -0.221,0.527 -0.322,0.834 -0.103,0.305 -0.245,0.526 -0.426,0.662 -0.249,0.181 -0.646,0.266 -1.19,0.255 -0.544,-0.011 -1.02,-0.017 -1.428,-0.017 C -4.652,13.815 -4.704,13.81 -4.76,13.821 -4.816,13.832 -4.868,13.826 -4.913,13.804 -5.117,13.759 -5.265,13.69 -5.354,13.6 -5.559,13.464 -5.712,13.243 -5.813,12.938 -5.916,12.631 -6.023,12.354 -6.137,12.104 -6.387,11.515 -6.619,10.914 -6.834,10.302 -7.05,9.69 -7.282,9.089 -7.531,8.5 -8.211,6.846 -8.857,5.186 -9.469,3.52 c -0.612,-1.666 -1.258,-3.316 -1.938,-4.948 -0.204,-0.499 -0.397,-0.992 -0.578,-1.479 -0.182,-0.488 -0.374,-0.981 -0.578,-1.479 -0.294,-0.725 -0.567,-1.445 -0.816,-2.159 -0.249,-0.714 -0.533,-1.434 -0.85,-2.159 -0.045,-0.067 -0.096,-0.176 -0.153,-0.323 -0.056,-0.148 -0.102,-0.294 -0.136,-0.442 -0.034,-0.147 -0.045,-0.289 -0.034,-0.425 0.011,-0.136 0.073,-0.238 0.187,-0.306 0.113,-0.091 0.255,-0.142 0.425,-0.153 0.17,-0.011 0.345,-0.017 0.527,-0.017 0.34,0 0.663,0.006 0.969,0.017 0.306,0.011 0.549,0.085 0.731,0.221 0.09,0.069 0.175,0.175 0.255,0.323 0.079,0.147 0.153,0.311 0.221,0.493 0.068,0.181 0.131,0.357 0.187,0.527 0.057,0.17 0.108,0.323 0.154,0.459 0.226,0.521 0.435,1.065 0.628,1.632 0.193,0.566 0.402,1.111 0.629,1.632 0.114,0.295 0.209,0.584 0.289,0.867 0.079,0.283 0.209,0.538 0.391,0.765 0.091,0.136 0.232,0.226 0.425,0.272 0.192,0.045 0.402,0.079 0.629,0.102 0.226,0.022 0.465,0.028 0.714,0.017 0.25,-0.012 0.476,-0.017 0.68,-0.017 h 6.426 c 0.158,0 0.312,0.005 0.459,0.017 0.147,0.011 0.277,-0.006 0.391,-0.051 0.226,-0.068 0.408,-0.159 0.544,-0.272 0.136,-0.113 0.244,-0.249 0.323,-0.408 0.079,-0.159 0.147,-0.329 0.204,-0.51 0.057,-0.182 0.119,-0.374 0.187,-0.578 0.249,-0.612 0.476,-1.236 0.68,-1.869 0.204,-0.636 0.431,-1.248 0.68,-1.837 0.113,-0.272 0.221,-0.578 0.323,-0.918 0.102,-0.34 0.267,-0.577 0.493,-0.714 0.204,-0.113 0.482,-0.17 0.833,-0.17 h 1.003 0.476 c 0.158,0 0.295,0.022 0.408,0.068 0.158,0.068 0.255,0.176 0.289,0.323 0.034,0.147 0.034,0.306 0,0.476 -0.034,0.17 -0.085,0.334 -0.153,0.493 -0.068,0.158 -0.124,0.294 -0.17,0.408"
       style="fill:#f0e88c;fill-opacity:1;fill-rule:nonzero;stroke:none"
       transform="matrix(1.3333333,0,0,-1.3333333,5998.3272,192.3028)"
       clip-path="url(#clipPath860)" />
    <path
       id="path861"
       d="M 0,0 C -0.091,0.158 -0.284,0.283 -0.578,0.374 -0.714,0.419 -0.867,0.437 -1.037,0.425 -1.207,0.414 -1.372,0.408 -1.53,0.408 h -1.904 -6.12 -1.734 c -0.182,0 -0.363,0.006 -0.544,0.017 -0.182,0.012 -0.329,0.04 -0.442,0.085 -0.182,0.113 -0.306,0.249 -0.374,0.408 -0.068,0.182 -0.102,0.419 -0.102,0.714 v 0.816 3.128 10.914 3.57 0.919 c 0,0.293 -0.068,0.532 -0.204,0.713 -0.068,0.09 -0.182,0.159 -0.34,0.204 -0.159,0.045 -0.335,0.074 -0.527,0.085 -0.193,0.011 -0.391,0.011 -0.595,0 -0.204,-0.011 -0.386,-0.017 -0.544,-0.017 -0.046,-0.023 -0.097,-0.028 -0.153,-0.017 -0.057,0.011 -0.108,0.005 -0.153,-0.017 -0.25,-0.091 -0.42,-0.204 -0.51,-0.34 -0.068,-0.113 -0.108,-0.272 -0.12,-0.476 -0.011,-0.204 -0.016,-0.408 -0.016,-0.612 V 18.395 11.016 1.734 -0.714 -1.343 c 0,-0.216 0.045,-0.391 0.136,-0.527 0.113,-0.182 0.283,-0.289 0.51,-0.323 0.226,-0.034 0.498,-0.051 0.816,-0.051 h 2.21 8.602 2.244 0.629 c 0.215,0 0.379,0.045 0.493,0.136 0.158,0.09 0.26,0.215 0.306,0.374 0.022,0.09 0.045,0.221 0.068,0.391 0.022,0.17 0.028,0.34 0.017,0.51 C 0.107,-0.663 0.09,-0.499 0.068,-0.34 0.045,-0.182 0.022,-0.068 0,0"
       style="fill:#f0e88c;fill-opacity:1;fill-rule:nonzero;stroke:none"
       transform="matrix(1.3333333,0,0,-1.3333333,6031.7608,203.13747)"
       clip-path="url(#clipPath862)" />
    <path
       id="path863"
       d="M 0,0 C -0.046,0.226 -0.091,0.442 -0.136,0.646 -0.182,0.85 -0.25,1.054 -0.34,1.258 -0.59,1.824 -0.913,2.317 -1.309,2.737 -1.706,3.156 -2.153,3.524 -2.652,3.842 -3.038,4.091 -3.445,4.306 -3.876,4.488 -4.307,4.669 -4.749,4.839 -5.202,4.998 -5.406,5.066 -5.61,5.128 -5.814,5.185 -6.018,5.241 -6.222,5.292 -6.426,5.338 -6.517,5.36 -6.596,5.377 -6.664,5.389 -6.732,5.4 -6.812,5.417 -6.902,5.44 -7.22,5.553 -7.554,5.638 -7.905,5.695 c -0.352,0.056 -0.686,0.13 -1.003,0.221 -0.204,0.068 -0.408,0.113 -0.612,0.136 -0.204,0.022 -0.408,0.056 -0.612,0.102 -0.658,0.181 -1.292,0.351 -1.904,0.51 -0.612,0.158 -1.168,0.396 -1.666,0.714 -0.431,0.249 -0.765,0.51 -1.003,0.782 -0.238,0.272 -0.437,0.669 -0.595,1.19 -0.046,0.158 -0.074,0.351 -0.085,0.578 -0.011,0.226 0.005,0.43 0.051,0.612 0.045,0.226 0.085,0.436 0.119,0.629 0.034,0.192 0.096,0.379 0.187,0.561 0.181,0.453 0.453,0.833 0.816,1.139 0.362,0.306 0.771,0.549 1.224,0.731 0.793,0.362 1.779,0.544 2.958,0.544 h 0.544 c 0.181,0 0.362,-0.023 0.544,-0.068 h 0.272 c 0.136,-0.046 0.272,-0.074 0.408,-0.085 0.136,-0.012 0.272,-0.04 0.408,-0.085 0.725,-0.182 1.348,-0.454 1.87,-0.816 0.702,-0.454 1.247,-1.133 1.632,-2.04 0.113,-0.227 0.198,-0.488 0.255,-0.782 0.056,-0.295 0.153,-0.544 0.289,-0.748 0.045,-0.046 0.09,-0.085 0.136,-0.119 0.045,-0.034 0.09,-0.063 0.136,-0.085 0.091,-0.046 0.176,-0.068 0.255,-0.068 0.079,0 0.176,-0.012 0.289,-0.034 C -2.901,9.191 -2.811,9.18 -2.72,9.18 h 0.306 c 0.272,0 0.532,0.011 0.782,0.034 0.249,0.022 0.43,0.113 0.544,0.272 0.068,0.113 0.108,0.277 0.119,0.493 0.011,0.215 -0.006,0.413 -0.051,0.595 -0.114,0.43 -0.227,0.844 -0.34,1.241 -0.114,0.396 -0.272,0.753 -0.476,1.071 -0.068,0.113 -0.131,0.232 -0.187,0.357 -0.057,0.124 -0.13,0.243 -0.221,0.357 -0.091,0.113 -0.182,0.226 -0.272,0.34 l -0.272,0.34 c -0.046,0.068 -0.102,0.13 -0.17,0.187 -0.068,0.056 -0.125,0.107 -0.17,0.153 -0.046,0.045 -0.091,0.085 -0.136,0.119 -0.046,0.034 -0.09,0.073 -0.136,0.119 -0.114,0.113 -0.233,0.204 -0.357,0.272 -0.125,0.068 -0.255,0.147 -0.391,0.238 -0.771,0.498 -1.655,0.872 -2.652,1.122 -0.998,0.249 -2.142,0.351 -3.434,0.306 -0.045,-0.046 -0.136,-0.057 -0.272,-0.034 -0.136,0.022 -0.238,0.022 -0.306,0 -0.182,-0.046 -0.38,-0.068 -0.595,-0.068 -0.216,0 -0.414,-0.023 -0.595,-0.068 -0.182,-0.045 -0.352,-0.085 -0.51,-0.119 -0.159,-0.034 -0.329,-0.074 -0.51,-0.119 -0.658,-0.181 -1.236,-0.397 -1.734,-0.646 -0.046,-0.046 -0.102,-0.074 -0.17,-0.085 -0.068,-0.012 -0.125,-0.04 -0.17,-0.085 -0.612,-0.386 -1.168,-0.811 -1.666,-1.275 -0.499,-0.465 -0.907,-1.037 -1.224,-1.717 -0.091,-0.204 -0.164,-0.42 -0.221,-0.646 -0.057,-0.227 -0.119,-0.465 -0.187,-0.714 -0.068,-0.227 -0.125,-0.55 -0.17,-0.969 -0.045,-0.419 -0.034,-0.765 0.034,-1.037 0,-0.068 0.006,-0.136 0.017,-0.204 0.011,-0.068 0.017,-0.148 0.017,-0.238 0.068,-0.25 0.124,-0.493 0.17,-0.731 0.045,-0.238 0.124,-0.459 0.238,-0.663 0.249,-0.589 0.589,-1.071 1.02,-1.445 0.43,-0.374 0.906,-0.72 1.428,-1.037 0.204,-0.136 0.419,-0.25 0.646,-0.34 0.226,-0.091 0.453,-0.181 0.68,-0.272 0.045,-0.023 0.079,-0.034 0.102,-0.034 0.023,0 0.057,-0.012 0.102,-0.034 0.317,-0.136 0.657,-0.244 1.02,-0.323 0.362,-0.08 0.725,-0.176 1.088,-0.289 0.634,-0.182 1.292,-0.34 1.972,-0.476 C -9.35,2.992 -8.687,2.85 -8.041,2.703 -7.395,2.555 -6.777,2.38 -6.188,2.176 -5.599,1.972 -5.066,1.7 -4.59,1.36 -4.272,1.133 -4.001,0.889 -3.774,0.629 -3.548,0.368 -3.366,0.045 -3.23,-0.34 c 0.045,-0.091 0.068,-0.176 0.068,-0.255 0,-0.08 0.022,-0.176 0.068,-0.289 0.045,-0.159 0.068,-0.363 0.068,-0.612 0,-0.25 -0.023,-0.465 -0.068,-0.646 C -3.14,-2.324 -3.185,-2.505 -3.23,-2.686 -3.275,-2.868 -3.332,-3.049 -3.4,-3.23 -3.649,-3.797 -4.007,-4.245 -4.471,-4.573 -4.936,-4.902 -5.463,-5.191 -6.052,-5.44 -6.233,-5.508 -6.426,-5.559 -6.63,-5.593 c -0.204,-0.034 -0.397,-0.074 -0.578,-0.119 -0.091,-0.046 -0.165,-0.063 -0.221,-0.051 -0.057,0.011 -0.119,0.005 -0.187,-0.017 -0.113,-0.023 -0.227,-0.034 -0.34,-0.034 -0.113,0 -0.227,-0.012 -0.34,-0.034 h -0.238 c -0.113,-0.046 -0.255,-0.068 -0.425,-0.068 -0.17,0 -0.301,0.011 -0.391,0.034 -0.114,0.045 -0.233,0.056 -0.357,0.034 -0.125,-0.023 -0.232,-0.023 -0.323,0 -0.068,0 -0.136,0.005 -0.204,0.017 -0.068,0.011 -0.125,0.017 -0.17,0.017 -0.182,0.022 -0.363,0.045 -0.544,0.068 -0.182,0.022 -0.363,0.056 -0.544,0.102 -0.522,0.158 -1.009,0.328 -1.462,0.51 -0.454,0.181 -0.873,0.419 -1.258,0.714 -0.77,0.566 -1.349,1.337 -1.734,2.312 -0.068,0.158 -0.119,0.317 -0.153,0.476 -0.034,0.158 -0.074,0.317 -0.119,0.476 -0.046,0.136 -0.074,0.266 -0.085,0.391 -0.011,0.124 -0.051,0.243 -0.119,0.357 -0.046,0.09 -0.147,0.181 -0.306,0.272 -0.091,0.045 -0.17,0.062 -0.238,0.051 -0.068,-0.012 -0.159,-0.006 -0.272,0.017 -0.068,0.023 -0.153,0.034 -0.255,0.034 h -0.289 c -0.25,0 -0.505,-0.011 -0.765,-0.034 -0.261,-0.023 -0.448,-0.114 -0.561,-0.272 -0.114,-0.114 -0.17,-0.301 -0.17,-0.561 0,-0.261 0.022,-0.493 0.068,-0.697 0.045,-0.113 0.073,-0.238 0.085,-0.374 0.011,-0.136 0.039,-0.272 0.085,-0.408 0.113,-0.363 0.232,-0.703 0.357,-1.02 0.124,-0.318 0.278,-0.624 0.459,-0.918 0.544,-0.907 1.196,-1.643 1.955,-2.21 0.759,-0.567 1.694,-1.032 2.805,-1.394 0.227,-0.09 0.447,-0.159 0.663,-0.204 0.215,-0.045 0.447,-0.09 0.697,-0.136 0.113,-0.023 0.215,-0.039 0.306,-0.051 0.09,-0.011 0.181,-0.028 0.272,-0.051 0.204,-0.045 0.42,-0.068 0.646,-0.068 0.227,0 0.453,-0.023 0.68,-0.068 h 0.374 c 0.113,-0.022 0.277,-0.034 0.493,-0.034 0.215,0 0.379,0.012 0.493,0.034 0.136,0 0.272,0.006 0.408,0.017 0.136,0.012 0.272,0.017 0.408,0.017 0.113,0.023 0.232,0.034 0.357,0.034 0.124,0 0.243,0.012 0.357,0.034 0.272,0.068 0.544,0.119 0.816,0.153 0.272,0.034 0.532,0.097 0.782,0.187 0.249,0.068 0.482,0.136 0.697,0.204 0.215,0.068 0.436,0.147 0.663,0.238 0.68,0.317 1.314,0.68 1.904,1.088 0.589,0.408 1.076,0.906 1.462,1.496 0.204,0.272 0.374,0.566 0.51,0.884 0.136,0.317 0.26,0.646 0.374,0.986 0.068,0.181 0.107,0.368 0.119,0.561 0.011,0.192 0.04,0.379 0.085,0.561 v 0.272 c 0,0.09 0.011,0.181 0.034,0.272 v 0.306 0.374 C 0.09,-0.68 0.068,-0.539 0.068,-0.391 0.068,-0.244 0.045,-0.114 0,0"
       style="fill:#f0e88c;fill-opacity:1;fill-rule:nonzero;stroke:none"
       transform="matrix(1.3333333,0,0,-1.3333333,6058.5524,195.56653)"
       clip-path="url(#clipPath864)" />
    <path
       id="path865"
       d="m 0,0 v 40.432 c 0,0.222 -0.18,0.402 -0.402,0.402 -0.223,0 -0.403,-0.18 -0.403,-0.402 V 0 c 0,-0.222 0.18,-0.402 0.403,-0.402 C -0.18,-0.402 0,-0.222 0,0"
       style="fill:#f0e88c;fill-opacity:1;fill-rule:nonzero;stroke:none"
       transform="matrix(1.3333333,0,0,-1.3333333,5971.1324,92.506667)"
       clip-path="url(#clipPath866)" />
    <path
       id="path867"
       d="M 0,0 C 0,-0.222 0.18,-0.402 0.403,-0.402 H 39.11 c 0.223,0 0.403,0.18 0.403,0.402 0,0.222 -0.18,0.402 -0.403,0.402 H 0.403 C 0.18,0.402 0,0.222 0,0"
       style="fill:#f0e88c;fill-opacity:1;fill-rule:nonzero;stroke:none"
       transform="matrix(1.3333333,0,0,-1.3333333,5884.2227,125.618)"
       clip-path="url(#clipPath868)" />
    <path
       id="path869"
       d="M 0,0 C -0.058,-0.214 0.068,-0.436 0.283,-0.494 L 25.211,-7.28 c 0.036,-0.01 0.071,-0.014 0.106,-0.014 0.177,0 0.34,0.118 0.388,0.296 0.059,0.215 -0.068,0.436 -0.282,0.495 L 0.494,0.283 C 0.281,0.341 0.058,0.214 0,0"
       style="fill:#f0e88c;fill-opacity:1;fill-rule:nonzero;stroke:none"
       transform="matrix(1.3333333,0,0,-1.3333333,5904.6703,108.19667)"
       clip-path="url(#clipPath870)" />
    <path
       id="path871"
       d="m 0,0 c -0.111,-0.193 -0.044,-0.439 0.149,-0.55 l 26.746,-15.352 c 0.063,-0.037 0.132,-0.054 0.2,-0.054 0.139,0 0.275,0.073 0.349,0.202 0.111,0.193 0.044,0.439 -0.148,0.55 L 0.55,0.148 C 0.356,0.259 0.11,0.193 0,0"
       style="fill:#f0e88c;fill-opacity:1;fill-rule:nonzero;stroke:none"
       transform="matrix(1.3333333,0,0,-1.3333333,5904.8905,88.0548)"
       clip-path="url(#clipPath872)" />
    <path
       id="path873"
       d="m 0,0 c -0.157,-0.158 -0.156,-0.413 0.001,-0.57 l 27.962,-27.827 c 0.078,-0.079 0.181,-0.118 0.283,-0.118 0.104,0 0.207,0.04 0.286,0.119 0.157,0.158 0.156,0.413 -0.002,0.569 L 0.569,0.001 C 0.412,0.158 0.157,0.157 0,0"
       style="fill:#f0e88c;fill-opacity:1;fill-rule:nonzero;stroke:none"
       transform="matrix(1.3333333,0,0,-1.3333333,5909.2931,64.232533)"
       clip-path="url(#clipPath874)" />
    <path
       id="path875"
       d="m 0,0 c -0.191,-0.113 -0.254,-0.36 -0.141,-0.551 l 16.682,-28.178 c 0.076,-0.127 0.21,-0.198 0.347,-0.198 0.07,0 0.14,0.018 0.205,0.056 0.191,0.114 0.254,0.36 0.141,0.552 L 0.552,-0.142 C 0.439,0.05 0.192,0.113 0,0"
       style="fill:#f0e88c;fill-opacity:1;fill-rule:nonzero;stroke:none"
       transform="matrix(1.3333333,0,0,-1.3333333,5931.2717,58.183067)"
       clip-path="url(#clipPath876)" />
    <path
       id="path877"
       d="M 0,0 C 0.034,0 0.069,0.004 0.104,0.013 0.318,0.07 0.447,0.291 0.39,0.505 l -7.115,26.897 c -0.057,0.216 -0.277,0.343 -0.492,0.287 -0.215,-0.057 -0.343,-0.277 -0.286,-0.492 L -0.389,0.299 C -0.341,0.119 -0.178,0 0,0"
       style="fill:#f0e88c;fill-opacity:1;fill-rule:nonzero;stroke:none"
       transform="matrix(1.3333333,0,0,-1.3333333,5961.8439,94.410933)"
       clip-path="url(#clipPath878)" />
    <path
       id="path879"
       d="m 0,0 h 38.708 c 0.222,0 0.402,0.18 0.402,0.402 0,0.223 -0.18,0.403 -0.402,0.403 H 0 c -0.222,0 -0.402,-0.18 -0.402,-0.403 C -0.402,0.18 -0.222,0 0,0"
       style="fill:#f0e88c;fill-opacity:1;fill-rule:nonzero;stroke:none"
       transform="matrix(1.3333333,0,0,-1.3333333,6004.8216,126.1544)"
       clip-path="url(#clipPath880)" />
    <path
       id="path881"
       d="M 0,0 C 0.035,0 0.071,0.005 0.106,0.015 L 25.035,6.8 c 0.215,0.058 0.341,0.28 0.282,0.494 -0.058,0.215 -0.281,0.342 -0.494,0.283 L -0.105,0.791 C -0.32,0.733 -0.447,0.512 -0.388,0.297 -0.339,0.118 -0.177,0 0,0"
       style="fill:#f0e88c;fill-opacity:1;fill-rule:nonzero;stroke:none"
       transform="matrix(1.3333333,0,0,-1.3333333,6002.7644,117.92267)"
       clip-path="url(#clipPath882)" />
    <path
       id="path883"
       d="m 0,0 c 0.068,0 0.137,0.017 0.2,0.054 l 26.746,15.352 c 0.193,0.111 0.26,0.357 0.149,0.55 -0.111,0.193 -0.357,0.259 -0.55,0.148 L -0.201,0.752 C -0.393,0.641 -0.46,0.395 -0.349,0.202 -0.275,0.073 -0.139,0 0,0"
       style="fill:#f0e88c;fill-opacity:1;fill-rule:nonzero;stroke:none"
       transform="matrix(1.3333333,0,0,-1.3333333,6000.1745,109.3296)"
       clip-path="url(#clipPath884)" />
    <path
       id="path885"
       d="M 0,0 C -0.157,0.157 -0.413,0.158 -0.569,0.001 L -28.53,-27.827 c -0.157,-0.156 -0.158,-0.411 -10e-4,-0.569 0.078,-0.079 0.182,-0.119 0.285,-0.119 0.102,0 0.205,0.039 0.284,0.118 L -0.002,-0.57 C 0.156,-0.413 0.157,-0.158 0,0"
       style="fill:#f0e88c;fill-opacity:1;fill-rule:nonzero;stroke:none"
       transform="matrix(1.3333333,0,0,-1.3333333,6031.8985,64.232533)"
       clip-path="url(#clipPath886)" />
    <path
       id="path887"
       d="m 0,0 c 0.064,-0.038 0.135,-0.056 0.205,-0.056 0.138,0 0.272,0.07 0.347,0.197 l 16.682,28.178 c 0.113,0.191 0.05,0.438 -0.141,0.552 -0.191,0.113 -0.438,0.049 -0.551,-0.142 L -0.141,0.551 C -0.254,0.36 -0.191,0.113 0,0"
       style="fill:#f0e88c;fill-opacity:1;fill-rule:nonzero;stroke:none"
       transform="matrix(1.3333333,0,0,-1.3333333,5987.1289,96.6772)"
       clip-path="url(#clipPath888)" />
    <path
       id="path889"
       d="m 0,0 c -0.214,0.055 -0.436,-0.071 -0.492,-0.287 l -7.115,-26.897 c -0.057,-0.214 0.071,-0.435 0.286,-0.492 0.035,-0.009 0.069,-0.013 0.103,-0.013 0.179,0 0.342,0.119 0.389,0.299 L 0.286,-0.492 C 0.343,-0.277 0.215,-0.057 0,0"
       style="fill:#f0e88c;fill-opacity:1;fill-rule:nonzero;stroke:none"
       transform="matrix(1.3333333,0,0,-1.3333333,5988.9709,57.492267)"
       clip-path="url(#clipPath890)" />
    <path
       id="path891"
       d="m 0,0 c 0,0.827 -0.086,1.665 -0.177,2.552 -0.425,4.163 -0.908,8.882 7.866,14.296 8.027,4.953 8.813,13.442 9.506,20.93 0.453,4.901 0.882,9.53 3.279,12.406 3.146,3.774 6.9,3.965 12.096,4.23 5.686,0.29 12.763,0.65 21.294,6.144 3.276,2.11 5.601,4.235 7.469,5.944 2.978,2.722 4.776,4.365 8.1,4.373 h 0.024 c 3.513,0 5.602,-1.899 8.761,-4.771 1.778,-1.616 3.795,-3.449 6.486,-5.321 9.25,-6.434 17.066,-6.739 23.346,-6.984 5.477,-0.215 9.435,-0.369 12.592,-4.267 3.727,-4.603 3.6,-11.114 3.477,-17.409 -0.137,-7.052 -0.28,-14.343 5.305,-18.552 0.221,-0.167 0.484,-0.353 0.781,-0.562 1.554,-1.096 3.9,-2.752 6.029,-5.861 0.604,-0.882 1.141,-1.514 1.614,-2.072 1.241,-1.464 1.808,-2.132 1.808,-5.899 0,-0.837 0.678,-1.516 1.516,-1.516 0.837,0 1.516,0.679 1.516,1.516 0,4.654 -0.913,5.957 -2.527,7.86 -0.447,0.527 -0.909,1.072 -1.424,1.825 -2.437,3.559 -5.158,5.478 -6.783,6.625 -0.268,0.189 -0.505,0.356 -0.704,0.506 -4.348,3.277 -4.232,9.205 -4.099,16.07 0.134,6.841 0.272,13.914 -4.152,19.377 -4.022,4.967 -9.031,5.163 -14.831,5.389 -6.192,0.242 -13.21,0.516 -21.732,6.444 -2.53,1.759 -4.468,3.521 -6.178,5.076 -3.416,3.105 -6.115,5.559 -10.799,5.559 H 69.425 C 64.928,73.896 62.439,71.621 59.287,68.74 57.41,67.024 55.282,65.079 52.222,63.108 44.371,58.052 38.019,57.728 32.415,57.443 26.902,57.162 22.14,56.919 18.144,52.126 c -3,-3.6 -3.471,-8.685 -3.969,-14.068 C 13.516,30.944 12.836,23.588 6.096,19.429 -4.296,13.016 -3.659,6.79 -3.194,2.244 -3.111,1.436 -3.032,0.672 -3.032,0 c 0,-0.837 0.678,-1.517 1.516,-1.517 C -0.679,-1.517 0,-0.837 0,0"
       style="fill:#f0e88c;fill-opacity:1;fill-rule:nonzero;stroke:none"
       transform="matrix(1.3333333,0,0,-1.3333333,5877.7409,125.85293)"
       clip-path="url(#clipPath892)" />
    <path
       id="path893"
       d="m 0,0 c 0,-0.889 0.721,-1.61 1.61,-1.61 0.889,0 1.61,0.721 1.61,1.61 0,10.406 -8.465,18.872 -18.871,18.872 -10.406,0 -18.872,-8.466 -18.872,-18.872 0,-0.889 0.721,-1.61 1.611,-1.61 0.889,0 1.61,0.721 1.61,1.61 0,8.63 7.021,15.651 15.651,15.651 C -7.021,15.651 0,8.63 0,0"
       style="fill:#f0e88c;fill-opacity:1;fill-rule:nonzero;stroke:none"
       transform="matrix(1.3333333,0,0,-1.3333333,5991.4612,125.79693)"
       clip-path="url(#clipPath894)" />
    <path
       id="path895"
       d="m 0,0 c -0.002,-0.046 -0.007,-0.089 -0.015,-0.129 0,-0.016 -0.001,-0.031 -0.003,-0.045 -0.002,-0.014 -0.003,-0.027 -0.003,-0.039 -0.021,-0.08 -0.038,-0.158 -0.054,-0.234 -0.016,-0.076 -0.04,-0.148 -0.072,-0.216 -0.088,-0.204 -0.197,-0.379 -0.327,-0.525 -0.13,-0.146 -0.285,-0.275 -0.465,-0.387 -0.044,-0.028 -0.092,-0.052 -0.144,-0.072 -0.052,-0.02 -0.102,-0.04 -0.15,-0.06 -0.056,-0.024 -0.113,-0.04 -0.171,-0.048 -0.058,-0.008 -0.119,-0.02 -0.183,-0.036 l -0.144,-0.018 h -0.078 c -0.02,-0.004 -0.051,-0.005 -0.093,-0.003 -0.042,0.002 -0.073,0.005 -0.093,0.009 h -0.036 c -0.028,0.008 -0.055,0.013 -0.081,0.015 -0.026,0.002 -0.055,0.005 -0.087,0.009 -0.032,0.008 -0.065,0.016 -0.099,0.024 -0.034,0.008 -0.067,0.016 -0.099,0.024 -0.036,0.012 -0.072,0.025 -0.108,0.039 -0.036,0.014 -0.07,0.029 -0.102,0.045 -0.216,0.092 -0.402,0.218 -0.558,0.378 -0.156,0.16 -0.28,0.348 -0.372,0.564 -0.02,0.04 -0.036,0.081 -0.048,0.123 -0.012,0.042 -0.026,0.085 -0.042,0.129 -0.004,0.012 -0.007,0.025 -0.009,0.039 -0.002,0.014 -0.005,0.027 -0.009,0.039 -0.012,0.044 -0.021,0.089 -0.024,0.135 -0.004,0.046 -0.012,0.091 -0.024,0.135 v 0.06 c 0,0.02 -0.002,0.04 -0.006,0.06 -0.004,0.02 -0.006,0.055 -0.006,0.105 0,0.05 0.002,0.085 0.006,0.105 v 0.048 c 0.004,0.028 0.007,0.054 0.009,0.078 0.002,0.024 0.005,0.05 0.009,0.078 0.02,0.068 0.035,0.135 0.045,0.201 0.01,0.066 0.027,0.129 0.051,0.189 0.108,0.26 0.245,0.478 0.411,0.654 0.166,0.176 0.377,0.318 0.633,0.426 0.06,0.024 0.121,0.042 0.183,0.054 0.062,0.012 0.127,0.028 0.195,0.048 l 0.162,0.018 c 0.008,0.004 0.017,0.005 0.027,0.003 0.01,-0.002 0.019,-10e-4 0.027,0.003 0.04,0 0.083,10e-4 0.129,0.003 0.046,0.002 0.087,-10e-4 0.123,-0.009 0.008,0 0.018,-0.001 0.03,-0.003 0.012,-0.002 0.022,-0.003 0.03,-0.003 0.024,-0.004 0.049,-0.007 0.075,-0.009 0.026,-0.002 0.051,-0.007 0.075,-0.015 0.056,-0.012 0.109,-0.024 0.159,-0.036 0.05,-0.012 0.099,-0.028 0.147,-0.048 0.244,-0.1 0.454,-0.24 0.63,-0.42 0.024,-0.02 0.048,-0.043 0.072,-0.069 0.024,-0.026 0.046,-0.053 0.066,-0.081 0.036,-0.044 0.07,-0.091 0.102,-0.141 0.032,-0.05 0.064,-0.101 0.096,-0.153 0.02,-0.032 0.035,-0.065 0.045,-0.099 0.01,-0.034 0.023,-0.069 0.039,-0.105 0.04,-0.096 0.072,-0.202 0.096,-0.318 C -0.009,0.403 0.003,0.277 0.003,0.141 0.003,0.093 0.002,0.046 0,0 M 0.399,0.183 V 0.255 C 0.395,0.283 0.392,0.309 0.39,0.333 0.388,0.357 0.385,0.383 0.381,0.411 0.377,0.443 0.373,0.474 0.369,0.504 0.365,0.534 0.359,0.565 0.351,0.597 0.331,0.661 0.314,0.723 0.3,0.783 0.286,0.843 0.267,0.901 0.243,0.957 0.211,1.037 0.175,1.113 0.135,1.185 0.095,1.257 0.051,1.327 0.003,1.395 c -0.02,0.028 -0.04,0.053 -0.06,0.075 -0.02,0.022 -0.04,0.047 -0.06,0.075 -0.048,0.068 -0.102,0.126 -0.162,0.174 -0.008,0.008 -0.015,0.015 -0.021,0.021 -0.006,0.006 -0.013,0.013 -0.021,0.021 -0.02,0.016 -0.039,0.032 -0.057,0.048 -0.018,0.016 -0.037,0.032 -0.057,0.048 -0.036,0.028 -0.073,0.055 -0.111,0.081 -0.038,0.026 -0.078,0.053 -0.117,0.081 -0.016,0.008 -0.032,0.016 -0.048,0.024 -0.016,0.008 -0.032,0.016 -0.048,0.024 -0.036,0.024 -0.074,0.044 -0.114,0.06 -0.04,0.016 -0.082,0.034 -0.126,0.054 -0.128,0.056 -0.267,0.098 -0.417,0.126 -0.15,0.028 -0.317,0.04 -0.501,0.036 -0.008,-0.004 -0.018,-0.004 -0.03,0 -0.012,0.004 -0.022,0.004 -0.03,0 C -2.009,2.339 -2.043,2.336 -2.079,2.334 -2.115,2.332 -2.149,2.329 -2.181,2.325 -2.205,2.317 -2.231,2.312 -2.259,2.31 -2.287,2.308 -2.313,2.303 -2.337,2.295 -2.389,2.279 -2.441,2.265 -2.493,2.253 -2.545,2.241 -2.595,2.225 -2.643,2.205 -2.955,2.077 -3.219,1.909 -3.435,1.701 -3.651,1.493 -3.823,1.233 -3.951,0.921 -3.983,0.853 -4.007,0.781 -4.023,0.705 -4.039,0.629 -4.057,0.551 -4.077,0.471 -4.081,0.439 -4.084,0.409 -4.086,0.381 -4.088,0.353 -4.091,0.325 -4.095,0.297 V 0.255 C -4.103,0.231 -4.107,0.196 -4.107,0.15 c 0,-0.046 0.004,-0.081 0.012,-0.105 v -0.054 c 0,-0.02 10e-4,-0.04 0.003,-0.06 0.002,-0.02 0.003,-0.04 0.003,-0.06 0.008,-0.02 0.011,-0.041 0.009,-0.063 -0.003,-0.022 0.001,-0.043 0.009,-0.063 0.008,-0.032 0.015,-0.065 0.021,-0.099 0.006,-0.034 0.013,-0.067 0.021,-0.099 0.02,-0.056 0.036,-0.108 0.048,-0.156 0.012,-0.048 0.028,-0.098 0.048,-0.15 0.116,-0.264 0.267,-0.494 0.456,-0.69 0.188,-0.196 0.414,-0.352 0.678,-0.468 0.028,-0.012 0.057,-0.024 0.087,-0.036 0.03,-0.012 0.059,-0.024 0.087,-0.036 0.044,-0.02 0.087,-0.035 0.129,-0.045 0.042,-0.01 0.085,-0.021 0.129,-0.033 0.032,-0.008 0.066,-0.014 0.102,-0.018 0.036,-0.004 0.07,-0.01 0.102,-0.018 0.012,0 0.024,-10e-4 0.036,-0.003 0.012,-0.002 0.026,-0.003 0.042,-0.003 0.016,-0.004 0.033,-0.006 0.051,-0.006 0.018,0 0.034,-0.002 0.051,-0.006 h 0.066 c 0.012,-0.004 0.036,-0.007 0.072,-0.009 0.036,-0.002 0.06,-10e-4 0.072,0.003 l 0.198,0.018 c 0.02,0.004 0.04,0.006 0.06,0.006 0.02,0 0.04,0.004 0.06,0.012 0.052,0.012 0.103,0.022 0.153,0.03 0.05,0.008 0.099,0.022 0.147,0.042 0.32,0.104 0.596,0.26 0.828,0.468 0.232,0.208 0.411,0.458 0.54,0.75 0.032,0.068 0.058,0.138 0.078,0.21 0.02,0.072 0.04,0.146 0.06,0.222 l 0.036,0.216 c 0.004,0.02 0.006,0.042 0.006,0.066 0,0.024 0.002,0.046 0.006,0.066 v 0.072 c 0.004,0.02 0.006,0.043 0.006,0.069 0,0.026 -0.002,0.047 -0.006,0.063"
       style="fill:#f0e88c;fill-opacity:1;fill-rule:nonzero;stroke:none"
       transform="matrix(1.3333333,0,0,-1.3333333,6077.4424,140.948)"
       clip-path="url(#clipPath896)" />
    <path
       id="path897"
       d="m 0,0 c -0.012,-0.06 -0.036,-0.114 -0.071,-0.162 -0.029,-0.04 -0.067,-0.071 -0.115,-0.093 -0.047,-0.022 -0.102,-0.039 -0.162,-0.051 -0.06,-0.012 -0.125,-0.019 -0.195,-0.021 -0.07,-0.002 -0.139,-0.003 -0.207,-0.003 -0.063,0 -0.127,0.001 -0.188,0.003 -0.063,0.002 -0.108,0.023 -0.136,0.063 -0.028,0.036 -0.041,0.097 -0.038,0.183 0.002,0.086 0.003,0.161 0.003,0.225 0,0.024 -0.001,0.05 -0.003,0.078 -0.003,0.028 0,0.052 0.008,0.072 V 0.36 c 0.004,0.016 0.007,0.032 0.009,0.048 0.002,0.016 0.007,0.03 0.015,0.042 0.017,0.028 0.044,0.048 0.084,0.06 0.008,0 0.017,0.001 0.027,0.003 0.01,0.002 0.019,0.003 0.028,0.003 h 0.291 c 0.097,0 0.187,-0.006 0.269,-0.018 C -0.299,0.486 -0.227,0.464 -0.165,0.432 -0.103,0.4 -0.056,0.35 -0.023,0.282 -0.008,0.25 0.004,0.207 0.013,0.153 0.021,0.099 0.017,0.048 0,0 M 0.265,0.582 C 0.236,0.618 0.196,0.65 0.145,0.678 0.036,0.758 -0.088,0.804 -0.228,0.816 -0.368,0.828 -0.532,0.834 -0.72,0.834 H -1.355 C -1.364,0.834 -1.372,0.833 -1.38,0.831 -1.388,0.829 -1.396,0.828 -1.403,0.828 -1.439,0.816 -1.466,0.796 -1.481,0.768 -1.498,0.748 -1.506,0.72 -1.506,0.684 V 0.582 -1.434 c 0,-0.028 -10e-4,-0.057 -0.003,-0.087 -0.002,-0.03 -0.001,-0.055 0.003,-0.075 v -0.036 c 0.008,-0.02 0.014,-0.04 0.019,-0.06 0.004,-0.02 0.013,-0.036 0.029,-0.048 0.021,-0.016 0.047,-0.026 0.081,-0.03 0.034,-0.004 0.068,-0.005 0.103,-0.003 0.033,0.002 0.064,0.01 0.092,0.024 0.028,0.014 0.046,0.031 0.054,0.051 0.016,0.032 0.024,0.069 0.022,0.111 -0.002,0.042 -0.003,0.085 -0.003,0.129 v 0.486 c 0,0.052 10e-4,0.102 0.003,0.15 0.002,0.048 0.012,0.088 0.032,0.12 0.016,0.02 0.036,0.032 0.06,0.036 0.024,0.004 0.052,0.01 0.084,0.018 h 0.054 c 0.036,0 0.071,-0.001 0.105,-0.003 0.034,-0.002 0.063,-0.011 0.087,-0.027 0.048,-0.032 0.086,-0.073 0.115,-0.123 0.027,-0.05 0.057,-0.099 0.09,-0.147 l 0.377,-0.594 c 0.024,-0.032 0.047,-0.068 0.069,-0.108 0.022,-0.04 0.052,-0.07 0.088,-0.09 0.015,-0.012 0.032,-0.018 0.05,-0.018 0.018,0 0.038,-0.004 0.057,-0.012 0.04,-0.008 0.076,-0.008 0.109,0 0.019,0.004 0.036,0.006 0.047,0.006 0.012,0 0.026,0.004 0.042,0.012 0.028,0.028 0.035,0.064 0.018,0.108 -0.012,0.032 -0.026,0.062 -0.045,0.09 -0.018,0.028 -0.037,0.056 -0.057,0.084 l -0.36,0.558 c -0.016,0.028 -0.032,0.053 -0.048,0.075 -0.015,0.022 -0.032,0.049 -0.048,0.081 -0.004,0.008 -0.007,0.018 -0.011,0.03 -0.004,0.012 -0.007,0.024 -0.007,0.036 0.005,0.028 0.018,0.051 0.042,0.069 0.024,0.018 0.051,0.033 0.078,0.045 0.028,0.012 0.057,0.023 0.087,0.033 0.03,0.01 0.057,0.021 0.081,0.033 0.068,0.044 0.127,0.094 0.178,0.15 0.049,0.056 0.088,0.128 0.116,0.216 0.009,0.028 0.017,0.071 0.027,0.129 0.01,0.058 0.011,0.105 0.003,0.141 V 0.18 L 0.396,0.288 C 0.368,0.4 0.324,0.498 0.265,0.582"
       style="fill:#f0e88c;fill-opacity:1;fill-rule:nonzero;stroke:none"
       transform="matrix(1.3333333,0,0,-1.3333333,6075.8299,140.17587)"
       clip-path="url(#clipPath898)" />
  </g>
  <g
     id="layer-MC1"
     inkscape:groupmode="layer"
     inkscape:label="Logo"
     transform="translate(-5845.8892)" />
</svg>
